<?xml version="1.0" encoding="UTF-8" standalone="no"?>
<!DOCTYPE svg PUBLIC "-//W3C//DTD SVG 1.1//EN"
 "http://www.w3.org/Graphics/SVG/1.1/DTD/svg11.dtd">
<!-- Generated by graphviz version 2.40.1 (20161225.0304)
 -->
<!-- Title: dependencies Pages: 1 -->
<svg width="707pt" height="211pt"
 viewBox="0.00 0.00 707.00 211.00" xmlns="http://www.w3.org/2000/svg" xmlns:xlink="http://www.w3.org/1999/xlink">
<g id="graph0" class="graph" transform="scale(1 1) rotate(0) translate(4 207)">
<title>dependencies</title>
<polygon fill="#ffffff" stroke="transparent" points="-4,4 -4,-207 703,-207 703,4 -4,4"/>
<text text-anchor="start" x="328.5091" y="-42.4" font-family="sans-serif" font-weight="bold" font-size="14.00" fill="#000000">Legend</text>
<polygon fill="#ffffb3" stroke="transparent" points="115.5,-10 115.5,-30 135.5,-30 135.5,-10 115.5,-10"/>
<text text-anchor="start" x="139.129" y="-15.4" font-family="sans-serif" font-size="14.00" fill="#000000"> &#160;Declarations</text>
<polygon fill="#8dd3c7" stroke="transparent" points="228.5,-10 228.5,-30 248.5,-30 248.5,-10 228.5,-10"/>
<text text-anchor="start" x="252.2251" y="-15.4" font-family="sans-serif" font-size="14.00" fill="#000000"> &#160;Module</text>
<polygon fill="#80b1d3" stroke="transparent" points="314.5,-10 314.5,-30 334.5,-30 334.5,-10 314.5,-10"/>
<text text-anchor="start" x="338.2812" y="-15.4" font-family="sans-serif" font-size="14.00" fill="#000000"> &#160;Bootstrap</text>
<polygon fill="#fdb462" stroke="transparent" points="411.5,-10 411.5,-30 431.5,-30 431.5,-10 411.5,-10"/>
<text text-anchor="start" x="435.1732" y="-15.4" font-family="sans-serif" font-size="14.00" fill="#000000"> &#160;Providers</text>
<polygon fill="#fb8072" stroke="transparent" points="507.5,-10 507.5,-30 527.5,-30 527.5,-10 507.5,-10"/>
<text text-anchor="start" x="531.2258" y="-15.4" font-family="sans-serif" font-size="14.00" fill="#000000"> &#160;Exports</text>
<g id="clust1" class="cluster">
<title>cluster_DescartesInvoicesModule</title>
<polygon fill="none" stroke="#000000" stroke-dasharray="1,5" points="8,-70 8,-195 691,-195 691,-70 8,-70"/>
</g>
<g id="clust2" class="cluster">
<title>cluster_DescartesInvoicesModule_declarations</title>
<polygon fill="none" stroke="#000000" points="467,-78 467,-130 683,-130 683,-78 467,-78"/>
</g>
<g id="clust4" class="cluster">
<title>cluster_DescartesInvoicesModule_imports</title>
<polygon fill="none" stroke="#000000" points="16,-78 16,-130 459,-130 459,-78 16,-78"/>
</g>
<!-- DescartesInvoicesPageContainer -->
<g id="node1" class="node">
<title>DescartesInvoicesPageContainer</title>
<polygon fill="#ffffb3" stroke="#000000" points="675.25,-122 474.75,-122 474.75,-86 675.25,-86 675.25,-122"/>
<text text-anchor="middle" x="575" y="-99.8" font-family="Times,serif" font-size="14.00" fill="#000000">DescartesInvoicesPageContainer</text>
</g>
<!-- DescartesInvoicesModule -->
<g id="node2" class="node">
<title>DescartesInvoicesModule</title>
<polygon fill="#8dd3c7" stroke="#000000" points="343.8806,-187 340.8806,-191 319.8806,-191 316.8806,-187 182.1194,-187 182.1194,-151 343.8806,-151 343.8806,-187"/>
<text text-anchor="middle" x="263" y="-164.8" font-family="Times,serif" font-size="14.00" fill="#000000">DescartesInvoicesModule</text>
</g>
<!-- DescartesInvoicesPageContainer&#45;&gt;DescartesInvoicesModule -->
<g id="edge1" class="edge">
<title>DescartesInvoicesPageContainer&#45;&gt;DescartesInvoicesModule</title>
<path fill="none" stroke="#000000" d="M575,-122.1061C575,-141.3391 575,-169 575,-169 575,-169 353.7535,-169 353.7535,-169"/>
<polygon fill="#000000" stroke="#000000" points="353.7535,-165.5001 343.7535,-169 353.7535,-172.5001 353.7535,-165.5001"/>
</g>
<!-- DescartesInvoicesRoutingModule -->
<g id="node3" class="node">
<title>DescartesInvoicesRoutingModule</title>
<polygon fill="#8dd3c7" stroke="#000000" points="451.4986,-122 448.4986,-126 427.4986,-126 424.4986,-122 244.5014,-122 244.5014,-86 451.4986,-86 451.4986,-122"/>
<text text-anchor="middle" x="348" y="-99.8" font-family="Times,serif" font-size="14.00" fill="#000000">DescartesInvoicesRoutingModule</text>
</g>
<!-- DescartesInvoicesRoutingModule&#45;&gt;DescartesInvoicesModule -->
<g id="edge2" class="edge">
<title>DescartesInvoicesRoutingModule&#45;&gt;DescartesInvoicesModule</title>
<path fill="none" stroke="#000000" d="M294.2206,-122.1061C294.2206,-122.1061 294.2206,-140.991 294.2206,-140.991"/>
<polygon fill="#000000" stroke="#000000" points="290.7206,-140.9909 294.2206,-150.991 297.7206,-140.991 290.7206,-140.9909"/>
</g>
<!-- SharedModule -->
<g id="node4" class="node">
<title>SharedModule</title>
<polygon fill="#8dd3c7" stroke="#000000" points="227.4231,-122 224.4231,-126 203.4231,-126 200.4231,-122 128.5769,-122 128.5769,-86 227.4231,-86 227.4231,-122"/>
<text text-anchor="middle" x="178" y="-99.8" font-family="Times,serif" font-size="14.00" fill="#000000">SharedModule</text>
</g>
<!-- SharedModule&#45;&gt;DescartesInvoicesModule -->
<g id="edge3" class="edge">
<title>SharedModule&#45;&gt;DescartesInvoicesModule</title>
<path fill="none" stroke="#000000" d="M204.7605,-122.1061C204.7605,-122.1061 204.7605,-140.991 204.7605,-140.991"/>
<polygon fill="#000000" stroke="#000000" points="201.2606,-140.9909 204.7605,-150.991 208.2606,-140.991 201.2606,-140.9909"/>
</g>
<!-- CoreModule -->
<g id="node5" class="node">
<title>CoreModule</title>
<polygon fill="#8dd3c7" stroke="#000000" points="110.2619,-122 107.2619,-126 86.2619,-126 83.2619,-122 23.7381,-122 23.7381,-86 110.2619,-86 110.2619,-122"/>
<text text-anchor="middle" x="67" y="-99.8" font-family="Times,serif" font-size="14.00" fill="#000000">CoreModule</text>
</g>
<!-- CoreModule&#45;&gt;DescartesInvoicesModule -->
<g id="edge4" class="edge">
<title>CoreModule&#45;&gt;DescartesInvoicesModule</title>
<path fill="none" stroke="#000000" d="M67,-122.1061C67,-141.3391 67,-169 67,-169 67,-169 172.1477,-169 172.1477,-169"/>
<polygon fill="#000000" stroke="#000000" points="172.1477,-172.5001 182.1477,-169 172.1477,-165.5001 172.1477,-172.5001"/>
</g>
</g>
</svg>
