<?xml version="1.0" encoding="UTF-8" standalone="no"?>
<!DOCTYPE svg PUBLIC "-//W3C//DTD SVG 1.1//EN"
 "http://www.w3.org/Graphics/SVG/1.1/DTD/svg11.dtd">
<!-- Generated by graphviz version 2.40.1 (20161225.0304)
 -->
<!-- Title: dependencies Pages: 1 -->
<svg width="3134pt" height="211pt"
 viewBox="0.00 0.00 3134.00 211.00" xmlns="http://www.w3.org/2000/svg" xmlns:xlink="http://www.w3.org/1999/xlink">
<g id="graph0" class="graph" transform="scale(1 1) rotate(0) translate(4 207)">
<title>dependencies</title>
<polygon fill="#ffffff" stroke="transparent" points="-4,4 -4,-207 3130,-207 3130,4 -4,4"/>
<text text-anchor="start" x="1542.0091" y="-42.4" font-family="sans-serif" font-weight="bold" font-size="14.00" fill="#000000">Legend</text>
<polygon fill="#ffffb3" stroke="transparent" points="1329,-10 1329,-30 1349,-30 1349,-10 1329,-10"/>
<text text-anchor="start" x="1352.629" y="-15.4" font-family="sans-serif" font-size="14.00" fill="#000000"> &#160;Declarations</text>
<polygon fill="#8dd3c7" stroke="transparent" points="1442,-10 1442,-30 1462,-30 1462,-10 1442,-10"/>
<text text-anchor="start" x="1465.7251" y="-15.4" font-family="sans-serif" font-size="14.00" fill="#000000"> &#160;Module</text>
<polygon fill="#80b1d3" stroke="transparent" points="1528,-10 1528,-30 1548,-30 1548,-10 1528,-10"/>
<text text-anchor="start" x="1551.7812" y="-15.4" font-family="sans-serif" font-size="14.00" fill="#000000"> &#160;Bootstrap</text>
<polygon fill="#fdb462" stroke="transparent" points="1625,-10 1625,-30 1645,-30 1645,-10 1625,-10"/>
<text text-anchor="start" x="1648.6732" y="-15.4" font-family="sans-serif" font-size="14.00" fill="#000000"> &#160;Providers</text>
<polygon fill="#fb8072" stroke="transparent" points="1721,-10 1721,-30 1741,-30 1741,-10 1721,-10"/>
<text text-anchor="start" x="1744.7258" y="-15.4" font-family="sans-serif" font-size="14.00" fill="#000000"> &#160;Exports</text>
<g id="clust1" class="cluster">
<title>cluster_OrdersModule</title>
<polygon fill="none" stroke="#000000" stroke-dasharray="1,5" points="8,-70 8,-195 3118,-195 3118,-70 8,-70"/>
</g>
<g id="clust2" class="cluster">
<title>cluster_OrdersModule_declarations</title>
<polygon fill="none" stroke="#000000" points="1056,-78 1056,-130 3110,-130 3110,-78 1056,-78"/>
</g>
<g id="clust14" class="cluster">
<title>cluster_OrdersModule_imports</title>
<polygon fill="none" stroke="#000000" points="268,-78 268,-130 1048,-130 1048,-78 268,-78"/>
</g>
<g id="clust17" class="cluster">
<title>cluster_OrdersModule_providers</title>
<polygon fill="none" stroke="#000000" points="16,-78 16,-130 260,-130 260,-78 16,-78"/>
</g>
<!-- OrderFilterComponent -->
<g id="node1" class="node">
<title>OrderFilterComponent</title>
<polygon fill="#ffffb3" stroke="#000000" points="3102.3047,-122 2957.6953,-122 2957.6953,-86 3102.3047,-86 3102.3047,-122"/>
<text text-anchor="middle" x="3030" y="-99.8" font-family="Times,serif" font-size="14.00" fill="#000000">OrderFilterComponent</text>
</g>
<!-- OrdersModule -->
<g id="node12" class="node">
<title>OrdersModule</title>
<polygon fill="#8dd3c7" stroke="#000000" points="1524.6375,-187 1521.6375,-191 1500.6375,-191 1497.6375,-187 1427.3625,-187 1427.3625,-151 1524.6375,-151 1524.6375,-187"/>
<text text-anchor="middle" x="1476" y="-164.8" font-family="Times,serif" font-size="14.00" fill="#000000">OrdersModule</text>
</g>
<!-- OrderFilterComponent&#45;&gt;OrdersModule -->
<g id="edge1" class="edge">
<title>OrderFilterComponent&#45;&gt;OrdersModule</title>
<path fill="none" stroke="#000000" d="M3030,-122.3228C3030,-145.6602 3030,-183 3030,-183 3030,-183 1534.6426,-183 1534.6426,-183"/>
<polygon fill="#000000" stroke="#000000" points="1534.6426,-179.5001 1524.6426,-183 1534.6426,-186.5001 1534.6426,-179.5001"/>
</g>
<!-- OrderListComponent -->
<g id="node2" class="node">
<title>OrderListComponent</title>
<polygon fill="#ffffb3" stroke="#000000" points="2939.7534,-122 2804.2466,-122 2804.2466,-86 2939.7534,-86 2939.7534,-122"/>
<text text-anchor="middle" x="2872" y="-99.8" font-family="Times,serif" font-size="14.00" fill="#000000">OrderListComponent</text>
</g>
<!-- OrderListComponent&#45;&gt;OrdersModule -->
<g id="edge2" class="edge">
<title>OrderListComponent&#45;&gt;OrdersModule</title>
<path fill="none" stroke="#000000" d="M2872,-122.1554C2872,-144.3519 2872,-179 2872,-179 2872,-179 1534.8658,-179 1534.8658,-179"/>
<polygon fill="#000000" stroke="#000000" points="1534.8659,-175.5001 1524.8658,-179 1534.8658,-182.5001 1534.8659,-175.5001"/>
</g>
<!-- OrderPageContainer -->
<g id="node3" class="node">
<title>OrderPageContainer</title>
<polygon fill="#ffffb3" stroke="#000000" points="2786.5618,-122 2655.4382,-122 2655.4382,-86 2786.5618,-86 2786.5618,-122"/>
<text text-anchor="middle" x="2721" y="-99.8" font-family="Times,serif" font-size="14.00" fill="#000000">OrderPageContainer</text>
</g>
<!-- OrderPageContainer&#45;&gt;OrdersModule -->
<g id="edge3" class="edge">
<title>OrderPageContainer&#45;&gt;OrdersModule</title>
<path fill="none" stroke="#000000" d="M2721,-122.2843C2721,-143.3211 2721,-175 2721,-175 2721,-175 1534.8055,-175 1534.8055,-175"/>
<polygon fill="#000000" stroke="#000000" points="1534.8055,-171.5001 1524.8055,-175 1534.8054,-178.5001 1534.8055,-171.5001"/>
</g>
<!-- OrderEditDeliveryComponent -->
<g id="node4" class="node">
<title>OrderEditDeliveryComponent</title>
<polygon fill="#ffffb3" stroke="#000000" points="2637.2864,-122 2450.7136,-122 2450.7136,-86 2637.2864,-86 2637.2864,-122"/>
<text text-anchor="middle" x="2544" y="-99.8" font-family="Times,serif" font-size="14.00" fill="#000000">OrderEditDeliveryComponent</text>
</g>
<!-- OrderEditDeliveryComponent&#45;&gt;OrdersModule -->
<g id="edge4" class="edge">
<title>OrderEditDeliveryComponent&#45;&gt;OrdersModule</title>
<path fill="none" stroke="#000000" d="M2544,-122.308C2544,-142.1455 2544,-171 2544,-171 2544,-171 1534.665,-171 1534.665,-171"/>
<polygon fill="#000000" stroke="#000000" points="1534.665,-167.5001 1524.665,-171 1534.6649,-174.5001 1534.665,-167.5001"/>
</g>
<!-- OrderEditDetailComponent -->
<g id="node5" class="node">
<title>OrderEditDetailComponent</title>
<polygon fill="#ffffb3" stroke="#000000" points="2432.5169,-122 2261.4831,-122 2261.4831,-86 2432.5169,-86 2432.5169,-122"/>
<text text-anchor="middle" x="2347" y="-99.8" font-family="Times,serif" font-size="14.00" fill="#000000">OrderEditDetailComponent</text>
</g>
<!-- OrderEditDetailComponent&#45;&gt;OrdersModule -->
<g id="edge5" class="edge">
<title>OrderEditDetailComponent&#45;&gt;OrdersModule</title>
<path fill="none" stroke="#000000" d="M2347,-122.2222C2347,-140.8285 2347,-167 2347,-167 2347,-167 1534.6951,-167 1534.6951,-167"/>
<polygon fill="#000000" stroke="#000000" points="1534.6951,-163.5001 1524.6951,-167 1534.6951,-170.5001 1534.6951,-163.5001"/>
</g>
<!-- OrderEditPlanningComponent -->
<g id="node6" class="node">
<title>OrderEditPlanningComponent</title>
<polygon fill="#ffffb3" stroke="#000000" points="2243.587,-122 2056.413,-122 2056.413,-86 2243.587,-86 2243.587,-122"/>
<text text-anchor="middle" x="2150" y="-99.8" font-family="Times,serif" font-size="14.00" fill="#000000">OrderEditPlanningComponent</text>
</g>
<!-- OrderEditPlanningComponent&#45;&gt;OrdersModule -->
<g id="edge6" class="edge">
<title>OrderEditPlanningComponent&#45;&gt;OrdersModule</title>
<path fill="none" stroke="#000000" d="M2150,-122.0225C2150,-139.3734 2150,-163 2150,-163 2150,-163 1534.7436,-163 1534.7436,-163"/>
<polygon fill="#000000" stroke="#000000" points="1534.7436,-159.5001 1524.7436,-163 1534.7435,-166.5001 1534.7436,-159.5001"/>
</g>
<!-- OrderEditMaterialComponent -->
<g id="node7" class="node">
<title>OrderEditMaterialComponent</title>
<polygon fill="#ffffb3" stroke="#000000" points="2038.2296,-122 1853.7704,-122 1853.7704,-86 2038.2296,-86 2038.2296,-122"/>
<text text-anchor="middle" x="1946" y="-99.8" font-family="Times,serif" font-size="14.00" fill="#000000">OrderEditMaterialComponent</text>
</g>
<!-- OrderEditMaterialComponent&#45;&gt;OrdersModule -->
<g id="edge7" class="edge">
<title>OrderEditMaterialComponent&#45;&gt;OrdersModule</title>
<path fill="none" stroke="#000000" d="M1946,-122.0091C1946,-138.0494 1946,-159 1946,-159 1946,-159 1534.9682,-159 1534.9682,-159"/>
<polygon fill="#000000" stroke="#000000" points="1534.9682,-155.5001 1524.9682,-159 1534.9681,-162.5001 1534.9682,-155.5001"/>
</g>
<!-- OrderMaterialLinesComponent -->
<g id="node8" class="node">
<title>OrderMaterialLinesComponent</title>
<polygon fill="#ffffb3" stroke="#000000" points="1835.4986,-122 1642.5014,-122 1642.5014,-86 1835.4986,-86 1835.4986,-122"/>
<text text-anchor="middle" x="1739" y="-99.8" font-family="Times,serif" font-size="14.00" fill="#000000">OrderMaterialLinesComponent</text>
</g>
<!-- OrderMaterialLinesComponent&#45;&gt;OrdersModule -->
<g id="edge8" class="edge">
<title>OrderMaterialLinesComponent&#45;&gt;OrdersModule</title>
<path fill="none" stroke="#000000" d="M1739,-122.1243C1739,-136.7832 1739,-155 1739,-155 1739,-155 1534.8519,-155 1534.8519,-155"/>
<polygon fill="#000000" stroke="#000000" points="1534.852,-151.5001 1524.8519,-155 1534.8519,-158.5001 1534.852,-151.5001"/>
</g>
<!-- OrderEditContainer -->
<g id="node9" class="node">
<title>OrderEditContainer</title>
<polygon fill="#ffffb3" stroke="#000000" points="1624.6839,-122 1497.3161,-122 1497.3161,-86 1624.6839,-86 1624.6839,-122"/>
<text text-anchor="middle" x="1561" y="-99.8" font-family="Times,serif" font-size="14.00" fill="#000000">OrderEditContainer</text>
</g>
<!-- OrderEditContainer&#45;&gt;OrdersModule -->
<g id="edge9" class="edge">
<title>OrderEditContainer&#45;&gt;OrdersModule</title>
<path fill="none" stroke="#000000" d="M1511.1133,-122.1061C1511.1133,-122.1061 1511.1133,-140.991 1511.1133,-140.991"/>
<polygon fill="#000000" stroke="#000000" points="1507.6133,-140.9909 1511.1133,-150.991 1514.6133,-140.991 1507.6133,-140.9909"/>
</g>
<!-- OrderDocumentsComponent -->
<g id="node10" class="node">
<title>OrderDocumentsComponent</title>
<polygon fill="#ffffb3" stroke="#000000" points="1479.7366,-122 1302.2634,-122 1302.2634,-86 1479.7366,-86 1479.7366,-122"/>
<text text-anchor="middle" x="1391" y="-99.8" font-family="Times,serif" font-size="14.00" fill="#000000">OrderDocumentsComponent</text>
</g>
<!-- OrderDocumentsComponent&#45;&gt;OrdersModule -->
<g id="edge10" class="edge">
<title>OrderDocumentsComponent&#45;&gt;OrdersModule</title>
<path fill="none" stroke="#000000" d="M1453.5249,-122.1061C1453.5249,-122.1061 1453.5249,-140.991 1453.5249,-140.991"/>
<polygon fill="#000000" stroke="#000000" points="1450.025,-140.9909 1453.5249,-150.991 1457.025,-140.991 1450.025,-140.9909"/>
</g>
<!-- OrdersRecurrenceModalComponent -->
<g id="node11" class="node">
<title>OrdersRecurrenceModalComponent</title>
<polygon fill="#ffffb3" stroke="#000000" points="1283.7002,-122 1064.2998,-122 1064.2998,-86 1283.7002,-86 1283.7002,-122"/>
<text text-anchor="middle" x="1174" y="-99.8" font-family="Times,serif" font-size="14.00" fill="#000000">OrdersRecurrenceModalComponent</text>
</g>
<!-- OrdersRecurrenceModalComponent&#45;&gt;OrdersModule -->
<g id="edge11" class="edge">
<title>OrdersRecurrenceModalComponent&#45;&gt;OrdersModule</title>
<path fill="none" stroke="#000000" d="M1174,-122.1243C1174,-136.7832 1174,-155 1174,-155 1174,-155 1417.1428,-155 1417.1428,-155"/>
<polygon fill="#000000" stroke="#000000" points="1417.1429,-158.5001 1427.1428,-155 1417.1428,-151.5001 1417.1429,-158.5001"/>
</g>
<!-- FlordersModule -->
<g id="node13" class="node">
<title>FlordersModule</title>
<polygon fill="#8dd3c7" stroke="#000000" points="1040.2036,-122 1037.2036,-126 1016.2036,-126 1013.2036,-122 933.7964,-122 933.7964,-86 1040.2036,-86 1040.2036,-122"/>
<text text-anchor="middle" x="987" y="-99.8" font-family="Times,serif" font-size="14.00" fill="#000000">FlordersModule</text>
</g>
<!-- FlordersModule&#45;&gt;OrdersModule -->
<g id="edge12" class="edge">
<title>FlordersModule&#45;&gt;OrdersModule</title>
<path fill="none" stroke="#000000" d="M987,-122.0091C987,-138.0494 987,-159 987,-159 987,-159 1417.3251,-159 1417.3251,-159"/>
<polygon fill="#000000" stroke="#000000" points="1417.3251,-162.5001 1427.3251,-159 1417.325,-155.5001 1417.3251,-162.5001"/>
</g>
<!-- OrdersRoutingModule -->
<g id="node14" class="node">
<title>OrdersRoutingModule</title>
<polygon fill="#8dd3c7" stroke="#000000" points="916.2548,-122 913.2548,-126 892.2548,-126 889.2548,-122 773.7452,-122 773.7452,-86 916.2548,-86 916.2548,-122"/>
<text text-anchor="middle" x="845" y="-99.8" font-family="Times,serif" font-size="14.00" fill="#000000">OrdersRoutingModule</text>
</g>
<!-- OrdersRoutingModule&#45;&gt;OrdersModule -->
<g id="edge13" class="edge">
<title>OrdersRoutingModule&#45;&gt;OrdersModule</title>
<path fill="none" stroke="#000000" d="M845,-122.0225C845,-139.3734 845,-163 845,-163 845,-163 1417.2732,-163 1417.2732,-163"/>
<polygon fill="#000000" stroke="#000000" points="1417.2732,-166.5001 1427.2732,-163 1417.2732,-159.5001 1417.2732,-166.5001"/>
</g>
<!-- AngularMaterialModule -->
<g id="node15" class="node">
<title>AngularMaterialModule</title>
<polygon fill="#8dd3c7" stroke="#000000" points="755.3431,-122 752.3431,-126 731.3431,-126 728.3431,-122 602.6569,-122 602.6569,-86 755.3431,-86 755.3431,-122"/>
<text text-anchor="middle" x="679" y="-99.8" font-family="Times,serif" font-size="14.00" fill="#000000">AngularMaterialModule</text>
</g>
<!-- AngularMaterialModule&#45;&gt;OrdersModule -->
<g id="edge14" class="edge">
<title>AngularMaterialModule&#45;&gt;OrdersModule</title>
<path fill="none" stroke="#000000" d="M679,-122.2222C679,-140.8285 679,-167 679,-167 679,-167 1417.3438,-167 1417.3438,-167"/>
<polygon fill="#000000" stroke="#000000" points="1417.3439,-170.5001 1427.3438,-167 1417.3438,-163.5001 1417.3439,-170.5001"/>
</g>
<!-- SharedModule -->
<g id="node16" class="node">
<title>SharedModule</title>
<polygon fill="#8dd3c7" stroke="#000000" points="584.4231,-122 581.4231,-126 560.4231,-126 557.4231,-122 485.5769,-122 485.5769,-86 584.4231,-86 584.4231,-122"/>
<text text-anchor="middle" x="535" y="-99.8" font-family="Times,serif" font-size="14.00" fill="#000000">SharedModule</text>
</g>
<!-- SharedModule&#45;&gt;OrdersModule -->
<g id="edge15" class="edge">
<title>SharedModule&#45;&gt;OrdersModule</title>
<path fill="none" stroke="#000000" d="M535,-122.308C535,-142.1455 535,-171 535,-171 535,-171 1417.0614,-171 1417.0614,-171"/>
<polygon fill="#000000" stroke="#000000" points="1417.0615,-174.5001 1427.0614,-171 1417.0614,-167.5001 1417.0615,-174.5001"/>
</g>
<!-- CoreModule -->
<g id="node17" class="node">
<title>CoreModule</title>
<polygon fill="#8dd3c7" stroke="#000000" points="467.2619,-122 464.2619,-126 443.2619,-126 440.2619,-122 380.7381,-122 380.7381,-86 467.2619,-86 467.2619,-122"/>
<text text-anchor="middle" x="424" y="-99.8" font-family="Times,serif" font-size="14.00" fill="#000000">CoreModule</text>
</g>
<!-- CoreModule&#45;&gt;OrdersModule -->
<g id="edge16" class="edge">
<title>CoreModule&#45;&gt;OrdersModule</title>
<path fill="none" stroke="#000000" d="M424,-122.2843C424,-143.3211 424,-175 424,-175 424,-175 1417.0208,-175 1417.0208,-175"/>
<polygon fill="#000000" stroke="#000000" points="1417.0209,-178.5001 1427.0208,-175 1417.0208,-171.5001 1417.0209,-178.5001"/>
</g>
<!-- AdalModule -->
<g id="node18" class="node">
<title>AdalModule</title>
<polygon fill="#8dd3c7" stroke="#000000" points="362.2619,-122 359.2619,-126 338.2619,-126 335.2619,-122 275.7381,-122 275.7381,-86 362.2619,-86 362.2619,-122"/>
<text text-anchor="middle" x="319" y="-99.8" font-family="Times,serif" font-size="14.00" fill="#000000">AdalModule</text>
</g>
<!-- AdalModule&#45;&gt;OrdersModule -->
<g id="edge17" class="edge">
<title>AdalModule&#45;&gt;OrdersModule</title>
<path fill="none" stroke="#000000" d="M319,-122.1554C319,-144.3519 319,-179 319,-179 319,-179 1417.0242,-179 1417.0242,-179"/>
<polygon fill="#000000" stroke="#000000" points="1417.0242,-182.5001 1427.0242,-179 1417.0241,-175.5001 1417.0242,-182.5001"/>
</g>
<!-- PoNumberAsyncValidator -->
<g id="node19" class="node">
<title>PoNumberAsyncValidator</title>
<ellipse fill="#fdb462" stroke="#000000" cx="138" cy="-104" rx="114.0267" ry="18"/>
<text text-anchor="middle" x="138" y="-99.8" font-family="Times,serif" font-size="14.00" fill="#000000">PoNumberAsyncValidator</text>
</g>
<!-- PoNumberAsyncValidator&#45;&gt;OrdersModule -->
<g id="edge18" class="edge">
<title>PoNumberAsyncValidator&#45;&gt;OrdersModule</title>
<path fill="none" stroke="#000000" d="M138,-122.3228C138,-145.6602 138,-183 138,-183 138,-183 1417.192,-183 1417.192,-183"/>
<polygon fill="#000000" stroke="#000000" points="1417.192,-186.5001 1427.192,-183 1417.1919,-179.5001 1417.192,-186.5001"/>
</g>
</g>
</svg>
