<?xml version="1.0" encoding="UTF-8" standalone="no"?>
<!DOCTYPE svg PUBLIC "-//W3C//DTD SVG 1.1//EN"
 "http://www.w3.org/Graphics/SVG/1.1/DTD/svg11.dtd">
<!-- Generated by graphviz version 2.40.1 (20161225.0304)
 -->
<!-- Title: dependencies Pages: 1 -->
<svg width="944pt" height="211pt"
 viewBox="0.00 0.00 944.00 211.00" xmlns="http://www.w3.org/2000/svg" xmlns:xlink="http://www.w3.org/1999/xlink">
<g id="graph0" class="graph" transform="scale(1 1) rotate(0) translate(4 207)">
<title>dependencies</title>
<polygon fill="#ffffff" stroke="transparent" points="-4,4 -4,-207 940,-207 940,4 -4,4"/>
<text text-anchor="start" x="447.0091" y="-42.4" font-family="sans-serif" font-weight="bold" font-size="14.00" fill="#000000">Legend</text>
<polygon fill="#ffffb3" stroke="transparent" points="234,-10 234,-30 254,-30 254,-10 234,-10"/>
<text text-anchor="start" x="257.629" y="-15.4" font-family="sans-serif" font-size="14.00" fill="#000000"> &#160;Declarations</text>
<polygon fill="#8dd3c7" stroke="transparent" points="347,-10 347,-30 367,-30 367,-10 347,-10"/>
<text text-anchor="start" x="370.7251" y="-15.4" font-family="sans-serif" font-size="14.00" fill="#000000"> &#160;Module</text>
<polygon fill="#80b1d3" stroke="transparent" points="433,-10 433,-30 453,-30 453,-10 433,-10"/>
<text text-anchor="start" x="456.7812" y="-15.4" font-family="sans-serif" font-size="14.00" fill="#000000"> &#160;Bootstrap</text>
<polygon fill="#fdb462" stroke="transparent" points="530,-10 530,-30 550,-30 550,-10 530,-10"/>
<text text-anchor="start" x="553.6732" y="-15.4" font-family="sans-serif" font-size="14.00" fill="#000000"> &#160;Providers</text>
<polygon fill="#fb8072" stroke="transparent" points="626,-10 626,-30 646,-30 646,-10 626,-10"/>
<text text-anchor="start" x="649.7258" y="-15.4" font-family="sans-serif" font-size="14.00" fill="#000000"> &#160;Exports</text>
<g id="clust1" class="cluster">
<title>cluster_InvoicesModule</title>
<polygon fill="none" stroke="#000000" stroke-dasharray="1,5" points="8,-70 8,-195 928,-195 928,-70 8,-70"/>
</g>
<g id="clust2" class="cluster">
<title>cluster_InvoicesModule_declarations</title>
<polygon fill="none" stroke="#000000" points="413,-78 413,-130 920,-130 920,-78 413,-78"/>
</g>
<g id="clust6" class="cluster">
<title>cluster_InvoicesModule_imports</title>
<polygon fill="none" stroke="#000000" points="16,-78 16,-130 405,-130 405,-78 16,-78"/>
</g>
<!-- InvoicesPageContainer -->
<g id="node1" class="node">
<title>InvoicesPageContainer</title>
<polygon fill="#ffffb3" stroke="#000000" points="911.8445,-122 766.1555,-122 766.1555,-86 911.8445,-86 911.8445,-122"/>
<text text-anchor="middle" x="839" y="-99.8" font-family="Times,serif" font-size="14.00" fill="#000000">InvoicesPageContainer</text>
</g>
<!-- InvoicesModule -->
<g id="node4" class="node">
<title>InvoicesModule</title>
<polygon fill="#8dd3c7" stroke="#000000" points="461.4748,-187 458.4748,-191 437.4748,-191 434.4748,-187 354.5252,-187 354.5252,-151 461.4748,-151 461.4748,-187"/>
<text text-anchor="middle" x="408" y="-164.8" font-family="Times,serif" font-size="14.00" fill="#000000">InvoicesModule</text>
</g>
<!-- InvoicesPageContainer&#45;&gt;InvoicesModule -->
<g id="edge1" class="edge">
<title>InvoicesPageContainer&#45;&gt;InvoicesModule</title>
<path fill="none" stroke="#000000" d="M839,-122.2843C839,-143.3211 839,-175 839,-175 839,-175 471.715,-175 471.715,-175"/>
<polygon fill="#000000" stroke="#000000" points="471.715,-171.5001 461.715,-175 471.715,-178.5001 471.715,-171.5001"/>
</g>
<!-- InvoicesFilterComponent -->
<g id="node2" class="node">
<title>InvoicesFilterComponent</title>
<polygon fill="#ffffb3" stroke="#000000" points="748.587,-122 589.413,-122 589.413,-86 748.587,-86 748.587,-122"/>
<text text-anchor="middle" x="669" y="-99.8" font-family="Times,serif" font-size="14.00" fill="#000000">InvoicesFilterComponent</text>
</g>
<!-- InvoicesFilterComponent&#45;&gt;InvoicesModule -->
<g id="edge2" class="edge">
<title>InvoicesFilterComponent&#45;&gt;InvoicesModule</title>
<path fill="none" stroke="#000000" d="M669,-122.0225C669,-139.3734 669,-163 669,-163 669,-163 471.7629,-163 471.7629,-163"/>
<polygon fill="#000000" stroke="#000000" points="471.7629,-159.5001 461.7629,-163 471.7629,-166.5001 471.7629,-159.5001"/>
</g>
<!-- InvoicesListComponent -->
<g id="node3" class="node">
<title>InvoicesListComponent</title>
<polygon fill="#ffffb3" stroke="#000000" points="571.0365,-122 420.9635,-122 420.9635,-86 571.0365,-86 571.0365,-122"/>
<text text-anchor="middle" x="496" y="-99.8" font-family="Times,serif" font-size="14.00" fill="#000000">InvoicesListComponent</text>
</g>
<!-- InvoicesListComponent&#45;&gt;InvoicesModule -->
<g id="edge3" class="edge">
<title>InvoicesListComponent&#45;&gt;InvoicesModule</title>
<path fill="none" stroke="#000000" d="M441.1098,-122.1061C441.1098,-122.1061 441.1098,-140.991 441.1098,-140.991"/>
<polygon fill="#000000" stroke="#000000" points="437.6098,-140.9909 441.1098,-150.991 444.6098,-140.991 437.6098,-140.9909"/>
</g>
<!-- InvoicesRoutingModule -->
<g id="node5" class="node">
<title>InvoicesRoutingModule</title>
<polygon fill="#8dd3c7" stroke="#000000" points="397.0926,-122 394.0926,-126 373.0926,-126 370.0926,-122 244.9074,-122 244.9074,-86 397.0926,-86 397.0926,-122"/>
<text text-anchor="middle" x="321" y="-99.8" font-family="Times,serif" font-size="14.00" fill="#000000">InvoicesRoutingModule</text>
</g>
<!-- InvoicesRoutingModule&#45;&gt;InvoicesModule -->
<g id="edge4" class="edge">
<title>InvoicesRoutingModule&#45;&gt;InvoicesModule</title>
<path fill="none" stroke="#000000" d="M375.7795,-122.1061C375.7795,-122.1061 375.7795,-140.991 375.7795,-140.991"/>
<polygon fill="#000000" stroke="#000000" points="372.2795,-140.9909 375.7795,-150.991 379.2795,-140.991 372.2795,-140.9909"/>
</g>
<!-- SharedModule -->
<g id="node6" class="node">
<title>SharedModule</title>
<polygon fill="#8dd3c7" stroke="#000000" points="227.4231,-122 224.4231,-126 203.4231,-126 200.4231,-122 128.5769,-122 128.5769,-86 227.4231,-86 227.4231,-122"/>
<text text-anchor="middle" x="178" y="-99.8" font-family="Times,serif" font-size="14.00" fill="#000000">SharedModule</text>
</g>
<!-- SharedModule&#45;&gt;InvoicesModule -->
<g id="edge5" class="edge">
<title>SharedModule&#45;&gt;InvoicesModule</title>
<path fill="none" stroke="#000000" d="M178,-122.0225C178,-139.3734 178,-163 178,-163 178,-163 344.3655,-163 344.3655,-163"/>
<polygon fill="#000000" stroke="#000000" points="344.3655,-166.5001 354.3655,-163 344.3655,-159.5001 344.3655,-166.5001"/>
</g>
<!-- CoreModule -->
<g id="node7" class="node">
<title>CoreModule</title>
<polygon fill="#8dd3c7" stroke="#000000" points="110.2619,-122 107.2619,-126 86.2619,-126 83.2619,-122 23.7381,-122 23.7381,-86 110.2619,-86 110.2619,-122"/>
<text text-anchor="middle" x="67" y="-99.8" font-family="Times,serif" font-size="14.00" fill="#000000">CoreModule</text>
</g>
<!-- CoreModule&#45;&gt;InvoicesModule -->
<g id="edge6" class="edge">
<title>CoreModule&#45;&gt;InvoicesModule</title>
<path fill="none" stroke="#000000" d="M67,-122.2843C67,-143.3211 67,-175 67,-175 67,-175 344.3436,-175 344.3436,-175"/>
<polygon fill="#000000" stroke="#000000" points="344.3437,-178.5001 354.3436,-175 344.3436,-171.5001 344.3437,-178.5001"/>
</g>
</g>
</svg>
