<?xml version="1.0" encoding="UTF-8" standalone="no"?>
<!DOCTYPE svg PUBLIC "-//W3C//DTD SVG 1.1//EN"
 "http://www.w3.org/Graphics/SVG/1.1/DTD/svg11.dtd">
<!-- Generated by graphviz version 2.40.1 (20161225.0304)
 -->
<!-- Title: dependencies Pages: 1 -->
<svg width="1004pt" height="211pt"
 viewBox="0.00 0.00 1004.00 211.00" xmlns="http://www.w3.org/2000/svg" xmlns:xlink="http://www.w3.org/1999/xlink">
<g id="graph0" class="graph" transform="scale(1 1) rotate(0) translate(4 207)">
<title>dependencies</title>
<polygon fill="#ffffff" stroke="transparent" points="-4,4 -4,-207 1000,-207 1000,4 -4,4"/>
<text text-anchor="start" x="477.0091" y="-42.4" font-family="sans-serif" font-weight="bold" font-size="14.00" fill="#000000">Legend</text>
<polygon fill="#ffffb3" stroke="transparent" points="264,-10 264,-30 284,-30 284,-10 264,-10"/>
<text text-anchor="start" x="287.629" y="-15.4" font-family="sans-serif" font-size="14.00" fill="#000000"> &#160;Declarations</text>
<polygon fill="#8dd3c7" stroke="transparent" points="377,-10 377,-30 397,-30 397,-10 377,-10"/>
<text text-anchor="start" x="400.7251" y="-15.4" font-family="sans-serif" font-size="14.00" fill="#000000"> &#160;Module</text>
<polygon fill="#80b1d3" stroke="transparent" points="463,-10 463,-30 483,-30 483,-10 463,-10"/>
<text text-anchor="start" x="486.7812" y="-15.4" font-family="sans-serif" font-size="14.00" fill="#000000"> &#160;Bootstrap</text>
<polygon fill="#fdb462" stroke="transparent" points="560,-10 560,-30 580,-30 580,-10 560,-10"/>
<text text-anchor="start" x="583.6732" y="-15.4" font-family="sans-serif" font-size="14.00" fill="#000000"> &#160;Providers</text>
<polygon fill="#fb8072" stroke="transparent" points="656,-10 656,-30 676,-30 676,-10 656,-10"/>
<text text-anchor="start" x="679.7258" y="-15.4" font-family="sans-serif" font-size="14.00" fill="#000000"> &#160;Exports</text>
<g id="clust1" class="cluster">
<title>cluster_FlordersModule</title>
<polygon fill="none" stroke="#000000" stroke-dasharray="1,5" points="8,-70 8,-195 988,-195 988,-70 8,-70"/>
</g>
<g id="clust3" class="cluster">
<title>cluster_FlordersModule_imports</title>
<polygon fill="none" stroke="#000000" points="16,-78 16,-130 980,-130 980,-78 16,-78"/>
</g>
<!-- OrdersRoutingModule -->
<g id="node1" class="node">
<title>OrdersRoutingModule</title>
<polygon fill="#8dd3c7" stroke="#000000" points="972.2548,-122 969.2548,-126 948.2548,-126 945.2548,-122 829.7452,-122 829.7452,-86 972.2548,-86 972.2548,-122"/>
<text text-anchor="middle" x="901" y="-99.8" font-family="Times,serif" font-size="14.00" fill="#000000">OrdersRoutingModule</text>
</g>
<!-- FlordersModule -->
<g id="node8" class="node">
<title>FlordersModule</title>
<polygon fill="#8dd3c7" stroke="#000000" points="480.2036,-187 477.2036,-191 456.2036,-191 453.2036,-187 373.7964,-187 373.7964,-151 480.2036,-151 480.2036,-187"/>
<text text-anchor="middle" x="427" y="-164.8" font-family="Times,serif" font-size="14.00" fill="#000000">FlordersModule</text>
</g>
<!-- OrdersRoutingModule&#45;&gt;FlordersModule -->
<g id="edge1" class="edge">
<title>OrdersRoutingModule&#45;&gt;FlordersModule</title>
<path fill="none" stroke="#000000" d="M901,-122.2921C901,-144.2057 901,-178 901,-178 901,-178 490.4524,-178 490.4524,-178"/>
<polygon fill="#000000" stroke="#000000" points="490.4525,-174.5001 480.4524,-178 490.4524,-181.5001 490.4525,-174.5001"/>
</g>
<!-- FlowsRoutingModule -->
<g id="node2" class="node">
<title>FlowsRoutingModule</title>
<polygon fill="#8dd3c7" stroke="#000000" points="811.392,-122 808.392,-126 787.392,-126 784.392,-122 672.608,-122 672.608,-86 811.392,-86 811.392,-122"/>
<text text-anchor="middle" x="742" y="-99.8" font-family="Times,serif" font-size="14.00" fill="#000000">FlowsRoutingModule</text>
</g>
<!-- FlowsRoutingModule&#45;&gt;FlordersModule -->
<g id="edge2" class="edge">
<title>FlowsRoutingModule&#45;&gt;FlordersModule</title>
<path fill="none" stroke="#000000" d="M742,-122.1061C742,-141.3391 742,-169 742,-169 742,-169 490.4355,-169 490.4355,-169"/>
<polygon fill="#000000" stroke="#000000" points="490.4355,-165.5001 480.4355,-169 490.4354,-172.5001 490.4355,-165.5001"/>
</g>
<!-- CCRRoutingModule -->
<g id="node3" class="node">
<title>CCRRoutingModule</title>
<polygon fill="#8dd3c7" stroke="#000000" points="654.1778,-122 651.1778,-126 630.1778,-126 627.1778,-122 521.8222,-122 521.8222,-86 654.1778,-86 654.1778,-122"/>
<text text-anchor="middle" x="588" y="-99.8" font-family="Times,serif" font-size="14.00" fill="#000000">CCRRoutingModule</text>
</g>
<!-- CCRRoutingModule&#45;&gt;FlordersModule -->
<g id="edge3" class="edge">
<title>CCRRoutingModule&#45;&gt;FlordersModule</title>
<path fill="none" stroke="#000000" d="M588,-122.027C588,-138.3976 588,-160 588,-160 588,-160 490.1636,-160 490.1636,-160"/>
<polygon fill="#000000" stroke="#000000" points="490.1637,-156.5001 480.1636,-160 490.1636,-163.5001 490.1637,-156.5001"/>
</g>
<!-- AngularMaterialModule -->
<g id="node4" class="node">
<title>AngularMaterialModule</title>
<polygon fill="#8dd3c7" stroke="#000000" points="503.3431,-122 500.3431,-126 479.3431,-126 476.3431,-122 350.6569,-122 350.6569,-86 503.3431,-86 503.3431,-122"/>
<text text-anchor="middle" x="427" y="-99.8" font-family="Times,serif" font-size="14.00" fill="#000000">AngularMaterialModule</text>
</g>
<!-- AngularMaterialModule&#45;&gt;FlordersModule -->
<g id="edge4" class="edge">
<title>AngularMaterialModule&#45;&gt;FlordersModule</title>
<path fill="none" stroke="#000000" d="M427,-122.1061C427,-122.1061 427,-140.991 427,-140.991"/>
<polygon fill="#000000" stroke="#000000" points="423.5001,-140.9909 427,-150.991 430.5001,-140.991 423.5001,-140.9909"/>
</g>
<!-- SharedModule -->
<g id="node5" class="node">
<title>SharedModule</title>
<polygon fill="#8dd3c7" stroke="#000000" points="332.4231,-122 329.4231,-126 308.4231,-126 305.4231,-122 233.5769,-122 233.5769,-86 332.4231,-86 332.4231,-122"/>
<text text-anchor="middle" x="283" y="-99.8" font-family="Times,serif" font-size="14.00" fill="#000000">SharedModule</text>
</g>
<!-- SharedModule&#45;&gt;FlordersModule -->
<g id="edge5" class="edge">
<title>SharedModule&#45;&gt;FlordersModule</title>
<path fill="none" stroke="#000000" d="M283,-122.027C283,-138.3976 283,-160 283,-160 283,-160 363.7888,-160 363.7888,-160"/>
<polygon fill="#000000" stroke="#000000" points="363.7889,-163.5001 373.7888,-160 363.7888,-156.5001 363.7889,-163.5001"/>
</g>
<!-- CoreModule -->
<g id="node6" class="node">
<title>CoreModule</title>
<polygon fill="#8dd3c7" stroke="#000000" points="215.2619,-122 212.2619,-126 191.2619,-126 188.2619,-122 128.7381,-122 128.7381,-86 215.2619,-86 215.2619,-122"/>
<text text-anchor="middle" x="172" y="-99.8" font-family="Times,serif" font-size="14.00" fill="#000000">CoreModule</text>
</g>
<!-- CoreModule&#45;&gt;FlordersModule -->
<g id="edge6" class="edge">
<title>CoreModule&#45;&gt;FlordersModule</title>
<path fill="none" stroke="#000000" d="M172,-122.1061C172,-141.3391 172,-169 172,-169 172,-169 363.854,-169 363.854,-169"/>
<polygon fill="#000000" stroke="#000000" points="363.8541,-172.5001 373.854,-169 363.854,-165.5001 363.8541,-172.5001"/>
</g>
<!-- AdalModule -->
<g id="node7" class="node">
<title>AdalModule</title>
<polygon fill="#8dd3c7" stroke="#000000" points="110.2619,-122 107.2619,-126 86.2619,-126 83.2619,-122 23.7381,-122 23.7381,-86 110.2619,-86 110.2619,-122"/>
<text text-anchor="middle" x="67" y="-99.8" font-family="Times,serif" font-size="14.00" fill="#000000">AdalModule</text>
</g>
<!-- AdalModule&#45;&gt;FlordersModule -->
<g id="edge7" class="edge">
<title>AdalModule&#45;&gt;FlordersModule</title>
<path fill="none" stroke="#000000" d="M67,-122.2921C67,-144.2057 67,-178 67,-178 67,-178 363.8808,-178 363.8808,-178"/>
<polygon fill="#000000" stroke="#000000" points="363.8808,-181.5001 373.8808,-178 363.8807,-174.5001 363.8808,-181.5001"/>
</g>
</g>
</svg>
