<?xml version="1.0" encoding="UTF-8" standalone="no"?>
<!DOCTYPE svg PUBLIC "-//W3C//DTD SVG 1.1//EN"
 "http://www.w3.org/Graphics/SVG/1.1/DTD/svg11.dtd">
<!-- Generated by graphviz version 2.40.1 (20161225.0304)
 -->
<!-- Title: dependencies Pages: 1 -->
<svg width="3683pt" height="211pt"
 viewBox="0.00 0.00 3683.00 211.00" xmlns="http://www.w3.org/2000/svg" xmlns:xlink="http://www.w3.org/1999/xlink">
<g id="graph0" class="graph" transform="scale(1 1) rotate(0) translate(4 207)">
<title>dependencies</title>
<polygon fill="#ffffff" stroke="transparent" points="-4,4 -4,-207 3679,-207 3679,4 -4,4"/>
<text text-anchor="start" x="1816.5091" y="-42.4" font-family="sans-serif" font-weight="bold" font-size="14.00" fill="#000000">Legend</text>
<polygon fill="#ffffb3" stroke="transparent" points="1603.5,-10 1603.5,-30 1623.5,-30 1623.5,-10 1603.5,-10"/>
<text text-anchor="start" x="1627.129" y="-15.4" font-family="sans-serif" font-size="14.00" fill="#000000"> &#160;Declarations</text>
<polygon fill="#8dd3c7" stroke="transparent" points="1716.5,-10 1716.5,-30 1736.5,-30 1736.5,-10 1716.5,-10"/>
<text text-anchor="start" x="1740.2251" y="-15.4" font-family="sans-serif" font-size="14.00" fill="#000000"> &#160;Module</text>
<polygon fill="#80b1d3" stroke="transparent" points="1802.5,-10 1802.5,-30 1822.5,-30 1822.5,-10 1802.5,-10"/>
<text text-anchor="start" x="1826.2812" y="-15.4" font-family="sans-serif" font-size="14.00" fill="#000000"> &#160;Bootstrap</text>
<polygon fill="#fdb462" stroke="transparent" points="1899.5,-10 1899.5,-30 1919.5,-30 1919.5,-10 1899.5,-10"/>
<text text-anchor="start" x="1923.1732" y="-15.4" font-family="sans-serif" font-size="14.00" fill="#000000"> &#160;Providers</text>
<polygon fill="#fb8072" stroke="transparent" points="1995.5,-10 1995.5,-30 2015.5,-30 2015.5,-10 1995.5,-10"/>
<text text-anchor="start" x="2019.2258" y="-15.4" font-family="sans-serif" font-size="14.00" fill="#000000"> &#160;Exports</text>
<g id="clust1" class="cluster">
<title>cluster_AdminModule</title>
<polygon fill="none" stroke="#000000" stroke-dasharray="1,5" points="8,-70 8,-195 3667,-195 3667,-70 8,-70"/>
</g>
<g id="clust2" class="cluster">
<title>cluster_AdminModule_declarations</title>
<polygon fill="none" stroke="#000000" points="681,-78 681,-130 3659,-130 3659,-78 681,-78"/>
</g>
<g id="clust21" class="cluster">
<title>cluster_AdminModule_imports</title>
<polygon fill="none" stroke="#000000" points="16,-78 16,-130 673,-130 673,-78 16,-78"/>
</g>
<!-- ClientUserPageContainer -->
<g id="node1" class="node">
<title>ClientUserPageContainer</title>
<polygon fill="#ffffb3" stroke="#000000" points="3650.5688,-122 3491.4312,-122 3491.4312,-86 3650.5688,-86 3650.5688,-122"/>
<text text-anchor="middle" x="3571" y="-99.8" font-family="Times,serif" font-size="14.00" fill="#000000">ClientUserPageContainer</text>
</g>
<!-- AdminModule -->
<g id="node19" class="node">
<title>AdminModule</title>
<polygon fill="#8dd3c7" stroke="#000000" points="1695.4386,-187 1692.4386,-191 1671.4386,-191 1668.4386,-187 1596.5614,-187 1596.5614,-151 1695.4386,-151 1695.4386,-187"/>
<text text-anchor="middle" x="1646" y="-164.8" font-family="Times,serif" font-size="14.00" fill="#000000">AdminModule</text>
</g>
<!-- ClientUserPageContainer&#45;&gt;AdminModule -->
<g id="edge1" class="edge">
<title>ClientUserPageContainer&#45;&gt;AdminModule</title>
<path fill="none" stroke="#000000" d="M3571,-122.1532C3571,-145.7566 3571,-184 3571,-184 3571,-184 1705.519,-184 1705.519,-184"/>
<polygon fill="#000000" stroke="#000000" points="1705.519,-180.5001 1695.519,-184 1705.519,-187.5001 1705.519,-180.5001"/>
</g>
<!-- ClientUserEditContainer -->
<g id="node2" class="node">
<title>ClientUserEditContainer</title>
<polygon fill="#ffffb3" stroke="#000000" points="3473.6909,-122 3318.3091,-122 3318.3091,-86 3473.6909,-86 3473.6909,-122"/>
<text text-anchor="middle" x="3396" y="-99.8" font-family="Times,serif" font-size="14.00" fill="#000000">ClientUserEditContainer</text>
</g>
<!-- ClientUserEditContainer&#45;&gt;AdminModule -->
<g id="edge2" class="edge">
<title>ClientUserEditContainer&#45;&gt;AdminModule</title>
<path fill="none" stroke="#000000" d="M3396,-122.0908C3396,-145.1328 3396,-182 3396,-182 3396,-182 1705.5552,-182 1705.5552,-182"/>
<polygon fill="#000000" stroke="#000000" points="1705.5552,-178.5001 1695.5552,-182 1705.5551,-185.5001 1705.5552,-178.5001"/>
</g>
<!-- ClientUserInviteContainer -->
<g id="node3" class="node">
<title>ClientUserInviteContainer</title>
<polygon fill="#ffffb3" stroke="#000000" points="3300.0141,-122 3135.9859,-122 3135.9859,-86 3300.0141,-86 3300.0141,-122"/>
<text text-anchor="middle" x="3218" y="-99.8" font-family="Times,serif" font-size="14.00" fill="#000000">ClientUserInviteContainer</text>
</g>
<!-- ClientUserInviteContainer&#45;&gt;AdminModule -->
<g id="edge3" class="edge">
<title>ClientUserInviteContainer&#45;&gt;AdminModule</title>
<path fill="none" stroke="#000000" d="M3218,-122.2921C3218,-144.2057 3218,-178 3218,-178 3218,-178 1705.6432,-178 1705.6432,-178"/>
<polygon fill="#000000" stroke="#000000" points="1705.6432,-174.5001 1695.6432,-178 1705.6431,-181.5001 1705.6432,-174.5001"/>
</g>
<!-- EpsUserInviteContainer -->
<g id="node4" class="node">
<title>EpsUserInviteContainer</title>
<polygon fill="#ffffb3" stroke="#000000" points="3117.7879,-122 2966.2121,-122 2966.2121,-86 3117.7879,-86 3117.7879,-122"/>
<text text-anchor="middle" x="3042" y="-99.8" font-family="Times,serif" font-size="14.00" fill="#000000">EpsUserInviteContainer</text>
</g>
<!-- EpsUserInviteContainer&#45;&gt;AdminModule -->
<g id="edge4" class="edge">
<title>EpsUserInviteContainer&#45;&gt;AdminModule</title>
<path fill="none" stroke="#000000" d="M3042,-122.2843C3042,-143.3211 3042,-175 3042,-175 3042,-175 1705.2743,-175 1705.2743,-175"/>
<polygon fill="#000000" stroke="#000000" points="1705.2744,-171.5001 1695.2743,-175 1705.2743,-178.5001 1705.2744,-171.5001"/>
</g>
<!-- ClientUserFilterComponent -->
<g id="node5" class="node">
<title>ClientUserFilterComponent</title>
<polygon fill="#ffffb3" stroke="#000000" points="2948.3117,-122 2775.6883,-122 2775.6883,-86 2948.3117,-86 2948.3117,-122"/>
<text text-anchor="middle" x="2862" y="-99.8" font-family="Times,serif" font-size="14.00" fill="#000000">ClientUserFilterComponent</text>
</g>
<!-- ClientUserFilterComponent&#45;&gt;AdminModule -->
<g id="edge5" class="edge">
<title>ClientUserFilterComponent&#45;&gt;AdminModule</title>
<path fill="none" stroke="#000000" d="M2862,-122.2228C2862,-142.3652 2862,-172 2862,-172 2862,-172 1705.5545,-172 1705.5545,-172"/>
<polygon fill="#000000" stroke="#000000" points="1705.5546,-168.5001 1695.5545,-172 1705.5545,-175.5001 1705.5546,-168.5001"/>
</g>
<!-- ClientUserListComponent -->
<g id="node6" class="node">
<title>ClientUserListComponent</title>
<polygon fill="#ffffb3" stroke="#000000" points="2757.7604,-122 2594.2396,-122 2594.2396,-86 2757.7604,-86 2757.7604,-122"/>
<text text-anchor="middle" x="2676" y="-99.8" font-family="Times,serif" font-size="14.00" fill="#000000">ClientUserListComponent</text>
</g>
<!-- ClientUserListComponent&#45;&gt;AdminModule -->
<g id="edge6" class="edge">
<title>ClientUserListComponent&#45;&gt;AdminModule</title>
<path fill="none" stroke="#000000" d="M2676,-122.1061C2676,-141.3391 2676,-169 2676,-169 2676,-169 1705.332,-169 1705.332,-169"/>
<polygon fill="#000000" stroke="#000000" points="1705.3321,-165.5001 1695.332,-169 1705.332,-172.5001 1705.3321,-165.5001"/>
</g>
<!-- ClientUserEditComponent -->
<g id="node7" class="node">
<title>ClientUserEditComponent</title>
<polygon fill="#ffffb3" stroke="#000000" points="2575.8159,-122 2410.1841,-122 2410.1841,-86 2575.8159,-86 2575.8159,-122"/>
<text text-anchor="middle" x="2493" y="-99.8" font-family="Times,serif" font-size="14.00" fill="#000000">ClientUserEditComponent</text>
</g>
<!-- ClientUserEditComponent&#45;&gt;AdminModule -->
<g id="edge7" class="edge">
<title>ClientUserEditComponent&#45;&gt;AdminModule</title>
<path fill="none" stroke="#000000" d="M2493,-122.2222C2493,-140.8285 2493,-167 2493,-167 2493,-167 1705.51,-167 1705.51,-167"/>
<polygon fill="#000000" stroke="#000000" points="1705.5101,-163.5001 1695.51,-167 1705.51,-170.5001 1705.5101,-163.5001"/>
</g>
<!-- EpsUserPageContainer -->
<g id="node8" class="node">
<title>EpsUserPageContainer</title>
<polygon fill="#ffffb3" stroke="#000000" points="2391.8431,-122 2246.1569,-122 2246.1569,-86 2391.8431,-86 2391.8431,-122"/>
<text text-anchor="middle" x="2319" y="-99.8" font-family="Times,serif" font-size="14.00" fill="#000000">EpsUserPageContainer</text>
</g>
<!-- EpsUserPageContainer&#45;&gt;AdminModule -->
<g id="edge8" class="edge">
<title>EpsUserPageContainer&#45;&gt;AdminModule</title>
<path fill="none" stroke="#000000" d="M2319,-122.0225C2319,-139.3734 2319,-163 2319,-163 2319,-163 1705.4873,-163 1705.4873,-163"/>
<polygon fill="#000000" stroke="#000000" points="1705.4873,-159.5001 1695.4873,-163 1705.4873,-166.5001 1705.4873,-159.5001"/>
</g>
<!-- EpsUserEditContainer -->
<g id="node9" class="node">
<title>EpsUserEditContainer</title>
<polygon fill="#ffffb3" stroke="#000000" points="2227.965,-122 2086.035,-122 2086.035,-86 2227.965,-86 2227.965,-122"/>
<text text-anchor="middle" x="2157" y="-99.8" font-family="Times,serif" font-size="14.00" fill="#000000">EpsUserEditContainer</text>
</g>
<!-- EpsUserEditContainer&#45;&gt;AdminModule -->
<g id="edge9" class="edge">
<title>EpsUserEditContainer&#45;&gt;AdminModule</title>
<path fill="none" stroke="#000000" d="M2157,-122.027C2157,-138.3976 2157,-160 2157,-160 2157,-160 1705.4611,-160 1705.4611,-160"/>
<polygon fill="#000000" stroke="#000000" points="1705.4612,-156.5001 1695.4611,-160 1705.4611,-163.5001 1705.4612,-156.5001"/>
</g>
<!-- EpsUserFilterComponent -->
<g id="node10" class="node">
<title>EpsUserFilterComponent</title>
<polygon fill="#ffffb3" stroke="#000000" points="2067.5856,-122 1908.4144,-122 1908.4144,-86 2067.5856,-86 2067.5856,-122"/>
<text text-anchor="middle" x="1988" y="-99.8" font-family="Times,serif" font-size="14.00" fill="#000000">EpsUserFilterComponent</text>
</g>
<!-- EpsUserFilterComponent&#45;&gt;AdminModule -->
<g id="edge10" class="edge">
<title>EpsUserFilterComponent&#45;&gt;AdminModule</title>
<path fill="none" stroke="#000000" d="M1988,-122.2396C1988,-137.5706 1988,-157 1988,-157 1988,-157 1705.3645,-157 1705.3645,-157"/>
<polygon fill="#000000" stroke="#000000" points="1705.3645,-153.5001 1695.3645,-157 1705.3645,-160.5001 1705.3645,-153.5001"/>
</g>
<!-- EpsUserListComponent -->
<g id="node11" class="node">
<title>EpsUserListComponent</title>
<polygon fill="#ffffb3" stroke="#000000" points="1890.0351,-122 1739.9649,-122 1739.9649,-86 1890.0351,-86 1890.0351,-122"/>
<text text-anchor="middle" x="1815" y="-99.8" font-family="Times,serif" font-size="14.00" fill="#000000">EpsUserListComponent</text>
</g>
<!-- EpsUserListComponent&#45;&gt;AdminModule -->
<g id="edge11" class="edge">
<title>EpsUserListComponent&#45;&gt;AdminModule</title>
<path fill="none" stroke="#000000" d="M1815,-122.0511C1815,-136.373 1815,-154 1815,-154 1815,-154 1705.3361,-154 1705.3361,-154"/>
<polygon fill="#000000" stroke="#000000" points="1705.3361,-150.5001 1695.3361,-154 1705.3361,-157.5001 1705.3361,-150.5001"/>
</g>
<!-- EpsUserEditComponent -->
<g id="node12" class="node">
<title>EpsUserEditComponent</title>
<polygon fill="#ffffb3" stroke="#000000" points="1722.0898,-122 1569.9102,-122 1569.9102,-86 1722.0898,-86 1722.0898,-122"/>
<text text-anchor="middle" x="1646" y="-99.8" font-family="Times,serif" font-size="14.00" fill="#000000">EpsUserEditComponent</text>
</g>
<!-- EpsUserEditComponent&#45;&gt;AdminModule -->
<g id="edge12" class="edge">
<title>EpsUserEditComponent&#45;&gt;AdminModule</title>
<path fill="none" stroke="#000000" d="M1646,-122.1061C1646,-122.1061 1646,-140.991 1646,-140.991"/>
<polygon fill="#000000" stroke="#000000" points="1642.5001,-140.9909 1646,-150.991 1649.5001,-140.991 1642.5001,-140.9909"/>
</g>
<!-- SalesOrganisationListComponent -->
<g id="node13" class="node">
<title>SalesOrganisationListComponent</title>
<polygon fill="#ffffb3" stroke="#000000" points="1551.4706,-122 1346.5294,-122 1346.5294,-86 1551.4706,-86 1551.4706,-122"/>
<text text-anchor="middle" x="1449" y="-99.8" font-family="Times,serif" font-size="14.00" fill="#000000">SalesOrganisationListComponent</text>
</g>
<!-- SalesOrganisationListComponent&#45;&gt;AdminModule -->
<g id="edge13" class="edge">
<title>SalesOrganisationListComponent&#45;&gt;AdminModule</title>
<path fill="none" stroke="#000000" d="M1449,-122.0511C1449,-136.373 1449,-154 1449,-154 1449,-154 1586.5429,-154 1586.5429,-154"/>
<polygon fill="#000000" stroke="#000000" points="1586.5429,-157.5001 1596.5429,-154 1586.5428,-150.5001 1586.5429,-157.5001"/>
</g>
<!-- CustomerRoleListComponent -->
<g id="node14" class="node">
<title>CustomerRoleListComponent</title>
<polygon fill="#ffffb3" stroke="#000000" points="1328.9902,-122 1145.0098,-122 1145.0098,-86 1328.9902,-86 1328.9902,-122"/>
<text text-anchor="middle" x="1237" y="-99.8" font-family="Times,serif" font-size="14.00" fill="#000000">CustomerRoleListComponent</text>
</g>
<!-- CustomerRoleListComponent&#45;&gt;AdminModule -->
<g id="edge14" class="edge">
<title>CustomerRoleListComponent&#45;&gt;AdminModule</title>
<path fill="none" stroke="#000000" d="M1237,-122.2396C1237,-137.5706 1237,-157 1237,-157 1237,-157 1586.665,-157 1586.665,-157"/>
<polygon fill="#000000" stroke="#000000" points="1586.6651,-160.5001 1596.665,-157 1586.665,-153.5001 1586.6651,-160.5001"/>
</g>
<!-- I18nContainer -->
<g id="node15" class="node">
<title>I18nContainer</title>
<polygon fill="#ffffb3" stroke="#000000" points="1127.3683,-122 1030.6317,-122 1030.6317,-86 1127.3683,-86 1127.3683,-122"/>
<text text-anchor="middle" x="1079" y="-99.8" font-family="Times,serif" font-size="14.00" fill="#000000">I18nContainer</text>
</g>
<!-- I18nContainer&#45;&gt;AdminModule -->
<g id="edge15" class="edge">
<title>I18nContainer&#45;&gt;AdminModule</title>
<path fill="none" stroke="#000000" d="M1079,-122.027C1079,-138.3976 1079,-160 1079,-160 1079,-160 1586.6743,-160 1586.6743,-160"/>
<polygon fill="#000000" stroke="#000000" points="1586.6744,-163.5001 1596.6743,-160 1586.6743,-156.5001 1586.6744,-163.5001"/>
</g>
<!-- I18nJsonEditor -->
<g id="node16" class="node">
<title>I18nJsonEditor</title>
<polygon fill="#ffffb3" stroke="#000000" points="1012.5452,-122 911.4548,-122 911.4548,-86 1012.5452,-86 1012.5452,-122"/>
<text text-anchor="middle" x="962" y="-99.8" font-family="Times,serif" font-size="14.00" fill="#000000">I18nJsonEditor</text>
</g>
<!-- I18nJsonEditor&#45;&gt;AdminModule -->
<g id="edge16" class="edge">
<title>I18nJsonEditor&#45;&gt;AdminModule</title>
<path fill="none" stroke="#000000" d="M962,-122.0225C962,-139.3734 962,-163 962,-163 962,-163 1586.5333,-163 1586.5333,-163"/>
<polygon fill="#000000" stroke="#000000" points="1586.5333,-166.5001 1596.5333,-163 1586.5332,-159.5001 1586.5333,-166.5001"/>
</g>
<!-- I18nCsvEditor -->
<g id="node17" class="node">
<title>I18nCsvEditor</title>
<polygon fill="#ffffb3" stroke="#000000" points="893.4372,-122 794.5628,-122 794.5628,-86 893.4372,-86 893.4372,-122"/>
<text text-anchor="middle" x="844" y="-99.8" font-family="Times,serif" font-size="14.00" fill="#000000">I18nCsvEditor</text>
</g>
<!-- I18nCsvEditor&#45;&gt;AdminModule -->
<g id="edge17" class="edge">
<title>I18nCsvEditor&#45;&gt;AdminModule</title>
<path fill="none" stroke="#000000" d="M844,-122.2222C844,-140.8285 844,-167 844,-167 844,-167 1586.738,-167 1586.738,-167"/>
<polygon fill="#000000" stroke="#000000" points="1586.738,-170.5001 1596.738,-167 1586.7379,-163.5001 1586.738,-170.5001"/>
</g>
<!-- I18nSelector -->
<g id="node18" class="node">
<title>I18nSelector</title>
<polygon fill="#ffffb3" stroke="#000000" points="776.5301,-122 689.4699,-122 689.4699,-86 776.5301,-86 776.5301,-122"/>
<text text-anchor="middle" x="733" y="-99.8" font-family="Times,serif" font-size="14.00" fill="#000000">I18nSelector</text>
</g>
<!-- I18nSelector&#45;&gt;AdminModule -->
<g id="edge18" class="edge">
<title>I18nSelector&#45;&gt;AdminModule</title>
<path fill="none" stroke="#000000" d="M733,-122.1061C733,-141.3391 733,-169 733,-169 733,-169 1586.5894,-169 1586.5894,-169"/>
<polygon fill="#000000" stroke="#000000" points="1586.5895,-172.5001 1596.5894,-169 1586.5894,-165.5001 1586.5895,-172.5001"/>
</g>
<!-- AngularMaterialModule -->
<g id="node20" class="node">
<title>AngularMaterialModule</title>
<polygon fill="#8dd3c7" stroke="#000000" points="665.3431,-122 662.3431,-126 641.3431,-126 638.3431,-122 512.6569,-122 512.6569,-86 665.3431,-86 665.3431,-122"/>
<text text-anchor="middle" x="589" y="-99.8" font-family="Times,serif" font-size="14.00" fill="#000000">AngularMaterialModule</text>
</g>
<!-- AngularMaterialModule&#45;&gt;AdminModule -->
<g id="edge19" class="edge">
<title>AngularMaterialModule&#45;&gt;AdminModule</title>
<path fill="none" stroke="#000000" d="M589,-122.2228C589,-142.3652 589,-172 589,-172 589,-172 1586.4364,-172 1586.4364,-172"/>
<polygon fill="#000000" stroke="#000000" points="1586.4364,-175.5001 1596.4364,-172 1586.4364,-168.5001 1586.4364,-175.5001"/>
</g>
<!-- SharedModule -->
<g id="node21" class="node">
<title>SharedModule</title>
<polygon fill="#8dd3c7" stroke="#000000" points="494.4231,-122 491.4231,-126 470.4231,-126 467.4231,-122 395.5769,-122 395.5769,-86 494.4231,-86 494.4231,-122"/>
<text text-anchor="middle" x="445" y="-99.8" font-family="Times,serif" font-size="14.00" fill="#000000">SharedModule</text>
</g>
<!-- SharedModule&#45;&gt;AdminModule -->
<g id="edge20" class="edge">
<title>SharedModule&#45;&gt;AdminModule</title>
<path fill="none" stroke="#000000" d="M445,-122.2843C445,-143.3211 445,-175 445,-175 445,-175 1586.6803,-175 1586.6803,-175"/>
<polygon fill="#000000" stroke="#000000" points="1586.6804,-178.5001 1596.6803,-175 1586.6803,-171.5001 1586.6804,-178.5001"/>
</g>
<!-- CoreModule -->
<g id="node22" class="node">
<title>CoreModule</title>
<polygon fill="#8dd3c7" stroke="#000000" points="377.2619,-122 374.2619,-126 353.2619,-126 350.2619,-122 290.7381,-122 290.7381,-86 377.2619,-86 377.2619,-122"/>
<text text-anchor="middle" x="334" y="-99.8" font-family="Times,serif" font-size="14.00" fill="#000000">CoreModule</text>
</g>
<!-- CoreModule&#45;&gt;AdminModule -->
<g id="edge21" class="edge">
<title>CoreModule&#45;&gt;AdminModule</title>
<path fill="none" stroke="#000000" d="M334,-122.2921C334,-144.2057 334,-178 334,-178 334,-178 1586.5671,-178 1586.5671,-178"/>
<polygon fill="#000000" stroke="#000000" points="1586.5671,-181.5001 1596.5671,-178 1586.567,-174.5001 1586.5671,-181.5001"/>
</g>
<!-- AdalModule -->
<g id="node23" class="node">
<title>AdalModule</title>
<polygon fill="#8dd3c7" stroke="#000000" points="272.2619,-122 269.2619,-126 248.2619,-126 245.2619,-122 185.7381,-122 185.7381,-86 272.2619,-86 272.2619,-122"/>
<text text-anchor="middle" x="229" y="-99.8" font-family="Times,serif" font-size="14.00" fill="#000000">AdalModule</text>
</g>
<!-- AdalModule&#45;&gt;AdminModule -->
<g id="edge22" class="edge">
<title>AdalModule&#45;&gt;AdminModule</title>
<path fill="none" stroke="#000000" d="M229,-122.0908C229,-145.1328 229,-182 229,-182 229,-182 1586.3991,-182 1586.3991,-182"/>
<polygon fill="#000000" stroke="#000000" points="1586.3991,-185.5001 1596.3991,-182 1586.399,-178.5001 1586.3991,-185.5001"/>
</g>
<!-- AdminRoutingModule -->
<g id="node24" class="node">
<title>AdminRoutingModule</title>
<polygon fill="#8dd3c7" stroke="#000000" points="167.5561,-122 164.5561,-126 143.5561,-126 140.5561,-122 24.4439,-122 24.4439,-86 167.5561,-86 167.5561,-122"/>
<text text-anchor="middle" x="96" y="-99.8" font-family="Times,serif" font-size="14.00" fill="#000000">AdminRoutingModule</text>
</g>
<!-- AdminRoutingModule&#45;&gt;AdminModule -->
<g id="edge23" class="edge">
<title>AdminRoutingModule&#45;&gt;AdminModule</title>
<path fill="none" stroke="#000000" d="M96,-122.1532C96,-145.7566 96,-184 96,-184 96,-184 1586.6188,-184 1586.6188,-184"/>
<polygon fill="#000000" stroke="#000000" points="1586.6188,-187.5001 1596.6188,-184 1586.6187,-180.5001 1586.6188,-187.5001"/>
</g>
</g>
</svg>
