<?xml version="1.0" encoding="UTF-8" standalone="no"?>
<!DOCTYPE svg PUBLIC "-//W3C//DTD SVG 1.1//EN"
 "http://www.w3.org/Graphics/SVG/1.1/DTD/svg11.dtd">
<!-- Generated by graphviz version 2.40.1 (20161225.0304)
 -->
<!-- Title: dependencies Pages: 1 -->
<svg width="504pt" height="211pt"
 viewBox="0.00 0.00 504.00 211.00" xmlns="http://www.w3.org/2000/svg" xmlns:xlink="http://www.w3.org/1999/xlink">
<g id="graph0" class="graph" transform="scale(1 1) rotate(0) translate(4 207)">
<title>dependencies</title>
<polygon fill="#ffffff" stroke="transparent" points="-4,4 -4,-207 500,-207 500,4 -4,4"/>
<text text-anchor="start" x="227.0091" y="-42.4" font-family="sans-serif" font-weight="bold" font-size="14.00" fill="#000000">Legend</text>
<polygon fill="#ffffb3" stroke="transparent" points="14,-10 14,-30 34,-30 34,-10 14,-10"/>
<text text-anchor="start" x="37.629" y="-15.4" font-family="sans-serif" font-size="14.00" fill="#000000"> &#160;Declarations</text>
<polygon fill="#8dd3c7" stroke="transparent" points="127,-10 127,-30 147,-30 147,-10 127,-10"/>
<text text-anchor="start" x="150.7251" y="-15.4" font-family="sans-serif" font-size="14.00" fill="#000000"> &#160;Module</text>
<polygon fill="#80b1d3" stroke="transparent" points="213,-10 213,-30 233,-30 233,-10 213,-10"/>
<text text-anchor="start" x="236.7812" y="-15.4" font-family="sans-serif" font-size="14.00" fill="#000000"> &#160;Bootstrap</text>
<polygon fill="#fdb462" stroke="transparent" points="310,-10 310,-30 330,-30 330,-10 310,-10"/>
<text text-anchor="start" x="333.6732" y="-15.4" font-family="sans-serif" font-size="14.00" fill="#000000"> &#160;Providers</text>
<polygon fill="#fb8072" stroke="transparent" points="406,-10 406,-30 426,-30 426,-10 406,-10"/>
<text text-anchor="start" x="429.7258" y="-15.4" font-family="sans-serif" font-size="14.00" fill="#000000"> &#160;Exports</text>
<g id="clust1" class="cluster">
<title>cluster_ConfigServiceModule</title>
<polygon fill="none" stroke="#000000" stroke-dasharray="1,5" points="48.5,-70 48.5,-195 447.5,-195 447.5,-70 48.5,-70"/>
</g>
<g id="clust6" class="cluster">
<title>cluster_ConfigServiceModule_providers</title>
<polygon fill="none" stroke="#000000" points="56.5,-78 56.5,-130 439.5,-130 439.5,-78 56.5,-78"/>
</g>
<!-- AzureMonitoringService -->
<g id="node1" class="node">
<title>AzureMonitoringService</title>
<ellipse fill="#fdb462" stroke="#000000" cx="323.5" cy="-104" rx="107.6444" ry="18"/>
<text text-anchor="middle" x="323.5" y="-99.8" font-family="Times,serif" font-size="14.00" fill="#000000">AzureMonitoringService</text>
</g>
<!-- ConfigServiceModule -->
<g id="node3" class="node">
<title>ConfigServiceModule</title>
<polygon fill="#8dd3c7" stroke="#000000" points="297.9158,-187 294.9158,-191 273.9158,-191 270.9158,-187 157.0842,-187 157.0842,-151 297.9158,-151 297.9158,-187"/>
<text text-anchor="middle" x="227.5" y="-164.8" font-family="Times,serif" font-size="14.00" fill="#000000">ConfigServiceModule</text>
</g>
<!-- AzureMonitoringService&#45;&gt;ConfigServiceModule -->
<g id="edge1" class="edge">
<title>AzureMonitoringService&#45;&gt;ConfigServiceModule</title>
<path fill="none" stroke="#000000" d="M256.8177,-118.4256C256.8177,-118.4256 256.8177,-140.8939 256.8177,-140.8939"/>
<polygon fill="#000000" stroke="#000000" points="253.3178,-140.8938 256.8177,-150.8939 260.3178,-140.8939 253.3178,-140.8938"/>
</g>
<!-- ConfigService -->
<g id="node2" class="node">
<title>ConfigService</title>
<ellipse fill="#fdb462" stroke="#000000" cx="131.5" cy="-104" rx="66.6325" ry="18"/>
<text text-anchor="middle" x="131.5" y="-99.8" font-family="Times,serif" font-size="14.00" fill="#000000">ConfigService</text>
</g>
<!-- ConfigService&#45;&gt;ConfigServiceModule -->
<g id="edge2" class="edge">
<title>ConfigService&#45;&gt;ConfigServiceModule</title>
<path fill="none" stroke="#000000" d="M177.8042,-117.1537C177.8042,-117.1537 177.8042,-140.6938 177.8042,-140.6938"/>
<polygon fill="#000000" stroke="#000000" points="174.3043,-140.6938 177.8042,-150.6938 181.3043,-140.6939 174.3043,-140.6938"/>
</g>
</g>
</svg>
