<?xml version="1.0" encoding="UTF-8" standalone="no"?>
<!DOCTYPE svg PUBLIC "-//W3C//DTD SVG 1.1//EN"
 "http://www.w3.org/Graphics/SVG/1.1/DTD/svg11.dtd">
<!-- Generated by graphviz version 2.40.1 (20161225.0304)
 -->
<!-- Title: dependencies Pages: 1 -->
<svg width="686pt" height="284pt"
 viewBox="0.00 0.00 686.00 284.00" xmlns="http://www.w3.org/2000/svg" xmlns:xlink="http://www.w3.org/1999/xlink">
<g id="graph0" class="graph" transform="scale(1 1) rotate(0) translate(4 280)">
<title>dependencies</title>
<polygon fill="#ffffff" stroke="transparent" points="-4,4 -4,-280 682,-280 682,4 -4,4"/>
<text text-anchor="start" x="318.0091" y="-42.4" font-family="sans-serif" font-weight="bold" font-size="14.00" fill="#000000">Legend</text>
<polygon fill="#ffffb3" stroke="transparent" points="105,-10 105,-30 125,-30 125,-10 105,-10"/>
<text text-anchor="start" x="128.629" y="-15.4" font-family="sans-serif" font-size="14.00" fill="#000000"> &#160;Declarations</text>
<polygon fill="#8dd3c7" stroke="transparent" points="218,-10 218,-30 238,-30 238,-10 218,-10"/>
<text text-anchor="start" x="241.7251" y="-15.4" font-family="sans-serif" font-size="14.00" fill="#000000"> &#160;Module</text>
<polygon fill="#80b1d3" stroke="transparent" points="304,-10 304,-30 324,-30 324,-10 304,-10"/>
<text text-anchor="start" x="327.7812" y="-15.4" font-family="sans-serif" font-size="14.00" fill="#000000"> &#160;Bootstrap</text>
<polygon fill="#fdb462" stroke="transparent" points="401,-10 401,-30 421,-30 421,-10 401,-10"/>
<text text-anchor="start" x="424.6732" y="-15.4" font-family="sans-serif" font-size="14.00" fill="#000000"> &#160;Providers</text>
<polygon fill="#fb8072" stroke="transparent" points="497,-10 497,-30 517,-30 517,-10 497,-10"/>
<text text-anchor="start" x="520.7258" y="-15.4" font-family="sans-serif" font-size="14.00" fill="#000000"> &#160;Exports</text>
<g id="clust1" class="cluster">
<title>cluster_DirectivesModule</title>
<polygon fill="none" stroke="#000000" stroke-dasharray="1,5" points="8,-70 8,-268 670,-268 670,-70 8,-70"/>
</g>
<g id="clust2" class="cluster">
<title>cluster_DirectivesModule_declarations</title>
<polygon fill="none" stroke="#000000" points="24,-78 24,-130 654,-130 654,-78 24,-78"/>
</g>
<g id="clust9" class="cluster">
<title>cluster_DirectivesModule_exports</title>
<polygon fill="none" stroke="#000000" points="16,-208 16,-260 662,-260 662,-208 16,-208"/>
</g>
<!-- SortableHeaderDirective -->
<g id="node1" class="node">
<title>SortableHeaderDirective</title>
<polygon fill="#ffffb3" stroke="#000000" points="645.6475,-122 490.3525,-122 490.3525,-86 645.6475,-86 645.6475,-122"/>
<text text-anchor="middle" x="568" y="-99.8" font-family="Times,serif" font-size="14.00" fill="#000000">SortableHeaderDirective</text>
</g>
<!-- DirectivesModule -->
<g id="node6" class="node">
<title>DirectivesModule</title>
<polygon fill="#8dd3c7" stroke="#000000" points="377.5772,-187 374.5772,-191 353.5772,-191 350.5772,-187 260.4228,-187 260.4228,-151 377.5772,-151 377.5772,-187"/>
<text text-anchor="middle" x="319" y="-164.8" font-family="Times,serif" font-size="14.00" fill="#000000">DirectivesModule</text>
</g>
<!-- SortableHeaderDirective&#45;&gt;DirectivesModule -->
<g id="edge1" class="edge">
<title>SortableHeaderDirective&#45;&gt;DirectivesModule</title>
<path fill="none" stroke="#000000" d="M595.6079,-122.0225C595.6079,-139.3734 595.6079,-163 595.6079,-163 595.6079,-163 387.6614,-163 387.6614,-163"/>
<polygon fill="#000000" stroke="#000000" points="387.6615,-159.5001 377.6614,-163 387.6614,-166.5001 387.6615,-159.5001"/>
</g>
<!-- OneOrAllFilter -->
<g id="node2" class="node">
<title>OneOrAllFilter</title>
<polygon fill="#ffffb3" stroke="#000000" points="472.3063,-122 369.6937,-122 369.6937,-86 472.3063,-86 472.3063,-122"/>
<text text-anchor="middle" x="421" y="-99.8" font-family="Times,serif" font-size="14.00" fill="#000000">OneOrAllFilter</text>
</g>
<!-- OneOrAllFilter&#45;&gt;DirectivesModule -->
<g id="edge2" class="edge">
<title>OneOrAllFilter&#45;&gt;DirectivesModule</title>
<path fill="none" stroke="#000000" d="M373.6929,-122.1061C373.6929,-122.1061 373.6929,-140.991 373.6929,-140.991"/>
<polygon fill="#000000" stroke="#000000" points="370.1929,-140.9909 373.6929,-150.991 377.1929,-140.991 370.1929,-140.9909"/>
</g>
<!-- SafePipe -->
<g id="node3" class="node">
<title>SafePipe</title>
<polygon fill="#ffffb3" stroke="#000000" points="351.7606,-122 286.2394,-122 286.2394,-86 351.7606,-86 351.7606,-122"/>
<text text-anchor="middle" x="319" y="-99.8" font-family="Times,serif" font-size="14.00" fill="#000000">SafePipe</text>
</g>
<!-- SafePipe&#45;&gt;DirectivesModule -->
<g id="edge3" class="edge">
<title>SafePipe&#45;&gt;DirectivesModule</title>
<path fill="none" stroke="#000000" d="M319,-122.1061C319,-122.1061 319,-140.991 319,-140.991"/>
<polygon fill="#000000" stroke="#000000" points="315.5001,-140.9909 319,-150.991 322.5001,-140.991 315.5001,-140.9909"/>
</g>
<!-- StringDatePipe -->
<g id="node4" class="node">
<title>StringDatePipe</title>
<polygon fill="#ffffb3" stroke="#000000" points="267.5396,-122 166.4604,-122 166.4604,-86 267.5396,-86 267.5396,-122"/>
<text text-anchor="middle" x="217" y="-99.8" font-family="Times,serif" font-size="14.00" fill="#000000">StringDatePipe</text>
</g>
<!-- StringDatePipe&#45;&gt;DirectivesModule -->
<g id="edge4" class="edge">
<title>StringDatePipe&#45;&gt;DirectivesModule</title>
<path fill="none" stroke="#000000" d="M264.1154,-122.1061C264.1154,-122.1061 264.1154,-140.991 264.1154,-140.991"/>
<polygon fill="#000000" stroke="#000000" points="260.6154,-140.9909 264.1154,-150.991 267.6154,-140.991 260.6154,-140.9909"/>
</g>
<!-- OnEnterDirective -->
<g id="node5" class="node">
<title>OnEnterDirective</title>
<polygon fill="#ffffb3" stroke="#000000" points="147.5088,-122 32.4912,-122 32.4912,-86 147.5088,-86 147.5088,-122"/>
<text text-anchor="middle" x="90" y="-99.8" font-family="Times,serif" font-size="14.00" fill="#000000">OnEnterDirective</text>
</g>
<!-- OnEnterDirective&#45;&gt;DirectivesModule -->
<g id="edge5" class="edge">
<title>OnEnterDirective&#45;&gt;DirectivesModule</title>
<path fill="none" stroke="#000000" d="M106.418,-122.0225C106.418,-139.3734 106.418,-163 106.418,-163 106.418,-163 250.3483,-163 250.3483,-163"/>
<polygon fill="#000000" stroke="#000000" points="250.3483,-166.5001 260.3483,-163 250.3483,-159.5001 250.3483,-166.5001"/>
</g>
<!-- SortableHeaderDirective  -->
<g id="node7" class="node">
<title>SortableHeaderDirective </title>
<polygon fill="#fb8072" stroke="#000000" points="654.1478,-252 495.8522,-252 495.8522,-216 654.1478,-216 654.1478,-252"/>
<text text-anchor="middle" x="575" y="-229.8" font-family="Times,serif" font-size="14.00" fill="#000000">SortableHeaderDirective </text>
</g>
<!-- DirectivesModule&#45;&gt;SortableHeaderDirective  -->
<g id="edge6" class="edge">
<title>DirectivesModule&#45;&gt;SortableHeaderDirective </title>
<path fill="none" stroke="#000000" stroke-dasharray="5,2" d="M377.6607,-175C444.8139,-175 545.6421,-175 545.6421,-175 545.6421,-175 545.6421,-205.9775 545.6421,-205.9775"/>
<polygon fill="#000000" stroke="#000000" points="542.1422,-205.9774 545.6421,-215.9775 549.1422,-205.9775 542.1422,-205.9774"/>
</g>
<!-- OneOrAllFilter  -->
<g id="node8" class="node">
<title>OneOrAllFilter </title>
<polygon fill="#fb8072" stroke="#000000" points="477.806,-252 372.194,-252 372.194,-216 477.806,-216 477.806,-252"/>
<text text-anchor="middle" x="425" y="-229.8" font-family="Times,serif" font-size="14.00" fill="#000000">OneOrAllFilter </text>
</g>
<!-- DirectivesModule&#45;&gt;OneOrAllFilter  -->
<g id="edge7" class="edge">
<title>DirectivesModule&#45;&gt;OneOrAllFilter </title>
<path fill="none" stroke="#000000" stroke-dasharray="5,2" d="M362.8636,-187.1061C362.8636,-206.3391 362.8636,-234 362.8636,-234 362.8636,-234 363.7804,-234 363.7804,-234"/>
<polygon fill="#000000" stroke="#000000" points="362.0321,-237.5001 372.032,-234 362.032,-230.5001 362.0321,-237.5001"/>
</g>
<!-- SafePipe  -->
<g id="node9" class="node">
<title>SafePipe </title>
<polygon fill="#fb8072" stroke="#000000" points="353.7607,-252 284.2393,-252 284.2393,-216 353.7607,-216 353.7607,-252"/>
<text text-anchor="middle" x="319" y="-229.8" font-family="Times,serif" font-size="14.00" fill="#000000">SafePipe </text>
</g>
<!-- DirectivesModule&#45;&gt;SafePipe  -->
<g id="edge8" class="edge">
<title>DirectivesModule&#45;&gt;SafePipe </title>
<path fill="none" stroke="#000000" stroke-dasharray="5,2" d="M319,-187.1061C319,-187.1061 319,-205.991 319,-205.991"/>
<polygon fill="#000000" stroke="#000000" points="315.5001,-205.9909 319,-215.991 322.5001,-205.991 315.5001,-205.9909"/>
</g>
<!-- StringDatePipe  -->
<g id="node10" class="node">
<title>StringDatePipe </title>
<polygon fill="#fb8072" stroke="#000000" points="266.5386,-252 161.4614,-252 161.4614,-216 266.5386,-216 266.5386,-252"/>
<text text-anchor="middle" x="214" y="-229.8" font-family="Times,serif" font-size="14.00" fill="#000000">StringDatePipe </text>
</g>
<!-- DirectivesModule&#45;&gt;StringDatePipe  -->
<g id="edge9" class="edge">
<title>DirectivesModule&#45;&gt;StringDatePipe </title>
<path fill="none" stroke="#000000" stroke-dasharray="5,2" d="M275.4446,-187.1061C275.4446,-206.3391 275.4446,-234 275.4446,-234 275.4446,-234 274.5642,-234 274.5642,-234"/>
<polygon fill="#000000" stroke="#000000" points="276.6411,-230.5001 266.6411,-234 276.641,-237.5001 276.6411,-230.5001"/>
</g>
<!-- OnEnterDirective  -->
<g id="node11" class="node">
<title>OnEnterDirective </title>
<polygon fill="#fb8072" stroke="#000000" points="143.5078,-252 24.4922,-252 24.4922,-216 143.5078,-216 143.5078,-252"/>
<text text-anchor="middle" x="84" y="-229.8" font-family="Times,serif" font-size="14.00" fill="#000000">OnEnterDirective </text>
</g>
<!-- DirectivesModule&#45;&gt;OnEnterDirective  -->
<g id="edge10" class="edge">
<title>DirectivesModule&#45;&gt;OnEnterDirective </title>
<path fill="none" stroke="#000000" stroke-dasharray="5,2" d="M260.1483,-175C186.3356,-175 69.332,-175 69.332,-175 69.332,-175 69.332,-205.9775 69.332,-205.9775"/>
<polygon fill="#000000" stroke="#000000" points="65.8321,-205.9774 69.332,-215.9775 72.8321,-205.9775 65.8321,-205.9774"/>
</g>
</g>
</svg>
