<?xml version="1.0" encoding="UTF-8" standalone="no"?>
<!DOCTYPE svg PUBLIC "-//W3C//DTD SVG 1.1//EN"
 "http://www.w3.org/Graphics/SVG/1.1/DTD/svg11.dtd">
<!-- Generated by graphviz version 2.40.1 (20161225.0304)
 -->
<!-- Title: dependencies Pages: 1 -->
<svg width="1894pt" height="211pt"
 viewBox="0.00 0.00 1894.00 211.00" xmlns="http://www.w3.org/2000/svg" xmlns:xlink="http://www.w3.org/1999/xlink">
<g id="graph0" class="graph" transform="scale(1 1) rotate(0) translate(4 207)">
<title>dependencies</title>
<polygon fill="#ffffff" stroke="transparent" points="-4,4 -4,-207 1890,-207 1890,4 -4,4"/>
<text text-anchor="start" x="922.0091" y="-42.4" font-family="sans-serif" font-weight="bold" font-size="14.00" fill="#000000">Legend</text>
<polygon fill="#ffffb3" stroke="transparent" points="709,-10 709,-30 729,-30 729,-10 709,-10"/>
<text text-anchor="start" x="732.629" y="-15.4" font-family="sans-serif" font-size="14.00" fill="#000000"> &#160;Declarations</text>
<polygon fill="#8dd3c7" stroke="transparent" points="822,-10 822,-30 842,-30 842,-10 822,-10"/>
<text text-anchor="start" x="845.7251" y="-15.4" font-family="sans-serif" font-size="14.00" fill="#000000"> &#160;Module</text>
<polygon fill="#80b1d3" stroke="transparent" points="908,-10 908,-30 928,-30 928,-10 908,-10"/>
<text text-anchor="start" x="931.7812" y="-15.4" font-family="sans-serif" font-size="14.00" fill="#000000"> &#160;Bootstrap</text>
<polygon fill="#fdb462" stroke="transparent" points="1005,-10 1005,-30 1025,-30 1025,-10 1005,-10"/>
<text text-anchor="start" x="1028.6732" y="-15.4" font-family="sans-serif" font-size="14.00" fill="#000000"> &#160;Providers</text>
<polygon fill="#fb8072" stroke="transparent" points="1101,-10 1101,-30 1121,-30 1121,-10 1101,-10"/>
<text text-anchor="start" x="1124.7258" y="-15.4" font-family="sans-serif" font-size="14.00" fill="#000000"> &#160;Exports</text>
<g id="clust1" class="cluster">
<title>cluster_ServiceModule</title>
<polygon fill="none" stroke="#000000" stroke-dasharray="1,5" points="8,-70 8,-195 1878,-195 1878,-70 8,-70"/>
</g>
<g id="clust2" class="cluster">
<title>cluster_ServiceModule_declarations</title>
<polygon fill="none" stroke="#000000" points="684,-78 684,-130 1870,-130 1870,-78 684,-78"/>
</g>
<g id="clust10" class="cluster">
<title>cluster_ServiceModule_imports</title>
<polygon fill="none" stroke="#000000" points="16,-78 16,-130 676,-130 676,-78 16,-78"/>
</g>
<!-- ServiceBoxesContainer -->
<g id="node1" class="node">
<title>ServiceBoxesContainer</title>
<polygon fill="#ffffb3" stroke="#000000" points="1862.1811,-122 1713.8189,-122 1713.8189,-86 1862.1811,-86 1862.1811,-122"/>
<text text-anchor="middle" x="1788" y="-99.8" font-family="Times,serif" font-size="14.00" fill="#000000">ServiceBoxesContainer</text>
</g>
<!-- ServiceModule -->
<g id="node8" class="node">
<title>ServiceModule</title>
<polygon fill="#8dd3c7" stroke="#000000" points="884.5285,-187 881.5285,-191 860.5285,-191 857.5285,-187 783.4715,-187 783.4715,-151 884.5285,-151 884.5285,-187"/>
<text text-anchor="middle" x="834" y="-164.8" font-family="Times,serif" font-size="14.00" fill="#000000">ServiceModule</text>
</g>
<!-- ServiceBoxesContainer&#45;&gt;ServiceModule -->
<g id="edge1" class="edge">
<title>ServiceBoxesContainer&#45;&gt;ServiceModule</title>
<path fill="none" stroke="#000000" d="M1788,-122.0908C1788,-145.1328 1788,-182 1788,-182 1788,-182 894.6176,-182 894.6176,-182"/>
<polygon fill="#000000" stroke="#000000" points="894.6177,-178.5001 884.6176,-182 894.6176,-185.5001 894.6177,-178.5001"/>
</g>
<!-- ServiceBoxComponent -->
<g id="node2" class="node">
<title>ServiceBoxComponent</title>
<polygon fill="#ffffb3" stroke="#000000" points="1696.147,-122 1549.853,-122 1549.853,-86 1696.147,-86 1696.147,-122"/>
<text text-anchor="middle" x="1623" y="-99.8" font-family="Times,serif" font-size="14.00" fill="#000000">ServiceBoxComponent</text>
</g>
<!-- ServiceBoxComponent&#45;&gt;ServiceModule -->
<g id="edge2" class="edge">
<title>ServiceBoxComponent&#45;&gt;ServiceModule</title>
<path fill="none" stroke="#000000" d="M1623,-122.2843C1623,-143.3211 1623,-175 1623,-175 1623,-175 894.5557,-175 894.5557,-175"/>
<polygon fill="#000000" stroke="#000000" points="894.5558,-171.5001 884.5557,-175 894.5557,-178.5001 894.5558,-171.5001"/>
</g>
<!-- EmailActorsPageContainer -->
<g id="node3" class="node">
<title>EmailActorsPageContainer</title>
<polygon fill="#ffffb3" stroke="#000000" points="1531.6755,-122 1362.3245,-122 1362.3245,-86 1531.6755,-86 1531.6755,-122"/>
<text text-anchor="middle" x="1447" y="-99.8" font-family="Times,serif" font-size="14.00" fill="#000000">EmailActorsPageContainer</text>
</g>
<!-- EmailActorsPageContainer&#45;&gt;ServiceModule -->
<g id="edge3" class="edge">
<title>EmailActorsPageContainer&#45;&gt;ServiceModule</title>
<path fill="none" stroke="#000000" d="M1447,-122.1061C1447,-141.3391 1447,-169 1447,-169 1447,-169 894.6859,-169 894.6859,-169"/>
<polygon fill="#000000" stroke="#000000" points="894.6859,-165.5001 884.6859,-169 894.6859,-172.5001 894.6859,-165.5001"/>
</g>
<!-- EmailActorsListComponent -->
<g id="node4" class="node">
<title>EmailActorsListComponent</title>
<polygon fill="#ffffb3" stroke="#000000" points="1343.8669,-122 1170.1331,-122 1170.1331,-86 1343.8669,-86 1343.8669,-122"/>
<text text-anchor="middle" x="1257" y="-99.8" font-family="Times,serif" font-size="14.00" fill="#000000">EmailActorsListComponent</text>
</g>
<!-- EmailActorsListComponent&#45;&gt;ServiceModule -->
<g id="edge4" class="edge">
<title>EmailActorsListComponent&#45;&gt;ServiceModule</title>
<path fill="none" stroke="#000000" d="M1257,-122.0225C1257,-139.3734 1257,-163 1257,-163 1257,-163 894.6035,-163 894.6035,-163"/>
<polygon fill="#000000" stroke="#000000" points="894.6036,-159.5001 884.6035,-163 894.6035,-166.5001 894.6036,-159.5001"/>
</g>
<!-- ContactPageContainer -->
<g id="node5" class="node">
<title>ContactPageContainer</title>
<polygon fill="#ffffb3" stroke="#000000" points="1151.9664,-122 1010.0336,-122 1010.0336,-86 1151.9664,-86 1151.9664,-122"/>
<text text-anchor="middle" x="1081" y="-99.8" font-family="Times,serif" font-size="14.00" fill="#000000">ContactPageContainer</text>
</g>
<!-- ContactPageContainer&#45;&gt;ServiceModule -->
<g id="edge5" class="edge">
<title>ContactPageContainer&#45;&gt;ServiceModule</title>
<path fill="none" stroke="#000000" d="M1081,-122.2396C1081,-137.5706 1081,-157 1081,-157 1081,-157 894.5802,-157 894.5802,-157"/>
<polygon fill="#000000" stroke="#000000" points="894.5802,-153.5001 884.5802,-157 894.5801,-160.5001 894.5802,-153.5001"/>
</g>
<!-- ContactFormComponent -->
<g id="node6" class="node">
<title>ContactFormComponent</title>
<polygon fill="#ffffb3" stroke="#000000" points="991.7133,-122 836.2867,-122 836.2867,-86 991.7133,-86 991.7133,-122"/>
<text text-anchor="middle" x="914" y="-99.8" font-family="Times,serif" font-size="14.00" fill="#000000">ContactFormComponent</text>
</g>
<!-- ContactFormComponent&#45;&gt;ServiceModule -->
<g id="edge6" class="edge">
<title>ContactFormComponent&#45;&gt;ServiceModule</title>
<path fill="none" stroke="#000000" d="M860.5786,-122.1061C860.5786,-122.1061 860.5786,-140.991 860.5786,-140.991"/>
<polygon fill="#000000" stroke="#000000" points="857.0786,-140.9909 860.5786,-150.991 864.0786,-140.991 857.0786,-140.9909"/>
</g>
<!-- FAQPageContainer -->
<g id="node7" class="node">
<title>FAQPageContainer</title>
<polygon fill="#ffffb3" stroke="#000000" points="818.4159,-122 691.5841,-122 691.5841,-86 818.4159,-86 818.4159,-122"/>
<text text-anchor="middle" x="755" y="-99.8" font-family="Times,serif" font-size="14.00" fill="#000000">FAQPageContainer</text>
</g>
<!-- FAQPageContainer&#45;&gt;ServiceModule -->
<g id="edge7" class="edge">
<title>FAQPageContainer&#45;&gt;ServiceModule</title>
<path fill="none" stroke="#000000" d="M800.722,-122.1061C800.722,-122.1061 800.722,-140.991 800.722,-140.991"/>
<polygon fill="#000000" stroke="#000000" points="797.222,-140.9909 800.722,-150.991 804.222,-140.991 797.222,-140.9909"/>
</g>
<!-- ServiceRoutingModule -->
<g id="node9" class="node">
<title>ServiceRoutingModule</title>
<polygon fill="#8dd3c7" stroke="#000000" points="668.1456,-122 665.1456,-126 644.1456,-126 641.1456,-122 521.8544,-122 521.8544,-86 668.1456,-86 668.1456,-122"/>
<text text-anchor="middle" x="595" y="-99.8" font-family="Times,serif" font-size="14.00" fill="#000000">ServiceRoutingModule</text>
</g>
<!-- ServiceRoutingModule&#45;&gt;ServiceModule -->
<g id="edge8" class="edge">
<title>ServiceRoutingModule&#45;&gt;ServiceModule</title>
<path fill="none" stroke="#000000" d="M595,-122.2396C595,-137.5706 595,-157 595,-157 595,-157 773.3142,-157 773.3142,-157"/>
<polygon fill="#000000" stroke="#000000" points="773.3143,-160.5001 783.3142,-157 773.3142,-153.5001 773.3143,-160.5001"/>
</g>
<!-- AngularMaterialModule -->
<g id="node10" class="node">
<title>AngularMaterialModule</title>
<polygon fill="#8dd3c7" stroke="#000000" points="503.3431,-122 500.3431,-126 479.3431,-126 476.3431,-122 350.6569,-122 350.6569,-86 503.3431,-86 503.3431,-122"/>
<text text-anchor="middle" x="427" y="-99.8" font-family="Times,serif" font-size="14.00" fill="#000000">AngularMaterialModule</text>
</g>
<!-- AngularMaterialModule&#45;&gt;ServiceModule -->
<g id="edge9" class="edge">
<title>AngularMaterialModule&#45;&gt;ServiceModule</title>
<path fill="none" stroke="#000000" d="M427,-122.0225C427,-139.3734 427,-163 427,-163 427,-163 773.2761,-163 773.2761,-163"/>
<polygon fill="#000000" stroke="#000000" points="773.2761,-166.5001 783.2761,-163 773.2761,-159.5001 773.2761,-166.5001"/>
</g>
<!-- SharedModule -->
<g id="node11" class="node">
<title>SharedModule</title>
<polygon fill="#8dd3c7" stroke="#000000" points="332.4231,-122 329.4231,-126 308.4231,-126 305.4231,-122 233.5769,-122 233.5769,-86 332.4231,-86 332.4231,-122"/>
<text text-anchor="middle" x="283" y="-99.8" font-family="Times,serif" font-size="14.00" fill="#000000">SharedModule</text>
</g>
<!-- SharedModule&#45;&gt;ServiceModule -->
<g id="edge10" class="edge">
<title>SharedModule&#45;&gt;ServiceModule</title>
<path fill="none" stroke="#000000" d="M283,-122.1061C283,-141.3391 283,-169 283,-169 283,-169 773.1509,-169 773.1509,-169"/>
<polygon fill="#000000" stroke="#000000" points="773.1509,-172.5001 783.1509,-169 773.1508,-165.5001 773.1509,-172.5001"/>
</g>
<!-- CoreModule -->
<g id="node12" class="node">
<title>CoreModule</title>
<polygon fill="#8dd3c7" stroke="#000000" points="215.2619,-122 212.2619,-126 191.2619,-126 188.2619,-122 128.7381,-122 128.7381,-86 215.2619,-86 215.2619,-122"/>
<text text-anchor="middle" x="172" y="-99.8" font-family="Times,serif" font-size="14.00" fill="#000000">CoreModule</text>
</g>
<!-- CoreModule&#45;&gt;ServiceModule -->
<g id="edge11" class="edge">
<title>CoreModule&#45;&gt;ServiceModule</title>
<path fill="none" stroke="#000000" d="M172,-122.2843C172,-143.3211 172,-175 172,-175 172,-175 773.4264,-175 773.4264,-175"/>
<polygon fill="#000000" stroke="#000000" points="773.4265,-178.5001 783.4264,-175 773.4264,-171.5001 773.4265,-178.5001"/>
</g>
<!-- AdalModule -->
<g id="node13" class="node">
<title>AdalModule</title>
<polygon fill="#8dd3c7" stroke="#000000" points="110.2619,-122 107.2619,-126 86.2619,-126 83.2619,-122 23.7381,-122 23.7381,-86 110.2619,-86 110.2619,-122"/>
<text text-anchor="middle" x="67" y="-99.8" font-family="Times,serif" font-size="14.00" fill="#000000">AdalModule</text>
</g>
<!-- AdalModule&#45;&gt;ServiceModule -->
<g id="edge12" class="edge">
<title>AdalModule&#45;&gt;ServiceModule</title>
<path fill="none" stroke="#000000" d="M67,-122.0908C67,-145.1328 67,-182 67,-182 67,-182 773.3784,-182 773.3784,-182"/>
<polygon fill="#000000" stroke="#000000" points="773.3784,-185.5001 783.3784,-182 773.3783,-178.5001 773.3784,-185.5001"/>
</g>
</g>
</svg>
