<?xml version="1.0" encoding="UTF-8" standalone="no"?>
<!DOCTYPE svg PUBLIC "-//W3C//DTD SVG 1.1//EN"
 "http://www.w3.org/Graphics/SVG/1.1/DTD/svg11.dtd">
<!-- Generated by graphviz version 2.40.1 (20161225.0304)
 -->
<!-- Title: dependencies Pages: 1 -->
<svg width="2154pt" height="211pt"
 viewBox="0.00 0.00 2154.00 211.00" xmlns="http://www.w3.org/2000/svg" xmlns:xlink="http://www.w3.org/1999/xlink">
<g id="graph0" class="graph" transform="scale(1 1) rotate(0) translate(4 207)">
<title>dependencies</title>
<polygon fill="#ffffff" stroke="transparent" points="-4,4 -4,-207 2150,-207 2150,4 -4,4"/>
<text text-anchor="start" x="1052.0091" y="-42.4" font-family="sans-serif" font-weight="bold" font-size="14.00" fill="#000000">Legend</text>
<polygon fill="#ffffb3" stroke="transparent" points="839,-10 839,-30 859,-30 859,-10 839,-10"/>
<text text-anchor="start" x="862.629" y="-15.4" font-family="sans-serif" font-size="14.00" fill="#000000"> &#160;Declarations</text>
<polygon fill="#8dd3c7" stroke="transparent" points="952,-10 952,-30 972,-30 972,-10 952,-10"/>
<text text-anchor="start" x="975.7251" y="-15.4" font-family="sans-serif" font-size="14.00" fill="#000000"> &#160;Module</text>
<polygon fill="#80b1d3" stroke="transparent" points="1038,-10 1038,-30 1058,-30 1058,-10 1038,-10"/>
<text text-anchor="start" x="1061.7812" y="-15.4" font-family="sans-serif" font-size="14.00" fill="#000000"> &#160;Bootstrap</text>
<polygon fill="#fdb462" stroke="transparent" points="1135,-10 1135,-30 1155,-30 1155,-10 1135,-10"/>
<text text-anchor="start" x="1158.6732" y="-15.4" font-family="sans-serif" font-size="14.00" fill="#000000"> &#160;Providers</text>
<polygon fill="#fb8072" stroke="transparent" points="1231,-10 1231,-30 1251,-30 1251,-10 1231,-10"/>
<text text-anchor="start" x="1254.7258" y="-15.4" font-family="sans-serif" font-size="14.00" fill="#000000"> &#160;Exports</text>
<g id="clust1" class="cluster">
<title>cluster_DashboardModule</title>
<polygon fill="none" stroke="#000000" stroke-dasharray="1,5" points="8,-70 8,-195 2138,-195 2138,-70 8,-70"/>
</g>
<g id="clust2" class="cluster">
<title>cluster_DashboardModule_declarations</title>
<polygon fill="none" stroke="#000000" points="703,-78 703,-130 2130,-130 2130,-78 703,-78"/>
</g>
<g id="clust13" class="cluster">
<title>cluster_DashboardModule_imports</title>
<polygon fill="none" stroke="#000000" points="16,-78 16,-130 695,-130 695,-78 16,-78"/>
</g>
<!-- DashboardContainer -->
<g id="node1" class="node">
<title>DashboardContainer</title>
<polygon fill="#ffffb3" stroke="#000000" points="2121.8487,-122 1990.1513,-122 1990.1513,-86 2121.8487,-86 2121.8487,-122"/>
<text text-anchor="middle" x="2056" y="-99.8" font-family="Times,serif" font-size="14.00" fill="#000000">DashboardContainer</text>
</g>
<!-- DashboardModule -->
<g id="node11" class="node">
<title>DashboardModule</title>
<polygon fill="#8dd3c7" stroke="#000000" points="1049.191,-187 1046.191,-191 1025.191,-191 1022.191,-187 928.809,-187 928.809,-151 1049.191,-151 1049.191,-187"/>
<text text-anchor="middle" x="989" y="-164.8" font-family="Times,serif" font-size="14.00" fill="#000000">DashboardModule</text>
</g>
<!-- DashboardContainer&#45;&gt;DashboardModule -->
<g id="edge1" class="edge">
<title>DashboardContainer&#45;&gt;DashboardModule</title>
<path fill="none" stroke="#000000" d="M2056,-122.0908C2056,-145.1328 2056,-182 2056,-182 2056,-182 1059.4237,-182 1059.4237,-182"/>
<polygon fill="#000000" stroke="#000000" points="1059.4238,-178.5001 1049.4237,-182 1059.4237,-185.5001 1059.4238,-178.5001"/>
</g>
<!-- DashboardTile -->
<g id="node2" class="node">
<title>DashboardTile</title>
<polygon fill="#ffffb3" stroke="#000000" points="1971.6896,-122 1872.3104,-122 1872.3104,-86 1971.6896,-86 1971.6896,-122"/>
<text text-anchor="middle" x="1922" y="-99.8" font-family="Times,serif" font-size="14.00" fill="#000000">DashboardTile</text>
</g>
<!-- DashboardTile&#45;&gt;DashboardModule -->
<g id="edge2" class="edge">
<title>DashboardTile&#45;&gt;DashboardModule</title>
<path fill="none" stroke="#000000" d="M1922,-122.0449C1922,-143.6623 1922,-177 1922,-177 1922,-177 1059.1398,-177 1059.1398,-177"/>
<polygon fill="#000000" stroke="#000000" points="1059.1398,-173.5001 1049.1398,-177 1059.1398,-180.5001 1059.1398,-173.5001"/>
</g>
<!-- OpenHandshakesTile -->
<g id="node3" class="node">
<title>OpenHandshakesTile</title>
<polygon fill="#ffffb3" stroke="#000000" points="1854.0101,-122 1717.9899,-122 1717.9899,-86 1854.0101,-86 1854.0101,-122"/>
<text text-anchor="middle" x="1786" y="-99.8" font-family="Times,serif" font-size="14.00" fill="#000000">OpenHandshakesTile</text>
</g>
<!-- OpenHandshakesTile&#45;&gt;DashboardModule -->
<g id="edge3" class="edge">
<title>OpenHandshakesTile&#45;&gt;DashboardModule</title>
<path fill="none" stroke="#000000" d="M1786,-122.2228C1786,-142.3652 1786,-172 1786,-172 1786,-172 1059.2312,-172 1059.2312,-172"/>
<polygon fill="#000000" stroke="#000000" points="1059.2313,-168.5001 1049.2312,-172 1059.2312,-175.5001 1059.2313,-168.5001"/>
</g>
<!-- OpenHandshakesSummaryTile -->
<g id="node4" class="node">
<title>OpenHandshakesSummaryTile</title>
<polygon fill="#ffffb3" stroke="#000000" points="1699.4482,-122 1508.5518,-122 1508.5518,-86 1699.4482,-86 1699.4482,-122"/>
<text text-anchor="middle" x="1604" y="-99.8" font-family="Times,serif" font-size="14.00" fill="#000000">OpenHandshakesSummaryTile</text>
</g>
<!-- OpenHandshakesSummaryTile&#45;&gt;DashboardModule -->
<g id="edge4" class="edge">
<title>OpenHandshakesSummaryTile&#45;&gt;DashboardModule</title>
<path fill="none" stroke="#000000" d="M1604,-122.2222C1604,-140.8285 1604,-167 1604,-167 1604,-167 1059.3698,-167 1059.3698,-167"/>
<polygon fill="#000000" stroke="#000000" points="1059.3699,-163.5001 1049.3698,-167 1059.3698,-170.5001 1059.3699,-163.5001"/>
</g>
<!-- LatestFlowsPlusHandshakeTile -->
<g id="node5" class="node">
<title>LatestFlowsPlusHandshakeTile</title>
<polygon fill="#ffffb3" stroke="#000000" points="1490.7934,-122 1297.2066,-122 1297.2066,-86 1490.7934,-86 1490.7934,-122"/>
<text text-anchor="middle" x="1394" y="-99.8" font-family="Times,serif" font-size="14.00" fill="#000000">LatestFlowsPlusHandshakeTile</text>
</g>
<!-- LatestFlowsPlusHandshakeTile&#45;&gt;DashboardModule -->
<g id="edge5" class="edge">
<title>LatestFlowsPlusHandshakeTile&#45;&gt;DashboardModule</title>
<path fill="none" stroke="#000000" d="M1394,-122.0336C1394,-139.0597 1394,-162 1394,-162 1394,-162 1059.1953,-162 1059.1953,-162"/>
<polygon fill="#000000" stroke="#000000" points="1059.1953,-158.5001 1049.1953,-162 1059.1952,-165.5001 1059.1953,-158.5001"/>
</g>
<!-- LatestOrdersTile -->
<g id="node6" class="node">
<title>LatestOrdersTile</title>
<polygon fill="#ffffb3" stroke="#000000" points="1279.3431,-122 1168.6569,-122 1168.6569,-86 1279.3431,-86 1279.3431,-122"/>
<text text-anchor="middle" x="1224" y="-99.8" font-family="Times,serif" font-size="14.00" fill="#000000">LatestOrdersTile</text>
</g>
<!-- LatestOrdersTile&#45;&gt;DashboardModule -->
<g id="edge6" class="edge">
<title>LatestOrdersTile&#45;&gt;DashboardModule</title>
<path fill="none" stroke="#000000" d="M1224,-122.2396C1224,-137.5706 1224,-157 1224,-157 1224,-157 1059.2132,-157 1059.2132,-157"/>
<polygon fill="#000000" stroke="#000000" points="1059.2132,-153.5001 1049.2132,-157 1059.2131,-160.5001 1059.2132,-153.5001"/>
</g>
<!-- LatestFlowsTile -->
<g id="node7" class="node">
<title>LatestFlowsTile</title>
<polygon fill="#ffffb3" stroke="#000000" points="1150.4804,-122 1043.5196,-122 1043.5196,-86 1150.4804,-86 1150.4804,-122"/>
<text text-anchor="middle" x="1097" y="-99.8" font-family="Times,serif" font-size="14.00" fill="#000000">LatestFlowsTile</text>
</g>
<!-- LatestFlowsTile&#45;&gt;DashboardModule -->
<g id="edge7" class="edge">
<title>LatestFlowsTile&#45;&gt;DashboardModule</title>
<path fill="none" stroke="#000000" d="M1043.4076,-104C1037.9967,-104 1034.445,-104 1034.445,-104 1034.445,-104 1034.445,-140.8939 1034.445,-140.8939"/>
<polygon fill="#000000" stroke="#000000" points="1030.945,-140.8938 1034.445,-150.8939 1037.945,-140.8939 1030.945,-140.8938"/>
</g>
<!-- DepotTile -->
<g id="node8" class="node">
<title>DepotTile</title>
<polygon fill="#ffffb3" stroke="#000000" points="1025.2606,-122 952.7394,-122 952.7394,-86 1025.2606,-86 1025.2606,-122"/>
<text text-anchor="middle" x="989" y="-99.8" font-family="Times,serif" font-size="14.00" fill="#000000">DepotTile</text>
</g>
<!-- DepotTile&#45;&gt;DashboardModule -->
<g id="edge8" class="edge">
<title>DepotTile&#45;&gt;DashboardModule</title>
<path fill="none" stroke="#000000" d="M989,-122.1061C989,-122.1061 989,-140.991 989,-140.991"/>
<polygon fill="#000000" stroke="#000000" points="985.5001,-140.9909 989,-150.991 992.5001,-140.991 985.5001,-140.9909"/>
</g>
<!-- FeatureTile -->
<g id="node9" class="node">
<title>FeatureTile</title>
<polygon fill="#ffffb3" stroke="#000000" points="934.0274,-122 853.9726,-122 853.9726,-86 934.0274,-86 934.0274,-122"/>
<text text-anchor="middle" x="894" y="-99.8" font-family="Times,serif" font-size="14.00" fill="#000000">FeatureTile</text>
</g>
<!-- FeatureTile&#45;&gt;DashboardModule -->
<g id="edge9" class="edge">
<title>FeatureTile&#45;&gt;DashboardModule</title>
<path fill="none" stroke="#000000" d="M934.3731,-104C939.7448,-104 943.4415,-104 943.4415,-104 943.4415,-104 943.4415,-140.8939 943.4415,-140.8939"/>
<polygon fill="#000000" stroke="#000000" points="939.9415,-140.8938 943.4415,-150.8939 946.9415,-140.8939 939.9415,-140.8938"/>
</g>
<!-- StockSummaryTile -->
<g id="node10" class="node">
<title>StockSummaryTile</title>
<polygon fill="#ffffb3" stroke="#000000" points="835.3753,-122 710.6247,-122 710.6247,-86 835.3753,-86 835.3753,-122"/>
<text text-anchor="middle" x="773" y="-99.8" font-family="Times,serif" font-size="14.00" fill="#000000">StockSummaryTile</text>
</g>
<!-- StockSummaryTile&#45;&gt;DashboardModule -->
<g id="edge10" class="edge">
<title>StockSummaryTile&#45;&gt;DashboardModule</title>
<path fill="none" stroke="#000000" d="M773,-122.2396C773,-137.5706 773,-157 773,-157 773,-157 918.832,-157 918.832,-157"/>
<polygon fill="#000000" stroke="#000000" points="918.832,-160.5001 928.832,-157 918.8319,-153.5001 918.832,-160.5001"/>
</g>
<!-- AngularMaterialModule -->
<g id="node12" class="node">
<title>AngularMaterialModule</title>
<polygon fill="#8dd3c7" stroke="#000000" points="687.3431,-122 684.3431,-126 663.3431,-126 660.3431,-122 534.6569,-122 534.6569,-86 687.3431,-86 687.3431,-122"/>
<text text-anchor="middle" x="611" y="-99.8" font-family="Times,serif" font-size="14.00" fill="#000000">AngularMaterialModule</text>
</g>
<!-- AngularMaterialModule&#45;&gt;DashboardModule -->
<g id="edge11" class="edge">
<title>AngularMaterialModule&#45;&gt;DashboardModule</title>
<path fill="none" stroke="#000000" d="M611,-122.0336C611,-139.0597 611,-162 611,-162 611,-162 918.6868,-162 918.6868,-162"/>
<polygon fill="#000000" stroke="#000000" points="918.6868,-165.5001 928.6868,-162 918.6868,-158.5001 918.6868,-165.5001"/>
</g>
<!-- SharedModule -->
<g id="node13" class="node">
<title>SharedModule</title>
<polygon fill="#8dd3c7" stroke="#000000" points="516.4231,-122 513.4231,-126 492.4231,-126 489.4231,-122 417.5769,-122 417.5769,-86 516.4231,-86 516.4231,-122"/>
<text text-anchor="middle" x="467" y="-99.8" font-family="Times,serif" font-size="14.00" fill="#000000">SharedModule</text>
</g>
<!-- SharedModule&#45;&gt;DashboardModule -->
<g id="edge12" class="edge">
<title>SharedModule&#45;&gt;DashboardModule</title>
<path fill="none" stroke="#000000" d="M467,-122.2222C467,-140.8285 467,-167 467,-167 467,-167 918.8652,-167 918.8652,-167"/>
<polygon fill="#000000" stroke="#000000" points="918.8652,-170.5001 928.8652,-167 918.8652,-163.5001 918.8652,-170.5001"/>
</g>
<!-- CoreModule -->
<g id="node14" class="node">
<title>CoreModule</title>
<polygon fill="#8dd3c7" stroke="#000000" points="399.2619,-122 396.2619,-126 375.2619,-126 372.2619,-122 312.7381,-122 312.7381,-86 399.2619,-86 399.2619,-122"/>
<text text-anchor="middle" x="356" y="-99.8" font-family="Times,serif" font-size="14.00" fill="#000000">CoreModule</text>
</g>
<!-- CoreModule&#45;&gt;DashboardModule -->
<g id="edge13" class="edge">
<title>CoreModule&#45;&gt;DashboardModule</title>
<path fill="none" stroke="#000000" d="M356,-122.2228C356,-142.3652 356,-172 356,-172 356,-172 918.8782,-172 918.8782,-172"/>
<polygon fill="#000000" stroke="#000000" points="918.8783,-175.5001 928.8782,-172 918.8782,-168.5001 918.8783,-175.5001"/>
</g>
<!-- AdalModule -->
<g id="node15" class="node">
<title>AdalModule</title>
<polygon fill="#8dd3c7" stroke="#000000" points="294.2619,-122 291.2619,-126 270.2619,-126 267.2619,-122 207.7381,-122 207.7381,-86 294.2619,-86 294.2619,-122"/>
<text text-anchor="middle" x="251" y="-99.8" font-family="Times,serif" font-size="14.00" fill="#000000">AdalModule</text>
</g>
<!-- AdalModule&#45;&gt;DashboardModule -->
<g id="edge14" class="edge">
<title>AdalModule&#45;&gt;DashboardModule</title>
<path fill="none" stroke="#000000" d="M251,-122.0449C251,-143.6623 251,-177 251,-177 251,-177 918.6064,-177 918.6064,-177"/>
<polygon fill="#000000" stroke="#000000" points="918.6064,-180.5001 928.6064,-177 918.6063,-173.5001 918.6064,-180.5001"/>
</g>
<!-- DashboardRoutingModule -->
<g id="node16" class="node">
<title>DashboardRoutingModule</title>
<polygon fill="#8dd3c7" stroke="#000000" points="189.8089,-122 186.8089,-126 165.8089,-126 162.8089,-122 24.1911,-122 24.1911,-86 189.8089,-86 189.8089,-122"/>
<text text-anchor="middle" x="107" y="-99.8" font-family="Times,serif" font-size="14.00" fill="#000000">DashboardRoutingModule</text>
</g>
<!-- DashboardRoutingModule&#45;&gt;DashboardModule -->
<g id="edge15" class="edge">
<title>DashboardRoutingModule&#45;&gt;DashboardModule</title>
<path fill="none" stroke="#000000" d="M107,-122.0908C107,-145.1328 107,-182 107,-182 107,-182 918.7237,-182 918.7237,-182"/>
<polygon fill="#000000" stroke="#000000" points="918.7237,-185.5001 928.7237,-182 918.7237,-178.5001 918.7237,-185.5001"/>
</g>
</g>
</svg>
