<?xml version="1.0" encoding="UTF-8" standalone="no"?>
<!DOCTYPE svg PUBLIC "-//W3C//DTD SVG 1.1//EN"
 "http://www.w3.org/Graphics/SVG/1.1/DTD/svg11.dtd">
<!-- Generated by graphviz version 2.40.1 (20161225.0304)
 -->
<!-- Title: dependencies Pages: 1 -->
<svg width="1136pt" height="211pt"
 viewBox="0.00 0.00 1136.00 211.00" xmlns="http://www.w3.org/2000/svg" xmlns:xlink="http://www.w3.org/1999/xlink">
<g id="graph0" class="graph" transform="scale(1 1) rotate(0) translate(4 207)">
<title>dependencies</title>
<polygon fill="#ffffff" stroke="transparent" points="-4,4 -4,-207 1132,-207 1132,4 -4,4"/>
<text text-anchor="start" x="543.0091" y="-42.4" font-family="sans-serif" font-weight="bold" font-size="14.00" fill="#000000">Legend</text>
<polygon fill="#ffffb3" stroke="transparent" points="330,-10 330,-30 350,-30 350,-10 330,-10"/>
<text text-anchor="start" x="353.629" y="-15.4" font-family="sans-serif" font-size="14.00" fill="#000000"> &#160;Declarations</text>
<polygon fill="#8dd3c7" stroke="transparent" points="443,-10 443,-30 463,-30 463,-10 443,-10"/>
<text text-anchor="start" x="466.7251" y="-15.4" font-family="sans-serif" font-size="14.00" fill="#000000"> &#160;Module</text>
<polygon fill="#80b1d3" stroke="transparent" points="529,-10 529,-30 549,-30 549,-10 529,-10"/>
<text text-anchor="start" x="552.7812" y="-15.4" font-family="sans-serif" font-size="14.00" fill="#000000"> &#160;Bootstrap</text>
<polygon fill="#fdb462" stroke="transparent" points="626,-10 626,-30 646,-30 646,-10 626,-10"/>
<text text-anchor="start" x="649.6732" y="-15.4" font-family="sans-serif" font-size="14.00" fill="#000000"> &#160;Providers</text>
<polygon fill="#fb8072" stroke="transparent" points="722,-10 722,-30 742,-30 742,-10 722,-10"/>
<text text-anchor="start" x="745.7258" y="-15.4" font-family="sans-serif" font-size="14.00" fill="#000000"> &#160;Exports</text>
<g id="clust1" class="cluster">
<title>cluster_AdalModule</title>
<polygon fill="none" stroke="#000000" stroke-dasharray="1,5" points="8,-70 8,-195 1120,-195 1120,-70 8,-70"/>
</g>
<g id="clust2" class="cluster">
<title>cluster_AdalModule_declarations</title>
<polygon fill="none" stroke="#000000" points="932,-78 932,-130 1112,-130 1112,-78 932,-78"/>
</g>
<g id="clust4" class="cluster">
<title>cluster_AdalModule_imports</title>
<polygon fill="none" stroke="#000000" points="776,-78 776,-130 924,-130 924,-78 776,-78"/>
</g>
<g id="clust7" class="cluster">
<title>cluster_AdalModule_providers</title>
<polygon fill="none" stroke="#000000" points="16,-78 16,-130 768,-130 768,-78 16,-78"/>
</g>
<!-- IframeDummyComponent -->
<g id="node1" class="node">
<title>IframeDummyComponent</title>
<polygon fill="#ffffb3" stroke="#000000" points="1104.0225,-122 939.9775,-122 939.9775,-86 1104.0225,-86 1104.0225,-122"/>
<text text-anchor="middle" x="1022" y="-99.8" font-family="Times,serif" font-size="14.00" fill="#000000">IframeDummyComponent</text>
</g>
<!-- AdalModule -->
<g id="node2" class="node">
<title>AdalModule</title>
<polygon fill="#8dd3c7" stroke="#000000" points="608.2619,-187 605.2619,-191 584.2619,-191 581.2619,-187 521.7381,-187 521.7381,-151 608.2619,-151 608.2619,-187"/>
<text text-anchor="middle" x="565" y="-164.8" font-family="Times,serif" font-size="14.00" fill="#000000">AdalModule</text>
</g>
<!-- IframeDummyComponent&#45;&gt;AdalModule -->
<g id="edge1" class="edge">
<title>IframeDummyComponent&#45;&gt;AdalModule</title>
<path fill="none" stroke="#000000" d="M1022,-122.2843C1022,-143.3211 1022,-175 1022,-175 1022,-175 618.4055,-175 618.4055,-175"/>
<polygon fill="#000000" stroke="#000000" points="618.4055,-171.5001 608.4055,-175 618.4054,-178.5001 618.4055,-171.5001"/>
</g>
<!-- AdalRoutingModule -->
<g id="node3" class="node">
<title>AdalRoutingModule</title>
<polygon fill="#8dd3c7" stroke="#000000" points="915.8795,-122 912.8795,-126 891.8795,-126 888.8795,-122 784.1205,-122 784.1205,-86 915.8795,-86 915.8795,-122"/>
<text text-anchor="middle" x="850" y="-99.8" font-family="Times,serif" font-size="14.00" fill="#000000">AdalRoutingModule</text>
</g>
<!-- AdalRoutingModule&#45;&gt;AdalModule -->
<g id="edge2" class="edge">
<title>AdalRoutingModule&#45;&gt;AdalModule</title>
<path fill="none" stroke="#000000" d="M850,-122.0225C850,-139.3734 850,-163 850,-163 850,-163 618.2854,-163 618.2854,-163"/>
<polygon fill="#000000" stroke="#000000" points="618.2854,-159.5001 608.2854,-163 618.2853,-166.5001 618.2854,-159.5001"/>
</g>
<!-- OAuthCallbackReducer -->
<g id="node4" class="node">
<title>OAuthCallbackReducer</title>
<ellipse fill="#fdb462" stroke="#000000" cx="656" cy="-104" rx="103.6335" ry="18"/>
<text text-anchor="middle" x="656" y="-99.8" font-family="Times,serif" font-size="14.00" fill="#000000">OAuthCallbackReducer</text>
</g>
<!-- OAuthCallbackReducer&#45;&gt;AdalModule -->
<g id="edge3" class="edge">
<title>OAuthCallbackReducer&#45;&gt;AdalModule</title>
<path fill="none" stroke="#000000" d="M580.2821,-116.5327C580.2821,-116.5327 580.2821,-140.8507 580.2821,-140.8507"/>
<polygon fill="#000000" stroke="#000000" points="576.7822,-140.8506 580.2821,-150.8507 583.7822,-140.8507 576.7822,-140.8506"/>
</g>
<!-- AdalService -->
<g id="node5" class="node">
<title>AdalService</title>
<ellipse fill="#fdb462" stroke="#000000" cx="475" cy="-104" rx="58.5251" ry="18"/>
<text text-anchor="middle" x="475" y="-99.8" font-family="Times,serif" font-size="14.00" fill="#000000">AdalService</text>
</g>
<!-- AdalService&#45;&gt;AdalModule -->
<g id="edge4" class="edge">
<title>AdalService&#45;&gt;AdalModule</title>
<path fill="none" stroke="#000000" d="M527.6906,-111.9703C527.6906,-111.9703 527.6906,-140.8723 527.6906,-140.8723"/>
<polygon fill="#000000" stroke="#000000" points="524.1907,-140.8722 527.6906,-150.8723 531.1907,-140.8723 524.1907,-140.8722"/>
</g>
<!-- AdalConfigService -->
<g id="node6" class="node">
<title>AdalConfigService</title>
<ellipse fill="#fdb462" stroke="#000000" cx="313" cy="-104" rx="85.6725" ry="18"/>
<text text-anchor="middle" x="313" y="-99.8" font-family="Times,serif" font-size="14.00" fill="#000000">AdalConfigService</text>
</g>
<!-- AdalConfigService&#45;&gt;AdalModule -->
<g id="edge5" class="edge">
<title>AdalConfigService&#45;&gt;AdalModule</title>
<path fill="none" stroke="#000000" d="M313,-122.0225C313,-139.3734 313,-163 313,-163 313,-163 511.6797,-163 511.6797,-163"/>
<polygon fill="#000000" stroke="#000000" points="511.6797,-166.5001 521.6797,-163 511.6796,-159.5001 511.6797,-166.5001"/>
</g>
<!-- AuthenticationGuard -->
<g id="node7" class="node">
<title>AuthenticationGuard</title>
<ellipse fill="#fdb462" stroke="#000000" cx="117" cy="-104" rx="92.617" ry="18"/>
<text text-anchor="middle" x="117" y="-99.8" font-family="Times,serif" font-size="14.00" fill="#000000">AuthenticationGuard</text>
</g>
<!-- AuthenticationGuard&#45;&gt;AdalModule -->
<g id="edge6" class="edge">
<title>AuthenticationGuard&#45;&gt;AdalModule</title>
<path fill="none" stroke="#000000" d="M117,-122.2843C117,-143.3211 117,-175 117,-175 117,-175 511.6368,-175 511.6368,-175"/>
<polygon fill="#000000" stroke="#000000" points="511.6369,-178.5001 521.6368,-175 511.6368,-171.5001 511.6369,-178.5001"/>
</g>
</g>
</svg>
