<?xml version="1.0" encoding="UTF-8" standalone="no"?>
<!DOCTYPE svg PUBLIC "-//W3C//DTD SVG 1.1//EN"
 "http://www.w3.org/Graphics/SVG/1.1/DTD/svg11.dtd">
<!-- Generated by graphviz version 2.40.1 (20161225.0304)
 -->
<!-- Title: dependencies Pages: 1 -->
<svg width="1478pt" height="211pt"
 viewBox="0.00 0.00 1478.00 211.00" xmlns="http://www.w3.org/2000/svg" xmlns:xlink="http://www.w3.org/1999/xlink">
<g id="graph0" class="graph" transform="scale(1 1) rotate(0) translate(4 207)">
<title>dependencies</title>
<polygon fill="#ffffff" stroke="transparent" points="-4,4 -4,-207 1474,-207 1474,4 -4,4"/>
<text text-anchor="start" x="714.0091" y="-42.4" font-family="sans-serif" font-weight="bold" font-size="14.00" fill="#000000">Legend</text>
<polygon fill="#ffffb3" stroke="transparent" points="501,-10 501,-30 521,-30 521,-10 501,-10"/>
<text text-anchor="start" x="524.629" y="-15.4" font-family="sans-serif" font-size="14.00" fill="#000000"> &#160;Declarations</text>
<polygon fill="#8dd3c7" stroke="transparent" points="614,-10 614,-30 634,-30 634,-10 614,-10"/>
<text text-anchor="start" x="637.7251" y="-15.4" font-family="sans-serif" font-size="14.00" fill="#000000"> &#160;Module</text>
<polygon fill="#80b1d3" stroke="transparent" points="700,-10 700,-30 720,-30 720,-10 700,-10"/>
<text text-anchor="start" x="723.7812" y="-15.4" font-family="sans-serif" font-size="14.00" fill="#000000"> &#160;Bootstrap</text>
<polygon fill="#fdb462" stroke="transparent" points="797,-10 797,-30 817,-30 817,-10 797,-10"/>
<text text-anchor="start" x="820.6732" y="-15.4" font-family="sans-serif" font-size="14.00" fill="#000000"> &#160;Providers</text>
<polygon fill="#fb8072" stroke="transparent" points="893,-10 893,-30 913,-30 913,-10 893,-10"/>
<text text-anchor="start" x="916.7258" y="-15.4" font-family="sans-serif" font-size="14.00" fill="#000000"> &#160;Exports</text>
<g id="clust1" class="cluster">
<title>cluster_ReportModule</title>
<polygon fill="none" stroke="#000000" stroke-dasharray="1,5" points="8,-70 8,-195 1462,-195 1462,-70 8,-70"/>
</g>
<g id="clust2" class="cluster">
<title>cluster_ReportModule_declarations</title>
<polygon fill="none" stroke="#000000" points="680,-78 680,-130 1454,-130 1454,-78 680,-78"/>
</g>
<g id="clust8" class="cluster">
<title>cluster_ReportModule_imports</title>
<polygon fill="none" stroke="#000000" points="16,-78 16,-130 672,-130 672,-78 16,-78"/>
</g>
<!-- ReportPageContainer -->
<g id="node1" class="node">
<title>ReportPageContainer</title>
<polygon fill="#ffffb3" stroke="#000000" points="1446.0226,-122 1309.9774,-122 1309.9774,-86 1446.0226,-86 1446.0226,-122"/>
<text text-anchor="middle" x="1378" y="-99.8" font-family="Times,serif" font-size="14.00" fill="#000000">ReportPageContainer</text>
</g>
<!-- ReportModule -->
<g id="node6" class="node">
<title>ReportModule</title>
<polygon fill="#8dd3c7" stroke="#000000" points="721.6528,-187 718.6528,-191 697.6528,-191 694.6528,-187 624.3472,-187 624.3472,-151 721.6528,-151 721.6528,-187"/>
<text text-anchor="middle" x="673" y="-164.8" font-family="Times,serif" font-size="14.00" fill="#000000">ReportModule</text>
</g>
<!-- ReportPageContainer&#45;&gt;ReportModule -->
<g id="edge1" class="edge">
<title>ReportPageContainer&#45;&gt;ReportModule</title>
<path fill="none" stroke="#000000" d="M1378,-122.0109C1378,-144.4852 1378,-180 1378,-180 1378,-180 731.7357,-180 731.7357,-180"/>
<polygon fill="#000000" stroke="#000000" points="731.7357,-176.5001 721.7357,-180 731.7356,-183.5001 731.7357,-176.5001"/>
</g>
<!-- StockPageComponent -->
<g id="node2" class="node">
<title>StockPageComponent</title>
<polygon fill="#ffffb3" stroke="#000000" points="1292.4327,-122 1151.5673,-122 1151.5673,-86 1292.4327,-86 1292.4327,-122"/>
<text text-anchor="middle" x="1222" y="-99.8" font-family="Times,serif" font-size="14.00" fill="#000000">StockPageComponent</text>
</g>
<!-- StockPageComponent&#45;&gt;ReportModule -->
<g id="edge2" class="edge">
<title>StockPageComponent&#45;&gt;ReportModule</title>
<path fill="none" stroke="#000000" d="M1222,-122.1289C1222,-142.5724 1222,-173 1222,-173 1222,-173 731.7201,-173 731.7201,-173"/>
<polygon fill="#000000" stroke="#000000" points="731.7201,-169.5001 721.7201,-173 731.7201,-176.5001 731.7201,-169.5001"/>
</g>
<!-- StockFilterComponent -->
<g id="node3" class="node">
<title>StockFilterComponent</title>
<polygon fill="#ffffb3" stroke="#000000" points="1133.5505,-122 990.4495,-122 990.4495,-86 1133.5505,-86 1133.5505,-122"/>
<text text-anchor="middle" x="1062" y="-99.8" font-family="Times,serif" font-size="14.00" fill="#000000">StockFilterComponent</text>
</g>
<!-- StockFilterComponent&#45;&gt;ReportModule -->
<g id="edge3" class="edge">
<title>StockFilterComponent&#45;&gt;ReportModule</title>
<path fill="none" stroke="#000000" d="M1062,-122.2667C1062,-140.5552 1062,-166 1062,-166 1062,-166 731.8732,-166 731.8732,-166"/>
<polygon fill="#000000" stroke="#000000" points="731.8733,-162.5001 721.8732,-166 731.8732,-169.5001 731.8733,-162.5001"/>
</g>
<!-- StockListComponent -->
<g id="node4" class="node">
<title>StockListComponent</title>
<polygon fill="#ffffb3" stroke="#000000" points="972.4986,-122 837.5014,-122 837.5014,-86 972.4986,-86 972.4986,-122"/>
<text text-anchor="middle" x="905" y="-99.8" font-family="Times,serif" font-size="14.00" fill="#000000">StockListComponent</text>
</g>
<!-- StockListComponent&#45;&gt;ReportModule -->
<g id="edge4" class="edge">
<title>StockListComponent&#45;&gt;ReportModule</title>
<path fill="none" stroke="#000000" d="M905,-122.0091C905,-138.0494 905,-159 905,-159 905,-159 731.9177,-159 731.9177,-159"/>
<polygon fill="#000000" stroke="#000000" points="731.9178,-155.5001 721.9177,-159 731.9177,-162.5001 731.9178,-155.5001"/>
</g>
<!-- PowerBIComponent -->
<g id="node5" class="node">
<title>PowerBIComponent</title>
<polygon fill="#ffffb3" stroke="#000000" points="819.594,-122 688.406,-122 688.406,-86 819.594,-86 819.594,-122"/>
<text text-anchor="middle" x="754" y="-99.8" font-family="Times,serif" font-size="14.00" fill="#000000">PowerBIComponent</text>
</g>
<!-- PowerBIComponent&#45;&gt;ReportModule -->
<g id="edge5" class="edge">
<title>PowerBIComponent&#45;&gt;ReportModule</title>
<path fill="none" stroke="#000000" d="M705.1396,-122.1061C705.1396,-122.1061 705.1396,-140.991 705.1396,-140.991"/>
<polygon fill="#000000" stroke="#000000" points="701.6396,-140.9909 705.1396,-150.991 708.6396,-140.991 701.6396,-140.9909"/>
</g>
<!-- ReportRoutingModule -->
<g id="node7" class="node">
<title>ReportRoutingModule</title>
<polygon fill="#8dd3c7" stroke="#000000" points="664.2702,-122 661.2702,-126 640.2702,-126 637.2702,-122 521.7298,-122 521.7298,-86 664.2702,-86 664.2702,-122"/>
<text text-anchor="middle" x="593" y="-99.8" font-family="Times,serif" font-size="14.00" fill="#000000">ReportRoutingModule</text>
</g>
<!-- ReportRoutingModule&#45;&gt;ReportModule -->
<g id="edge6" class="edge">
<title>ReportRoutingModule&#45;&gt;ReportModule</title>
<path fill="none" stroke="#000000" d="M644.2795,-122.1061C644.2795,-122.1061 644.2795,-140.991 644.2795,-140.991"/>
<polygon fill="#000000" stroke="#000000" points="640.7795,-140.9909 644.2795,-150.991 647.7795,-140.991 640.7795,-140.9909"/>
</g>
<!-- AngularMaterialModule -->
<g id="node8" class="node">
<title>AngularMaterialModule</title>
<polygon fill="#8dd3c7" stroke="#000000" points="503.3431,-122 500.3431,-126 479.3431,-126 476.3431,-122 350.6569,-122 350.6569,-86 503.3431,-86 503.3431,-122"/>
<text text-anchor="middle" x="427" y="-99.8" font-family="Times,serif" font-size="14.00" fill="#000000">AngularMaterialModule</text>
</g>
<!-- AngularMaterialModule&#45;&gt;ReportModule -->
<g id="edge7" class="edge">
<title>AngularMaterialModule&#45;&gt;ReportModule</title>
<path fill="none" stroke="#000000" d="M427,-122.0091C427,-138.0494 427,-159 427,-159 427,-159 614.1042,-159 614.1042,-159"/>
<polygon fill="#000000" stroke="#000000" points="614.1042,-162.5001 624.1042,-159 614.1042,-155.5001 614.1042,-162.5001"/>
</g>
<!-- SharedModule -->
<g id="node9" class="node">
<title>SharedModule</title>
<polygon fill="#8dd3c7" stroke="#000000" points="332.4231,-122 329.4231,-126 308.4231,-126 305.4231,-122 233.5769,-122 233.5769,-86 332.4231,-86 332.4231,-122"/>
<text text-anchor="middle" x="283" y="-99.8" font-family="Times,serif" font-size="14.00" fill="#000000">SharedModule</text>
</g>
<!-- SharedModule&#45;&gt;ReportModule -->
<g id="edge8" class="edge">
<title>SharedModule&#45;&gt;ReportModule</title>
<path fill="none" stroke="#000000" d="M283,-122.2667C283,-140.5552 283,-166 283,-166 283,-166 614.0011,-166 614.0011,-166"/>
<polygon fill="#000000" stroke="#000000" points="614.0012,-169.5001 624.0011,-166 614.0011,-162.5001 614.0012,-169.5001"/>
</g>
<!-- CoreModule -->
<g id="node10" class="node">
<title>CoreModule</title>
<polygon fill="#8dd3c7" stroke="#000000" points="215.2619,-122 212.2619,-126 191.2619,-126 188.2619,-122 128.7381,-122 128.7381,-86 215.2619,-86 215.2619,-122"/>
<text text-anchor="middle" x="172" y="-99.8" font-family="Times,serif" font-size="14.00" fill="#000000">CoreModule</text>
</g>
<!-- CoreModule&#45;&gt;ReportModule -->
<g id="edge9" class="edge">
<title>CoreModule&#45;&gt;ReportModule</title>
<path fill="none" stroke="#000000" d="M172,-122.1289C172,-142.5724 172,-173 172,-173 172,-173 614.0498,-173 614.0498,-173"/>
<polygon fill="#000000" stroke="#000000" points="614.0498,-176.5001 624.0498,-173 614.0498,-169.5001 614.0498,-176.5001"/>
</g>
<!-- AdalModule -->
<g id="node11" class="node">
<title>AdalModule</title>
<polygon fill="#8dd3c7" stroke="#000000" points="110.2619,-122 107.2619,-126 86.2619,-126 83.2619,-122 23.7381,-122 23.7381,-86 110.2619,-86 110.2619,-122"/>
<text text-anchor="middle" x="67" y="-99.8" font-family="Times,serif" font-size="14.00" fill="#000000">AdalModule</text>
</g>
<!-- AdalModule&#45;&gt;ReportModule -->
<g id="edge10" class="edge">
<title>AdalModule&#45;&gt;ReportModule</title>
<path fill="none" stroke="#000000" d="M67,-122.0109C67,-144.4852 67,-180 67,-180 67,-180 614.1776,-180 614.1776,-180"/>
<polygon fill="#000000" stroke="#000000" points="614.1776,-183.5001 624.1776,-180 614.1776,-176.5001 614.1776,-183.5001"/>
</g>
</g>
</svg>
