<?xml version="1.0" encoding="UTF-8" standalone="no"?>
<!DOCTYPE svg PUBLIC "-//W3C//DTD SVG 1.1//EN"
 "http://www.w3.org/Graphics/SVG/1.1/DTD/svg11.dtd">
<!-- Generated by graphviz version 2.40.1 (20161225.0304)
 -->
<!-- Title: dependencies Pages: 1 -->
<svg width="2725pt" height="211pt"
 viewBox="0.00 0.00 2725.00 211.00" xmlns="http://www.w3.org/2000/svg" xmlns:xlink="http://www.w3.org/1999/xlink">
<g id="graph0" class="graph" transform="scale(1 1) rotate(0) translate(4 207)">
<title>dependencies</title>
<polygon fill="#ffffff" stroke="transparent" points="-4,4 -4,-207 2721,-207 2721,4 -4,4"/>
<text text-anchor="start" x="1337.5091" y="-42.4" font-family="sans-serif" font-weight="bold" font-size="14.00" fill="#000000">Legend</text>
<polygon fill="#ffffb3" stroke="transparent" points="1124.5,-10 1124.5,-30 1144.5,-30 1144.5,-10 1124.5,-10"/>
<text text-anchor="start" x="1148.129" y="-15.4" font-family="sans-serif" font-size="14.00" fill="#000000"> &#160;Declarations</text>
<polygon fill="#8dd3c7" stroke="transparent" points="1237.5,-10 1237.5,-30 1257.5,-30 1257.5,-10 1237.5,-10"/>
<text text-anchor="start" x="1261.2251" y="-15.4" font-family="sans-serif" font-size="14.00" fill="#000000"> &#160;Module</text>
<polygon fill="#80b1d3" stroke="transparent" points="1323.5,-10 1323.5,-30 1343.5,-30 1343.5,-10 1323.5,-10"/>
<text text-anchor="start" x="1347.2812" y="-15.4" font-family="sans-serif" font-size="14.00" fill="#000000"> &#160;Bootstrap</text>
<polygon fill="#fdb462" stroke="transparent" points="1420.5,-10 1420.5,-30 1440.5,-30 1440.5,-10 1420.5,-10"/>
<text text-anchor="start" x="1444.1732" y="-15.4" font-family="sans-serif" font-size="14.00" fill="#000000"> &#160;Providers</text>
<polygon fill="#fb8072" stroke="transparent" points="1516.5,-10 1516.5,-30 1536.5,-30 1536.5,-10 1516.5,-10"/>
<text text-anchor="start" x="1540.2258" y="-15.4" font-family="sans-serif" font-size="14.00" fill="#000000"> &#160;Exports</text>
<g id="clust1" class="cluster">
<title>cluster_RelocationModule</title>
<polygon fill="none" stroke="#000000" stroke-dasharray="1,5" points="8,-70 8,-195 2709,-195 2709,-70 8,-70"/>
</g>
<g id="clust2" class="cluster">
<title>cluster_RelocationModule_declarations</title>
<polygon fill="none" stroke="#000000" points="827,-78 827,-130 2701,-130 2701,-78 827,-78"/>
</g>
<g id="clust12" class="cluster">
<title>cluster_RelocationModule_imports</title>
<polygon fill="none" stroke="#000000" points="16,-78 16,-130 819,-130 819,-78 16,-78"/>
</g>
<!-- RelocationEditContainer -->
<g id="node1" class="node">
<title>RelocationEditContainer</title>
<polygon fill="#ffffb3" stroke="#000000" points="2692.6937,-122 2537.3063,-122 2537.3063,-86 2692.6937,-86 2692.6937,-122"/>
<text text-anchor="middle" x="2615" y="-99.8" font-family="Times,serif" font-size="14.00" fill="#000000">RelocationEditContainer</text>
</g>
<!-- RelocationModule -->
<g id="node10" class="node">
<title>RelocationModule</title>
<polygon fill="#8dd3c7" stroke="#000000" points="1163.2022,-187 1160.2022,-191 1139.2022,-191 1136.2022,-187 1042.7978,-187 1042.7978,-151 1163.2022,-151 1163.2022,-187"/>
<text text-anchor="middle" x="1103" y="-164.8" font-family="Times,serif" font-size="14.00" fill="#000000">RelocationModule</text>
</g>
<!-- RelocationEditContainer&#45;&gt;RelocationModule -->
<g id="edge1" class="edge">
<title>RelocationEditContainer&#45;&gt;RelocationModule</title>
<path fill="none" stroke="#000000" d="M2615,-122.3228C2615,-145.6602 2615,-183 2615,-183 2615,-183 1173.2052,-183 1173.2052,-183"/>
<polygon fill="#000000" stroke="#000000" points="1173.2053,-179.5001 1163.2052,-183 1173.2052,-186.5001 1173.2053,-179.5001"/>
</g>
<!-- RelocationEditDeliveryComponent -->
<g id="node2" class="node">
<title>RelocationEditDeliveryComponent</title>
<polygon fill="#ffffb3" stroke="#000000" points="2519.2962,-122 2304.7038,-122 2304.7038,-86 2519.2962,-86 2519.2962,-122"/>
<text text-anchor="middle" x="2412" y="-99.8" font-family="Times,serif" font-size="14.00" fill="#000000">RelocationEditDeliveryComponent</text>
</g>
<!-- RelocationEditDeliveryComponent&#45;&gt;RelocationModule -->
<g id="edge2" class="edge">
<title>RelocationEditDeliveryComponent&#45;&gt;RelocationModule</title>
<path fill="none" stroke="#000000" d="M2412,-122.2921C2412,-144.2057 2412,-178 2412,-178 2412,-178 1173.5105,-178 1173.5105,-178"/>
<polygon fill="#000000" stroke="#000000" points="1173.5105,-174.5001 1163.5105,-178 1173.5105,-181.5001 1173.5105,-174.5001"/>
</g>
<!-- RelocationEditDetailComponent -->
<g id="node3" class="node">
<title>RelocationEditDetailComponent</title>
<polygon fill="#ffffb3" stroke="#000000" points="2286.5266,-122 2087.4734,-122 2087.4734,-86 2286.5266,-86 2286.5266,-122"/>
<text text-anchor="middle" x="2187" y="-99.8" font-family="Times,serif" font-size="14.00" fill="#000000">RelocationEditDetailComponent</text>
</g>
<!-- RelocationEditDetailComponent&#45;&gt;RelocationModule -->
<g id="edge3" class="edge">
<title>RelocationEditDetailComponent&#45;&gt;RelocationModule</title>
<path fill="none" stroke="#000000" d="M2187,-122.0267C2187,-142.7672 2187,-174 2187,-174 2187,-174 1173.2134,-174 1173.2134,-174"/>
<polygon fill="#000000" stroke="#000000" points="1173.2134,-170.5001 1163.2134,-174 1173.2134,-177.5001 1173.2134,-170.5001"/>
</g>
<!-- RelocationEditPlanningComponent -->
<g id="node4" class="node">
<title>RelocationEditPlanningComponent</title>
<polygon fill="#ffffb3" stroke="#000000" points="2069.5968,-122 1854.4032,-122 1854.4032,-86 2069.5968,-86 2069.5968,-122"/>
<text text-anchor="middle" x="1962" y="-99.8" font-family="Times,serif" font-size="14.00" fill="#000000">RelocationEditPlanningComponent</text>
</g>
<!-- RelocationEditPlanningComponent&#45;&gt;RelocationModule -->
<g id="edge4" class="edge">
<title>RelocationEditPlanningComponent&#45;&gt;RelocationModule</title>
<path fill="none" stroke="#000000" d="M1962,-122.1061C1962,-141.3391 1962,-169 1962,-169 1962,-169 1173.4032,-169 1173.4032,-169"/>
<polygon fill="#000000" stroke="#000000" points="1173.4032,-165.5001 1163.4032,-169 1173.4032,-172.5001 1173.4032,-165.5001"/>
</g>
<!-- RelocationEditMaterialComponent -->
<g id="node5" class="node">
<title>RelocationEditMaterialComponent</title>
<polygon fill="#ffffb3" stroke="#000000" points="1836.2394,-122 1623.7606,-122 1623.7606,-86 1836.2394,-86 1836.2394,-122"/>
<text text-anchor="middle" x="1730" y="-99.8" font-family="Times,serif" font-size="14.00" fill="#000000">RelocationEditMaterialComponent</text>
</g>
<!-- RelocationEditMaterialComponent&#45;&gt;RelocationModule -->
<g id="edge5" class="edge">
<title>RelocationEditMaterialComponent&#45;&gt;RelocationModule</title>
<path fill="none" stroke="#000000" d="M1730,-122.302C1730,-140.2699 1730,-165 1730,-165 1730,-165 1173.1194,-165 1173.1194,-165"/>
<polygon fill="#000000" stroke="#000000" points="1173.1194,-161.5001 1163.1194,-165 1173.1194,-168.5001 1173.1194,-161.5001"/>
</g>
<!-- RelocationMaterialLinesComponent -->
<g id="node6" class="node">
<title>RelocationMaterialLinesComponent</title>
<polygon fill="#ffffb3" stroke="#000000" points="1605.0083,-122 1384.9917,-122 1384.9917,-86 1605.0083,-86 1605.0083,-122"/>
<text text-anchor="middle" x="1495" y="-99.8" font-family="Times,serif" font-size="14.00" fill="#000000">RelocationMaterialLinesComponent</text>
</g>
<!-- RelocationMaterialLinesComponent&#45;&gt;RelocationModule -->
<g id="edge6" class="edge">
<title>RelocationMaterialLinesComponent&#45;&gt;RelocationModule</title>
<path fill="none" stroke="#000000" d="M1495,-122.027C1495,-138.3976 1495,-160 1495,-160 1495,-160 1173.3909,-160 1173.3909,-160"/>
<polygon fill="#000000" stroke="#000000" points="1173.391,-156.5001 1163.3909,-160 1173.3909,-163.5001 1173.391,-156.5001"/>
</g>
<!-- RelocationPageContainer -->
<g id="node7" class="node">
<title>RelocationPageContainer</title>
<polygon fill="#ffffb3" stroke="#000000" points="1366.5716,-122 1207.4284,-122 1207.4284,-86 1366.5716,-86 1366.5716,-122"/>
<text text-anchor="middle" x="1287" y="-99.8" font-family="Times,serif" font-size="14.00" fill="#000000">RelocationPageContainer</text>
</g>
<!-- RelocationPageContainer&#45;&gt;RelocationModule -->
<g id="edge7" class="edge">
<title>RelocationPageContainer&#45;&gt;RelocationModule</title>
<path fill="none" stroke="#000000" d="M1287,-122.1871C1287,-137.1824 1287,-156 1287,-156 1287,-156 1173.2485,-156 1173.2485,-156"/>
<polygon fill="#000000" stroke="#000000" points="1173.2485,-152.5001 1163.2485,-156 1173.2484,-159.5001 1173.2485,-152.5001"/>
</g>
<!-- RelocationFilterComponent -->
<g id="node8" class="node">
<title>RelocationFilterComponent</title>
<polygon fill="#ffffb3" stroke="#000000" points="1189.3145,-122 1016.6855,-122 1016.6855,-86 1189.3145,-86 1189.3145,-122"/>
<text text-anchor="middle" x="1103" y="-99.8" font-family="Times,serif" font-size="14.00" fill="#000000">RelocationFilterComponent</text>
</g>
<!-- RelocationFilterComponent&#45;&gt;RelocationModule -->
<g id="edge8" class="edge">
<title>RelocationFilterComponent&#45;&gt;RelocationModule</title>
<path fill="none" stroke="#000000" d="M1103,-122.1061C1103,-122.1061 1103,-140.991 1103,-140.991"/>
<polygon fill="#000000" stroke="#000000" points="1099.5001,-140.9909 1103,-150.991 1106.5001,-140.991 1099.5001,-140.9909"/>
</g>
<!-- RelocationListComponent -->
<g id="node9" class="node">
<title>RelocationListComponent</title>
<polygon fill="#ffffb3" stroke="#000000" points="998.7632,-122 835.2368,-122 835.2368,-86 998.7632,-86 998.7632,-122"/>
<text text-anchor="middle" x="917" y="-99.8" font-family="Times,serif" font-size="14.00" fill="#000000">RelocationListComponent</text>
</g>
<!-- RelocationListComponent&#45;&gt;RelocationModule -->
<g id="edge9" class="edge">
<title>RelocationListComponent&#45;&gt;RelocationModule</title>
<path fill="none" stroke="#000000" d="M917,-122.1871C917,-137.1824 917,-156 917,-156 917,-156 1032.868,-156 1032.868,-156"/>
<polygon fill="#000000" stroke="#000000" points="1032.868,-159.5001 1042.868,-156 1032.868,-152.5001 1032.868,-159.5001"/>
</g>
<!-- FlordersModule -->
<g id="node11" class="node">
<title>FlordersModule</title>
<polygon fill="#8dd3c7" stroke="#000000" points="811.2036,-122 808.2036,-126 787.2036,-126 784.2036,-122 704.7964,-122 704.7964,-86 811.2036,-86 811.2036,-122"/>
<text text-anchor="middle" x="758" y="-99.8" font-family="Times,serif" font-size="14.00" fill="#000000">FlordersModule</text>
</g>
<!-- FlordersModule&#45;&gt;RelocationModule -->
<g id="edge10" class="edge">
<title>FlordersModule&#45;&gt;RelocationModule</title>
<path fill="none" stroke="#000000" d="M758,-122.027C758,-138.3976 758,-160 758,-160 758,-160 1032.5108,-160 1032.5108,-160"/>
<polygon fill="#000000" stroke="#000000" points="1032.5108,-163.5001 1042.5108,-160 1032.5108,-156.5001 1032.5108,-163.5001"/>
</g>
<!-- RelocationRoutingModule -->
<g id="node12" class="node">
<title>RelocationRoutingModule</title>
<polygon fill="#8dd3c7" stroke="#000000" points="686.8201,-122 683.8201,-126 662.8201,-126 659.8201,-122 521.1799,-122 521.1799,-86 686.8201,-86 686.8201,-122"/>
<text text-anchor="middle" x="604" y="-99.8" font-family="Times,serif" font-size="14.00" fill="#000000">RelocationRoutingModule</text>
</g>
<!-- RelocationRoutingModule&#45;&gt;RelocationModule -->
<g id="edge11" class="edge">
<title>RelocationRoutingModule&#45;&gt;RelocationModule</title>
<path fill="none" stroke="#000000" d="M604,-122.302C604,-140.2699 604,-165 604,-165 604,-165 1032.8089,-165 1032.8089,-165"/>
<polygon fill="#000000" stroke="#000000" points="1032.809,-168.5001 1042.8089,-165 1032.8089,-161.5001 1032.809,-168.5001"/>
</g>
<!-- AngularMaterialModule -->
<g id="node13" class="node">
<title>AngularMaterialModule</title>
<polygon fill="#8dd3c7" stroke="#000000" points="503.3431,-122 500.3431,-126 479.3431,-126 476.3431,-122 350.6569,-122 350.6569,-86 503.3431,-86 503.3431,-122"/>
<text text-anchor="middle" x="427" y="-99.8" font-family="Times,serif" font-size="14.00" fill="#000000">AngularMaterialModule</text>
</g>
<!-- AngularMaterialModule&#45;&gt;RelocationModule -->
<g id="edge12" class="edge">
<title>AngularMaterialModule&#45;&gt;RelocationModule</title>
<path fill="none" stroke="#000000" d="M427,-122.1061C427,-141.3391 427,-169 427,-169 427,-169 1032.7124,-169 1032.7124,-169"/>
<polygon fill="#000000" stroke="#000000" points="1032.7124,-172.5001 1042.7124,-169 1032.7123,-165.5001 1032.7124,-172.5001"/>
</g>
<!-- SharedModule -->
<g id="node14" class="node">
<title>SharedModule</title>
<polygon fill="#8dd3c7" stroke="#000000" points="332.4231,-122 329.4231,-126 308.4231,-126 305.4231,-122 233.5769,-122 233.5769,-86 332.4231,-86 332.4231,-122"/>
<text text-anchor="middle" x="283" y="-99.8" font-family="Times,serif" font-size="14.00" fill="#000000">SharedModule</text>
</g>
<!-- SharedModule&#45;&gt;RelocationModule -->
<g id="edge13" class="edge">
<title>SharedModule&#45;&gt;RelocationModule</title>
<path fill="none" stroke="#000000" d="M283,-122.0267C283,-142.7672 283,-174 283,-174 283,-174 1032.7034,-174 1032.7034,-174"/>
<polygon fill="#000000" stroke="#000000" points="1032.7035,-177.5001 1042.7034,-174 1032.7034,-170.5001 1032.7035,-177.5001"/>
</g>
<!-- CoreModule -->
<g id="node15" class="node">
<title>CoreModule</title>
<polygon fill="#8dd3c7" stroke="#000000" points="215.2619,-122 212.2619,-126 191.2619,-126 188.2619,-122 128.7381,-122 128.7381,-86 215.2619,-86 215.2619,-122"/>
<text text-anchor="middle" x="172" y="-99.8" font-family="Times,serif" font-size="14.00" fill="#000000">CoreModule</text>
</g>
<!-- CoreModule&#45;&gt;RelocationModule -->
<g id="edge14" class="edge">
<title>CoreModule&#45;&gt;RelocationModule</title>
<path fill="none" stroke="#000000" d="M172,-122.2921C172,-144.2057 172,-178 172,-178 172,-178 1032.6318,-178 1032.6318,-178"/>
<polygon fill="#000000" stroke="#000000" points="1032.6319,-181.5001 1042.6318,-178 1032.6318,-174.5001 1032.6319,-181.5001"/>
</g>
<!-- AdalModule -->
<g id="node16" class="node">
<title>AdalModule</title>
<polygon fill="#8dd3c7" stroke="#000000" points="110.2619,-122 107.2619,-126 86.2619,-126 83.2619,-122 23.7381,-122 23.7381,-86 110.2619,-86 110.2619,-122"/>
<text text-anchor="middle" x="67" y="-99.8" font-family="Times,serif" font-size="14.00" fill="#000000">AdalModule</text>
</g>
<!-- AdalModule&#45;&gt;RelocationModule -->
<g id="edge15" class="edge">
<title>AdalModule&#45;&gt;RelocationModule</title>
<path fill="none" stroke="#000000" d="M67,-122.3228C67,-145.6602 67,-183 67,-183 67,-183 1032.8223,-183 1032.8223,-183"/>
<polygon fill="#000000" stroke="#000000" points="1032.8223,-186.5001 1042.8223,-183 1032.8223,-179.5001 1032.8223,-186.5001"/>
</g>
</g>
</svg>
