<?xml version="1.0" encoding="UTF-8" standalone="no"?>
<!DOCTYPE svg PUBLIC "-//W3C//DTD SVG 1.1//EN"
 "http://www.w3.org/Graphics/SVG/1.1/DTD/svg11.dtd">
<!-- Generated by graphviz version 2.40.1 (20161225.0304)
 -->
<!-- Title: dependencies Pages: 1 -->
<svg width="1945pt" height="211pt"
 viewBox="0.00 0.00 1945.00 211.00" xmlns="http://www.w3.org/2000/svg" xmlns:xlink="http://www.w3.org/1999/xlink">
<g id="graph0" class="graph" transform="scale(1 1) rotate(0) translate(4 207)">
<title>dependencies</title>
<polygon fill="#ffffff" stroke="transparent" points="-4,4 -4,-207 1941,-207 1941,4 -4,4"/>
<text text-anchor="start" x="947.5091" y="-42.4" font-family="sans-serif" font-weight="bold" font-size="14.00" fill="#000000">Legend</text>
<polygon fill="#ffffb3" stroke="transparent" points="734.5,-10 734.5,-30 754.5,-30 754.5,-10 734.5,-10"/>
<text text-anchor="start" x="758.129" y="-15.4" font-family="sans-serif" font-size="14.00" fill="#000000"> &#160;Declarations</text>
<polygon fill="#8dd3c7" stroke="transparent" points="847.5,-10 847.5,-30 867.5,-30 867.5,-10 847.5,-10"/>
<text text-anchor="start" x="871.2251" y="-15.4" font-family="sans-serif" font-size="14.00" fill="#000000"> &#160;Module</text>
<polygon fill="#80b1d3" stroke="transparent" points="933.5,-10 933.5,-30 953.5,-30 953.5,-10 933.5,-10"/>
<text text-anchor="start" x="957.2812" y="-15.4" font-family="sans-serif" font-size="14.00" fill="#000000"> &#160;Bootstrap</text>
<polygon fill="#fdb462" stroke="transparent" points="1030.5,-10 1030.5,-30 1050.5,-30 1050.5,-10 1030.5,-10"/>
<text text-anchor="start" x="1054.1732" y="-15.4" font-family="sans-serif" font-size="14.00" fill="#000000"> &#160;Providers</text>
<polygon fill="#fb8072" stroke="transparent" points="1126.5,-10 1126.5,-30 1146.5,-30 1146.5,-10 1126.5,-10"/>
<text text-anchor="start" x="1150.2258" y="-15.4" font-family="sans-serif" font-size="14.00" fill="#000000"> &#160;Exports</text>
<g id="clust1" class="cluster">
<title>cluster_CCRModule</title>
<polygon fill="none" stroke="#000000" stroke-dasharray="1,5" points="8,-70 8,-195 1929,-195 1929,-70 8,-70"/>
</g>
<g id="clust2" class="cluster">
<title>cluster_CCRModule_declarations</title>
<polygon fill="none" stroke="#000000" points="794,-78 794,-130 1921,-130 1921,-78 794,-78"/>
</g>
<g id="clust9" class="cluster">
<title>cluster_CCRModule_imports</title>
<polygon fill="none" stroke="#000000" points="16,-78 16,-130 786,-130 786,-78 16,-78"/>
</g>
<!-- CCREditDeliveryComponent -->
<g id="node1" class="node">
<title>CCREditDeliveryComponent</title>
<polygon fill="#ffffb3" stroke="#000000" points="1912.6539,-122 1731.3461,-122 1731.3461,-86 1912.6539,-86 1912.6539,-122"/>
<text text-anchor="middle" x="1822" y="-99.8" font-family="Times,serif" font-size="14.00" fill="#000000">CCREditDeliveryComponent</text>
</g>
<!-- CCRModule -->
<g id="node7" class="node">
<title>CCRModule</title>
<polygon fill="#8dd3c7" stroke="#000000" points="837.5607,-187 834.5607,-191 813.5607,-191 810.5607,-187 750.4393,-187 750.4393,-151 837.5607,-151 837.5607,-187"/>
<text text-anchor="middle" x="794" y="-164.8" font-family="Times,serif" font-size="14.00" fill="#000000">CCRModule</text>
</g>
<!-- CCREditDeliveryComponent&#45;&gt;CCRModule -->
<g id="edge1" class="edge">
<title>CCREditDeliveryComponent&#45;&gt;CCRModule</title>
<path fill="none" stroke="#000000" d="M1822,-122.0908C1822,-145.1328 1822,-182 1822,-182 1822,-182 847.843,-182 847.843,-182"/>
<polygon fill="#000000" stroke="#000000" points="847.8431,-178.5001 837.843,-182 847.843,-185.5001 847.8431,-178.5001"/>
</g>
<!-- CCREditDetailComponent -->
<g id="node2" class="node">
<title>CCREditDetailComponent</title>
<polygon fill="#ffffb3" stroke="#000000" points="1713.3836,-122 1546.6164,-122 1546.6164,-86 1713.3836,-86 1713.3836,-122"/>
<text text-anchor="middle" x="1630" y="-99.8" font-family="Times,serif" font-size="14.00" fill="#000000">CCREditDetailComponent</text>
</g>
<!-- CCREditDetailComponent&#45;&gt;CCRModule -->
<g id="edge2" class="edge">
<title>CCREditDetailComponent&#45;&gt;CCRModule</title>
<path fill="none" stroke="#000000" d="M1630,-122.2843C1630,-143.3211 1630,-175 1630,-175 1630,-175 847.7699,-175 847.7699,-175"/>
<polygon fill="#000000" stroke="#000000" points="847.77,-171.5001 837.7699,-175 847.7699,-178.5001 847.77,-171.5001"/>
</g>
<!-- CCREditPlanningComponent -->
<g id="node3" class="node">
<title>CCREditPlanningComponent</title>
<polygon fill="#ffffb3" stroke="#000000" points="1528.455,-122 1345.545,-122 1345.545,-86 1528.455,-86 1528.455,-122"/>
<text text-anchor="middle" x="1437" y="-99.8" font-family="Times,serif" font-size="14.00" fill="#000000">CCREditPlanningComponent</text>
</g>
<!-- CCREditPlanningComponent&#45;&gt;CCRModule -->
<g id="edge3" class="edge">
<title>CCREditPlanningComponent&#45;&gt;CCRModule</title>
<path fill="none" stroke="#000000" d="M1437,-122.1061C1437,-141.3391 1437,-169 1437,-169 1437,-169 847.6905,-169 847.6905,-169"/>
<polygon fill="#000000" stroke="#000000" points="847.6905,-165.5001 837.6905,-169 847.6904,-172.5001 847.6905,-165.5001"/>
</g>
<!-- CCREditMaterialComponent -->
<g id="node4" class="node">
<title>CCREditMaterialComponent</title>
<polygon fill="#ffffb3" stroke="#000000" points="1328.0968,-122 1147.9032,-122 1147.9032,-86 1328.0968,-86 1328.0968,-122"/>
<text text-anchor="middle" x="1238" y="-99.8" font-family="Times,serif" font-size="14.00" fill="#000000">CCREditMaterialComponent</text>
</g>
<!-- CCREditMaterialComponent&#45;&gt;CCRModule -->
<g id="edge4" class="edge">
<title>CCREditMaterialComponent&#45;&gt;CCRModule</title>
<path fill="none" stroke="#000000" d="M1238,-122.0225C1238,-139.3734 1238,-163 1238,-163 1238,-163 847.7876,-163 847.7876,-163"/>
<polygon fill="#000000" stroke="#000000" points="847.7876,-159.5001 837.7876,-163 847.7875,-166.5001 847.7876,-159.5001"/>
</g>
<!-- CCRMaterialLinesComponent -->
<g id="node5" class="node">
<title>CCRMaterialLinesComponent</title>
<polygon fill="#ffffb3" stroke="#000000" points="1129.8654,-122 942.1346,-122 942.1346,-86 1129.8654,-86 1129.8654,-122"/>
<text text-anchor="middle" x="1036" y="-99.8" font-family="Times,serif" font-size="14.00" fill="#000000">CCRMaterialLinesComponent</text>
</g>
<!-- CCRMaterialLinesComponent&#45;&gt;CCRModule -->
<g id="edge5" class="edge">
<title>CCRMaterialLinesComponent&#45;&gt;CCRModule</title>
<path fill="none" stroke="#000000" d="M1036,-122.2396C1036,-137.5706 1036,-157 1036,-157 1036,-157 847.8244,-157 847.8244,-157"/>
<polygon fill="#000000" stroke="#000000" points="847.8244,-153.5001 837.8244,-157 847.8243,-160.5001 847.8244,-153.5001"/>
</g>
<!-- CCREditContainer -->
<g id="node6" class="node">
<title>CCREditContainer</title>
<polygon fill="#ffffb3" stroke="#000000" points="924.052,-122 801.948,-122 801.948,-86 924.052,-86 924.052,-122"/>
<text text-anchor="middle" x="863" y="-99.8" font-family="Times,serif" font-size="14.00" fill="#000000">CCREditContainer</text>
</g>
<!-- CCREditContainer&#45;&gt;CCRModule -->
<g id="edge6" class="edge">
<title>CCREditContainer&#45;&gt;CCRModule</title>
<path fill="none" stroke="#000000" d="M819.7521,-122.1061C819.7521,-122.1061 819.7521,-140.991 819.7521,-140.991"/>
<polygon fill="#000000" stroke="#000000" points="816.2522,-140.9909 819.7521,-150.991 823.2522,-140.991 816.2522,-140.9909"/>
</g>
<!-- FlordersModule -->
<g id="node8" class="node">
<title>FlordersModule</title>
<polygon fill="#8dd3c7" stroke="#000000" points="778.2036,-122 775.2036,-126 754.2036,-126 751.2036,-122 671.7964,-122 671.7964,-86 778.2036,-86 778.2036,-122"/>
<text text-anchor="middle" x="725" y="-99.8" font-family="Times,serif" font-size="14.00" fill="#000000">FlordersModule</text>
</g>
<!-- FlordersModule&#45;&gt;CCRModule -->
<g id="edge7" class="edge">
<title>FlordersModule&#45;&gt;CCRModule</title>
<path fill="none" stroke="#000000" d="M764.161,-122.1061C764.161,-122.1061 764.161,-140.991 764.161,-140.991"/>
<polygon fill="#000000" stroke="#000000" points="760.661,-140.9909 764.161,-150.991 767.661,-140.991 760.661,-140.9909"/>
</g>
<!-- CCRRoutingModule -->
<g id="node9" class="node">
<title>CCRRoutingModule</title>
<polygon fill="#8dd3c7" stroke="#000000" points="654.1778,-122 651.1778,-126 630.1778,-126 627.1778,-122 521.8222,-122 521.8222,-86 654.1778,-86 654.1778,-122"/>
<text text-anchor="middle" x="588" y="-99.8" font-family="Times,serif" font-size="14.00" fill="#000000">CCRRoutingModule</text>
</g>
<!-- CCRRoutingModule&#45;&gt;CCRModule -->
<g id="edge8" class="edge">
<title>CCRRoutingModule&#45;&gt;CCRModule</title>
<path fill="none" stroke="#000000" d="M588,-122.2396C588,-137.5706 588,-157 588,-157 588,-157 740.3127,-157 740.3127,-157"/>
<polygon fill="#000000" stroke="#000000" points="740.3127,-160.5001 750.3127,-157 740.3127,-153.5001 740.3127,-160.5001"/>
</g>
<!-- AngularMaterialModule -->
<g id="node10" class="node">
<title>AngularMaterialModule</title>
<polygon fill="#8dd3c7" stroke="#000000" points="503.3431,-122 500.3431,-126 479.3431,-126 476.3431,-122 350.6569,-122 350.6569,-86 503.3431,-86 503.3431,-122"/>
<text text-anchor="middle" x="427" y="-99.8" font-family="Times,serif" font-size="14.00" fill="#000000">AngularMaterialModule</text>
</g>
<!-- AngularMaterialModule&#45;&gt;CCRModule -->
<g id="edge9" class="edge">
<title>AngularMaterialModule&#45;&gt;CCRModule</title>
<path fill="none" stroke="#000000" d="M427,-122.0225C427,-139.3734 427,-163 427,-163 427,-163 740.0958,-163 740.0958,-163"/>
<polygon fill="#000000" stroke="#000000" points="740.0958,-166.5001 750.0958,-163 740.0957,-159.5001 740.0958,-166.5001"/>
</g>
<!-- SharedModule -->
<g id="node11" class="node">
<title>SharedModule</title>
<polygon fill="#8dd3c7" stroke="#000000" points="332.4231,-122 329.4231,-126 308.4231,-126 305.4231,-122 233.5769,-122 233.5769,-86 332.4231,-86 332.4231,-122"/>
<text text-anchor="middle" x="283" y="-99.8" font-family="Times,serif" font-size="14.00" fill="#000000">SharedModule</text>
</g>
<!-- SharedModule&#45;&gt;CCRModule -->
<g id="edge10" class="edge">
<title>SharedModule&#45;&gt;CCRModule</title>
<path fill="none" stroke="#000000" d="M283,-122.1061C283,-141.3391 283,-169 283,-169 283,-169 740.4324,-169 740.4324,-169"/>
<polygon fill="#000000" stroke="#000000" points="740.4325,-172.5001 750.4324,-169 740.4324,-165.5001 740.4325,-172.5001"/>
</g>
<!-- CoreModule -->
<g id="node12" class="node">
<title>CoreModule</title>
<polygon fill="#8dd3c7" stroke="#000000" points="215.2619,-122 212.2619,-126 191.2619,-126 188.2619,-122 128.7381,-122 128.7381,-86 215.2619,-86 215.2619,-122"/>
<text text-anchor="middle" x="172" y="-99.8" font-family="Times,serif" font-size="14.00" fill="#000000">CoreModule</text>
</g>
<!-- CoreModule&#45;&gt;CCRModule -->
<g id="edge11" class="edge">
<title>CoreModule&#45;&gt;CCRModule</title>
<path fill="none" stroke="#000000" d="M172,-122.2843C172,-143.3211 172,-175 172,-175 172,-175 740.2622,-175 740.2622,-175"/>
<polygon fill="#000000" stroke="#000000" points="740.2622,-178.5001 750.2622,-175 740.2621,-171.5001 740.2622,-178.5001"/>
</g>
<!-- AdalModule -->
<g id="node13" class="node">
<title>AdalModule</title>
<polygon fill="#8dd3c7" stroke="#000000" points="110.2619,-122 107.2619,-126 86.2619,-126 83.2619,-122 23.7381,-122 23.7381,-86 110.2619,-86 110.2619,-122"/>
<text text-anchor="middle" x="67" y="-99.8" font-family="Times,serif" font-size="14.00" fill="#000000">AdalModule</text>
</g>
<!-- AdalModule&#45;&gt;CCRModule -->
<g id="edge12" class="edge">
<title>AdalModule&#45;&gt;CCRModule</title>
<path fill="none" stroke="#000000" d="M67,-122.0908C67,-145.1328 67,-182 67,-182 67,-182 740.4304,-182 740.4304,-182"/>
<polygon fill="#000000" stroke="#000000" points="740.4305,-185.5001 750.4304,-182 740.4304,-178.5001 740.4305,-185.5001"/>
</g>
</g>
</svg>
