<?xml version="1.0" encoding="UTF-8" standalone="no"?>
<!DOCTYPE svg PUBLIC "-//W3C//DTD SVG 1.1//EN"
 "http://www.w3.org/Graphics/SVG/1.1/DTD/svg11.dtd">
<!-- Generated by graphviz version 2.40.1 (20161225.0304)
 -->
<!-- Title: dependencies Pages: 1 -->
<svg width="2162pt" height="211pt"
 viewBox="0.00 0.00 2162.00 211.00" xmlns="http://www.w3.org/2000/svg" xmlns:xlink="http://www.w3.org/1999/xlink">
<g id="graph0" class="graph" transform="scale(1 1) rotate(0) translate(4 207)">
<title>dependencies</title>
<polygon fill="#ffffff" stroke="transparent" points="-4,4 -4,-207 2158,-207 2158,4 -4,4"/>
<text text-anchor="start" x="1056.0091" y="-42.4" font-family="sans-serif" font-weight="bold" font-size="14.00" fill="#000000">Legend</text>
<polygon fill="#ffffb3" stroke="transparent" points="843,-10 843,-30 863,-30 863,-10 843,-10"/>
<text text-anchor="start" x="866.629" y="-15.4" font-family="sans-serif" font-size="14.00" fill="#000000"> &#160;Declarations</text>
<polygon fill="#8dd3c7" stroke="transparent" points="956,-10 956,-30 976,-30 976,-10 956,-10"/>
<text text-anchor="start" x="979.7251" y="-15.4" font-family="sans-serif" font-size="14.00" fill="#000000"> &#160;Module</text>
<polygon fill="#80b1d3" stroke="transparent" points="1042,-10 1042,-30 1062,-30 1062,-10 1042,-10"/>
<text text-anchor="start" x="1065.7812" y="-15.4" font-family="sans-serif" font-size="14.00" fill="#000000"> &#160;Bootstrap</text>
<polygon fill="#fdb462" stroke="transparent" points="1139,-10 1139,-30 1159,-30 1159,-10 1139,-10"/>
<text text-anchor="start" x="1162.6732" y="-15.4" font-family="sans-serif" font-size="14.00" fill="#000000"> &#160;Providers</text>
<polygon fill="#fb8072" stroke="transparent" points="1235,-10 1235,-30 1255,-30 1255,-10 1235,-10"/>
<text text-anchor="start" x="1258.7258" y="-15.4" font-family="sans-serif" font-size="14.00" fill="#000000"> &#160;Exports</text>
<g id="clust1" class="cluster">
<title>cluster_CalendarModule</title>
<polygon fill="none" stroke="#000000" stroke-dasharray="1,5" points="8,-70 8,-195 2146,-195 2146,-70 8,-70"/>
</g>
<g id="clust2" class="cluster">
<title>cluster_CalendarModule_declarations</title>
<polygon fill="none" stroke="#000000" points="693,-78 693,-130 2138,-130 2138,-78 693,-78"/>
</g>
<g id="clust10" class="cluster">
<title>cluster_CalendarModule_imports</title>
<polygon fill="none" stroke="#000000" points="16,-78 16,-130 685,-130 685,-78 16,-78"/>
</g>
<!-- CalendarPageContainer -->
<g id="node1" class="node">
<title>CalendarPageContainer</title>
<polygon fill="#ffffb3" stroke="#000000" points="2130.451,-122 1981.549,-122 1981.549,-86 2130.451,-86 2130.451,-122"/>
<text text-anchor="middle" x="2056" y="-99.8" font-family="Times,serif" font-size="14.00" fill="#000000">CalendarPageContainer</text>
</g>
<!-- CalendarModule -->
<g id="node8" class="node">
<title>CalendarModule</title>
<polygon fill="#8dd3c7" stroke="#000000" points="990.0814,-187 987.0814,-191 966.0814,-191 963.0814,-187 879.9186,-187 879.9186,-151 990.0814,-151 990.0814,-187"/>
<text text-anchor="middle" x="935" y="-164.8" font-family="Times,serif" font-size="14.00" fill="#000000">CalendarModule</text>
</g>
<!-- CalendarPageContainer&#45;&gt;CalendarModule -->
<g id="edge1" class="edge">
<title>CalendarPageContainer&#45;&gt;CalendarModule</title>
<path fill="none" stroke="#000000" d="M2056,-122.0908C2056,-145.1328 2056,-182 2056,-182 2056,-182 1000.2082,-182 1000.2082,-182"/>
<polygon fill="#000000" stroke="#000000" points="1000.2082,-178.5001 990.2082,-182 1000.2082,-185.5001 1000.2082,-178.5001"/>
</g>
<!-- CalendarFilterComponent -->
<g id="node2" class="node">
<title>CalendarFilterComponent</title>
<polygon fill="#ffffb3" stroke="#000000" points="1963.1937,-122 1800.8063,-122 1800.8063,-86 1963.1937,-86 1963.1937,-122"/>
<text text-anchor="middle" x="1882" y="-99.8" font-family="Times,serif" font-size="14.00" fill="#000000">CalendarFilterComponent</text>
</g>
<!-- CalendarFilterComponent&#45;&gt;CalendarModule -->
<g id="edge2" class="edge">
<title>CalendarFilterComponent&#45;&gt;CalendarModule</title>
<path fill="none" stroke="#000000" d="M1882,-122.2843C1882,-143.3211 1882,-175 1882,-175 1882,-175 1000.3554,-175 1000.3554,-175"/>
<polygon fill="#000000" stroke="#000000" points="1000.3554,-171.5001 990.3554,-175 1000.3553,-178.5001 1000.3554,-171.5001"/>
</g>
<!-- CalendarDraggableTemplatesComponent -->
<g id="node3" class="node">
<title>CalendarDraggableTemplatesComponent</title>
<polygon fill="#ffffb3" stroke="#000000" points="1783.4789,-122 1534.5211,-122 1534.5211,-86 1783.4789,-86 1783.4789,-122"/>
<text text-anchor="middle" x="1659" y="-99.8" font-family="Times,serif" font-size="14.00" fill="#000000">CalendarDraggableTemplatesComponent</text>
</g>
<!-- CalendarDraggableTemplatesComponent&#45;&gt;CalendarModule -->
<g id="edge3" class="edge">
<title>CalendarDraggableTemplatesComponent&#45;&gt;CalendarModule</title>
<path fill="none" stroke="#000000" d="M1659,-122.1061C1659,-141.3391 1659,-169 1659,-169 1659,-169 1000.3101,-169 1000.3101,-169"/>
<polygon fill="#000000" stroke="#000000" points="1000.3101,-165.5001 990.3101,-169 1000.31,-172.5001 1000.3101,-165.5001"/>
</g>
<!-- CalendarCalendarComponent -->
<g id="node4" class="node">
<title>CalendarCalendarComponent</title>
<polygon fill="#ffffb3" stroke="#000000" points="1517.396,-122 1334.604,-122 1334.604,-86 1517.396,-86 1517.396,-122"/>
<text text-anchor="middle" x="1426" y="-99.8" font-family="Times,serif" font-size="14.00" fill="#000000">CalendarCalendarComponent</text>
</g>
<!-- CalendarCalendarComponent&#45;&gt;CalendarModule -->
<g id="edge4" class="edge">
<title>CalendarCalendarComponent&#45;&gt;CalendarModule</title>
<path fill="none" stroke="#000000" d="M1426,-122.0225C1426,-139.3734 1426,-163 1426,-163 1426,-163 1000.3695,-163 1000.3695,-163"/>
<polygon fill="#000000" stroke="#000000" points="1000.3695,-159.5001 990.3695,-163 1000.3695,-166.5001 1000.3695,-159.5001"/>
</g>
<!-- CalendarDayComponent -->
<g id="node5" class="node">
<title>CalendarDayComponent</title>
<polygon fill="#ffffb3" stroke="#000000" points="1316.6853,-122 1161.3147,-122 1161.3147,-86 1316.6853,-86 1316.6853,-122"/>
<text text-anchor="middle" x="1239" y="-99.8" font-family="Times,serif" font-size="14.00" fill="#000000">CalendarDayComponent</text>
</g>
<!-- CalendarDayComponent&#45;&gt;CalendarModule -->
<g id="edge5" class="edge">
<title>CalendarDayComponent&#45;&gt;CalendarModule</title>
<path fill="none" stroke="#000000" d="M1239,-122.2396C1239,-137.5706 1239,-157 1239,-157 1239,-157 1000.0521,-157 1000.0521,-157"/>
<polygon fill="#000000" stroke="#000000" points="1000.0521,-153.5001 990.0521,-157 1000.0521,-160.5001 1000.0521,-153.5001"/>
</g>
<!-- CalendarOrderListComponent -->
<g id="node6" class="node">
<title>CalendarOrderListComponent</title>
<polygon fill="#ffffb3" stroke="#000000" points="1143.285,-122 956.715,-122 956.715,-86 1143.285,-86 1143.285,-122"/>
<text text-anchor="middle" x="1050" y="-99.8" font-family="Times,serif" font-size="14.00" fill="#000000">CalendarOrderListComponent</text>
</g>
<!-- CalendarOrderListComponent&#45;&gt;CalendarModule -->
<g id="edge6" class="edge">
<title>CalendarOrderListComponent&#45;&gt;CalendarModule</title>
<path fill="none" stroke="#000000" d="M973.4492,-122.1061C973.4492,-122.1061 973.4492,-140.991 973.4492,-140.991"/>
<polygon fill="#000000" stroke="#000000" points="969.9492,-140.9909 973.4492,-150.991 976.9492,-140.991 969.9492,-140.9909"/>
</g>
<!-- CalendarCreateOrderModalComponent -->
<g id="node7" class="node">
<title>CalendarCreateOrderModalComponent</title>
<polygon fill="#ffffb3" stroke="#000000" points="938.5882,-122 701.4118,-122 701.4118,-86 938.5882,-86 938.5882,-122"/>
<text text-anchor="middle" x="820" y="-99.8" font-family="Times,serif" font-size="14.00" fill="#000000">CalendarCreateOrderModalComponent</text>
</g>
<!-- CalendarCreateOrderModalComponent&#45;&gt;CalendarModule -->
<g id="edge7" class="edge">
<title>CalendarCreateOrderModalComponent&#45;&gt;CalendarModule</title>
<path fill="none" stroke="#000000" d="M909.3766,-122.1061C909.3766,-122.1061 909.3766,-140.991 909.3766,-140.991"/>
<polygon fill="#000000" stroke="#000000" points="905.8767,-140.9909 909.3766,-150.991 912.8767,-140.991 905.8767,-140.9909"/>
</g>
<!-- CalendarRoutingModule -->
<g id="node9" class="node">
<title>CalendarRoutingModule</title>
<polygon fill="#8dd3c7" stroke="#000000" points="676.6993,-122 673.6993,-126 652.6993,-126 649.6993,-122 521.3007,-122 521.3007,-86 676.6993,-86 676.6993,-122"/>
<text text-anchor="middle" x="599" y="-99.8" font-family="Times,serif" font-size="14.00" fill="#000000">CalendarRoutingModule</text>
</g>
<!-- CalendarRoutingModule&#45;&gt;CalendarModule -->
<g id="edge8" class="edge">
<title>CalendarRoutingModule&#45;&gt;CalendarModule</title>
<path fill="none" stroke="#000000" d="M599,-122.2396C599,-137.5706 599,-157 599,-157 599,-157 869.8927,-157 869.8927,-157"/>
<polygon fill="#000000" stroke="#000000" points="869.8927,-160.5001 879.8927,-157 869.8926,-153.5001 869.8927,-160.5001"/>
</g>
<!-- AngularMaterialModule -->
<g id="node10" class="node">
<title>AngularMaterialModule</title>
<polygon fill="#8dd3c7" stroke="#000000" points="503.3431,-122 500.3431,-126 479.3431,-126 476.3431,-122 350.6569,-122 350.6569,-86 503.3431,-86 503.3431,-122"/>
<text text-anchor="middle" x="427" y="-99.8" font-family="Times,serif" font-size="14.00" fill="#000000">AngularMaterialModule</text>
</g>
<!-- AngularMaterialModule&#45;&gt;CalendarModule -->
<g id="edge9" class="edge">
<title>AngularMaterialModule&#45;&gt;CalendarModule</title>
<path fill="none" stroke="#000000" d="M427,-122.0225C427,-139.3734 427,-163 427,-163 427,-163 869.6681,-163 869.6681,-163"/>
<polygon fill="#000000" stroke="#000000" points="869.6681,-166.5001 879.6681,-163 869.668,-159.5001 869.6681,-166.5001"/>
</g>
<!-- SharedModule -->
<g id="node11" class="node">
<title>SharedModule</title>
<polygon fill="#8dd3c7" stroke="#000000" points="332.4231,-122 329.4231,-126 308.4231,-126 305.4231,-122 233.5769,-122 233.5769,-86 332.4231,-86 332.4231,-122"/>
<text text-anchor="middle" x="283" y="-99.8" font-family="Times,serif" font-size="14.00" fill="#000000">SharedModule</text>
</g>
<!-- SharedModule&#45;&gt;CalendarModule -->
<g id="edge10" class="edge">
<title>SharedModule&#45;&gt;CalendarModule</title>
<path fill="none" stroke="#000000" d="M283,-122.1061C283,-141.3391 283,-169 283,-169 283,-169 869.6921,-169 869.6921,-169"/>
<polygon fill="#000000" stroke="#000000" points="869.6921,-172.5001 879.6921,-169 869.6921,-165.5001 869.6921,-172.5001"/>
</g>
<!-- CoreModule -->
<g id="node12" class="node">
<title>CoreModule</title>
<polygon fill="#8dd3c7" stroke="#000000" points="215.2619,-122 212.2619,-126 191.2619,-126 188.2619,-122 128.7381,-122 128.7381,-86 215.2619,-86 215.2619,-122"/>
<text text-anchor="middle" x="172" y="-99.8" font-family="Times,serif" font-size="14.00" fill="#000000">CoreModule</text>
</g>
<!-- CoreModule&#45;&gt;CalendarModule -->
<g id="edge11" class="edge">
<title>CoreModule&#45;&gt;CalendarModule</title>
<path fill="none" stroke="#000000" d="M172,-122.2843C172,-143.3211 172,-175 172,-175 172,-175 869.82,-175 869.82,-175"/>
<polygon fill="#000000" stroke="#000000" points="869.82,-178.5001 879.82,-175 869.82,-171.5001 869.82,-178.5001"/>
</g>
<!-- AdalModule -->
<g id="node13" class="node">
<title>AdalModule</title>
<polygon fill="#8dd3c7" stroke="#000000" points="110.2619,-122 107.2619,-126 86.2619,-126 83.2619,-122 23.7381,-122 23.7381,-86 110.2619,-86 110.2619,-122"/>
<text text-anchor="middle" x="67" y="-99.8" font-family="Times,serif" font-size="14.00" fill="#000000">AdalModule</text>
</g>
<!-- AdalModule&#45;&gt;CalendarModule -->
<g id="edge12" class="edge">
<title>AdalModule&#45;&gt;CalendarModule</title>
<path fill="none" stroke="#000000" d="M67,-122.0908C67,-145.1328 67,-182 67,-182 67,-182 869.7137,-182 869.7137,-182"/>
<polygon fill="#000000" stroke="#000000" points="869.7137,-185.5001 879.7137,-182 869.7136,-178.5001 869.7137,-185.5001"/>
</g>
</g>
</svg>
