<?xml version="1.0" encoding="UTF-8" standalone="no"?>
<!DOCTYPE svg PUBLIC "-//W3C//DTD SVG 1.1//EN"
 "http://www.w3.org/Graphics/SVG/1.1/DTD/svg11.dtd">
<!-- Generated by graphviz version 2.40.1 (20161225.0304)
 -->
<!-- Title: dependencies Pages: 1 -->
<svg width="1138pt" height="211pt"
 viewBox="0.00 0.00 1138.00 211.00" xmlns="http://www.w3.org/2000/svg" xmlns:xlink="http://www.w3.org/1999/xlink">
<g id="graph0" class="graph" transform="scale(1 1) rotate(0) translate(4 207)">
<title>dependencies</title>
<polygon fill="#ffffff" stroke="transparent" points="-4,4 -4,-207 1134,-207 1134,4 -4,4"/>
<text text-anchor="start" x="544.0091" y="-42.4" font-family="sans-serif" font-weight="bold" font-size="14.00" fill="#000000">Legend</text>
<polygon fill="#ffffb3" stroke="transparent" points="331,-10 331,-30 351,-30 351,-10 331,-10"/>
<text text-anchor="start" x="354.629" y="-15.4" font-family="sans-serif" font-size="14.00" fill="#000000"> &#160;Declarations</text>
<polygon fill="#8dd3c7" stroke="transparent" points="444,-10 444,-30 464,-30 464,-10 444,-10"/>
<text text-anchor="start" x="467.7251" y="-15.4" font-family="sans-serif" font-size="14.00" fill="#000000"> &#160;Module</text>
<polygon fill="#80b1d3" stroke="transparent" points="530,-10 530,-30 550,-30 550,-10 530,-10"/>
<text text-anchor="start" x="553.7812" y="-15.4" font-family="sans-serif" font-size="14.00" fill="#000000"> &#160;Bootstrap</text>
<polygon fill="#fdb462" stroke="transparent" points="627,-10 627,-30 647,-30 647,-10 627,-10"/>
<text text-anchor="start" x="650.6732" y="-15.4" font-family="sans-serif" font-size="14.00" fill="#000000"> &#160;Providers</text>
<polygon fill="#fb8072" stroke="transparent" points="723,-10 723,-30 743,-30 743,-10 723,-10"/>
<text text-anchor="start" x="746.7258" y="-15.4" font-family="sans-serif" font-size="14.00" fill="#000000"> &#160;Exports</text>
<g id="clust1" class="cluster">
<title>cluster_BlankReceiptModule</title>
<polygon fill="none" stroke="#000000" stroke-dasharray="1,5" points="8,-70 8,-195 1122,-195 1122,-70 8,-70"/>
</g>
<g id="clust2" class="cluster">
<title>cluster_BlankReceiptModule_declarations</title>
<polygon fill="none" stroke="#000000" points="718,-78 718,-130 1114,-130 1114,-78 718,-78"/>
</g>
<g id="clust5" class="cluster">
<title>cluster_BlankReceiptModule_imports</title>
<polygon fill="none" stroke="#000000" points="16,-78 16,-130 710,-130 710,-78 16,-78"/>
</g>
<!-- BlankReceiptPageContainer -->
<g id="node1" class="node">
<title>BlankReceiptPageContainer</title>
<polygon fill="#ffffb3" stroke="#000000" points="1106.1232,-122 931.8768,-122 931.8768,-86 1106.1232,-86 1106.1232,-122"/>
<text text-anchor="middle" x="1019" y="-99.8" font-family="Times,serif" font-size="14.00" fill="#000000">BlankReceiptPageContainer</text>
</g>
<!-- BlankReceiptModule -->
<g id="node3" class="node">
<title>BlankReceiptModule</title>
<polygon fill="#8dd3c7" stroke="#000000" points="494.7534,-187 491.7534,-191 470.7534,-191 467.7534,-187 359.2466,-187 359.2466,-151 494.7534,-151 494.7534,-187"/>
<text text-anchor="middle" x="427" y="-164.8" font-family="Times,serif" font-size="14.00" fill="#000000">BlankReceiptModule</text>
</g>
<!-- BlankReceiptPageContainer&#45;&gt;BlankReceiptModule -->
<g id="edge1" class="edge">
<title>BlankReceiptPageContainer&#45;&gt;BlankReceiptModule</title>
<path fill="none" stroke="#000000" d="M1019,-122.2921C1019,-144.2057 1019,-178 1019,-178 1019,-178 504.9099,-178 504.9099,-178"/>
<polygon fill="#000000" stroke="#000000" points="504.91,-174.5001 494.9099,-178 504.9099,-181.5001 504.91,-174.5001"/>
</g>
<!-- BlankReceiptFormComponent -->
<g id="node2" class="node">
<title>BlankReceiptFormComponent</title>
<polygon fill="#ffffb3" stroke="#000000" points="913.8696,-122 726.1304,-122 726.1304,-86 913.8696,-86 913.8696,-122"/>
<text text-anchor="middle" x="820" y="-99.8" font-family="Times,serif" font-size="14.00" fill="#000000">BlankReceiptFormComponent</text>
</g>
<!-- BlankReceiptFormComponent&#45;&gt;BlankReceiptModule -->
<g id="edge2" class="edge">
<title>BlankReceiptFormComponent&#45;&gt;BlankReceiptModule</title>
<path fill="none" stroke="#000000" d="M820,-122.1061C820,-141.3391 820,-169 820,-169 820,-169 505.0067,-169 505.0067,-169"/>
<polygon fill="#000000" stroke="#000000" points="505.0067,-165.5001 495.0067,-169 505.0067,-172.5001 505.0067,-165.5001"/>
</g>
<!-- BlankReceiptRoutingModule -->
<g id="node4" class="node">
<title>BlankReceiptRoutingModule</title>
<polygon fill="#8dd3c7" stroke="#000000" points="702.371,-122 699.371,-126 678.371,-126 675.371,-122 521.629,-122 521.629,-86 702.371,-86 702.371,-122"/>
<text text-anchor="middle" x="612" y="-99.8" font-family="Times,serif" font-size="14.00" fill="#000000">BlankReceiptRoutingModule</text>
</g>
<!-- BlankReceiptRoutingModule&#45;&gt;BlankReceiptModule -->
<g id="edge3" class="edge">
<title>BlankReceiptRoutingModule&#45;&gt;BlankReceiptModule</title>
<path fill="none" stroke="#000000" d="M612,-122.027C612,-138.3976 612,-160 612,-160 612,-160 504.8367,-160 504.8367,-160"/>
<polygon fill="#000000" stroke="#000000" points="504.8367,-156.5001 494.8367,-160 504.8367,-163.5001 504.8367,-156.5001"/>
</g>
<!-- AngularMaterialModule -->
<g id="node5" class="node">
<title>AngularMaterialModule</title>
<polygon fill="#8dd3c7" stroke="#000000" points="503.3431,-122 500.3431,-126 479.3431,-126 476.3431,-122 350.6569,-122 350.6569,-86 503.3431,-86 503.3431,-122"/>
<text text-anchor="middle" x="427" y="-99.8" font-family="Times,serif" font-size="14.00" fill="#000000">AngularMaterialModule</text>
</g>
<!-- AngularMaterialModule&#45;&gt;BlankReceiptModule -->
<g id="edge4" class="edge">
<title>AngularMaterialModule&#45;&gt;BlankReceiptModule</title>
<path fill="none" stroke="#000000" d="M427,-122.1061C427,-122.1061 427,-140.991 427,-140.991"/>
<polygon fill="#000000" stroke="#000000" points="423.5001,-140.9909 427,-150.991 430.5001,-140.991 423.5001,-140.9909"/>
</g>
<!-- SharedModule -->
<g id="node6" class="node">
<title>SharedModule</title>
<polygon fill="#8dd3c7" stroke="#000000" points="332.4231,-122 329.4231,-126 308.4231,-126 305.4231,-122 233.5769,-122 233.5769,-86 332.4231,-86 332.4231,-122"/>
<text text-anchor="middle" x="283" y="-99.8" font-family="Times,serif" font-size="14.00" fill="#000000">SharedModule</text>
</g>
<!-- SharedModule&#45;&gt;BlankReceiptModule -->
<g id="edge5" class="edge">
<title>SharedModule&#45;&gt;BlankReceiptModule</title>
<path fill="none" stroke="#000000" d="M283,-122.027C283,-138.3976 283,-160 283,-160 283,-160 349.2166,-160 349.2166,-160"/>
<polygon fill="#000000" stroke="#000000" points="349.2166,-163.5001 359.2166,-160 349.2166,-156.5001 349.2166,-163.5001"/>
</g>
<!-- CoreModule -->
<g id="node7" class="node">
<title>CoreModule</title>
<polygon fill="#8dd3c7" stroke="#000000" points="215.2619,-122 212.2619,-126 191.2619,-126 188.2619,-122 128.7381,-122 128.7381,-86 215.2619,-86 215.2619,-122"/>
<text text-anchor="middle" x="172" y="-99.8" font-family="Times,serif" font-size="14.00" fill="#000000">CoreModule</text>
</g>
<!-- CoreModule&#45;&gt;BlankReceiptModule -->
<g id="edge6" class="edge">
<title>CoreModule&#45;&gt;BlankReceiptModule</title>
<path fill="none" stroke="#000000" d="M172,-122.1061C172,-141.3391 172,-169 172,-169 172,-169 348.9997,-169 348.9997,-169"/>
<polygon fill="#000000" stroke="#000000" points="348.9997,-172.5001 358.9997,-169 348.9996,-165.5001 348.9997,-172.5001"/>
</g>
<!-- AdalModule -->
<g id="node8" class="node">
<title>AdalModule</title>
<polygon fill="#8dd3c7" stroke="#000000" points="110.2619,-122 107.2619,-126 86.2619,-126 83.2619,-122 23.7381,-122 23.7381,-86 110.2619,-86 110.2619,-122"/>
<text text-anchor="middle" x="67" y="-99.8" font-family="Times,serif" font-size="14.00" fill="#000000">AdalModule</text>
</g>
<!-- AdalModule&#45;&gt;BlankReceiptModule -->
<g id="edge7" class="edge">
<title>AdalModule&#45;&gt;BlankReceiptModule</title>
<path fill="none" stroke="#000000" d="M67,-122.2921C67,-144.2057 67,-178 67,-178 67,-178 348.8635,-178 348.8635,-178"/>
<polygon fill="#000000" stroke="#000000" points="348.8636,-181.5001 358.8635,-178 348.8635,-174.5001 348.8636,-181.5001"/>
</g>
</g>
</svg>
