<?xml version="1.0" encoding="UTF-8" standalone="no"?>
<!DOCTYPE svg PUBLIC "-//W3C//DTD SVG 1.1//EN"
 "http://www.w3.org/Graphics/SVG/1.1/DTD/svg11.dtd">
<!-- Generated by graphviz version 2.40.1 (20161225.0304)
 -->
<!-- Title: dependencies Pages: 1 -->
<svg width="4818pt" height="284pt"
 viewBox="0.00 0.00 4818.00 284.00" xmlns="http://www.w3.org/2000/svg" xmlns:xlink="http://www.w3.org/1999/xlink">
<g id="graph0" class="graph" transform="scale(1 1) rotate(0) translate(4 280)">
<title>dependencies</title>
<polygon fill="#ffffff" stroke="transparent" points="-4,4 -4,-280 4814,-280 4814,4 -4,4"/>
<text text-anchor="start" x="2384.0091" y="-42.4" font-family="sans-serif" font-weight="bold" font-size="14.00" fill="#000000">Legend</text>
<polygon fill="#ffffb3" stroke="transparent" points="2171,-10 2171,-30 2191,-30 2191,-10 2171,-10"/>
<text text-anchor="start" x="2194.629" y="-15.4" font-family="sans-serif" font-size="14.00" fill="#000000"> &#160;Declarations</text>
<polygon fill="#8dd3c7" stroke="transparent" points="2284,-10 2284,-30 2304,-30 2304,-10 2284,-10"/>
<text text-anchor="start" x="2307.7251" y="-15.4" font-family="sans-serif" font-size="14.00" fill="#000000"> &#160;Module</text>
<polygon fill="#80b1d3" stroke="transparent" points="2370,-10 2370,-30 2390,-30 2390,-10 2370,-10"/>
<text text-anchor="start" x="2393.7812" y="-15.4" font-family="sans-serif" font-size="14.00" fill="#000000"> &#160;Bootstrap</text>
<polygon fill="#fdb462" stroke="transparent" points="2467,-10 2467,-30 2487,-30 2487,-10 2467,-10"/>
<text text-anchor="start" x="2490.6732" y="-15.4" font-family="sans-serif" font-size="14.00" fill="#000000"> &#160;Providers</text>
<polygon fill="#fb8072" stroke="transparent" points="2563,-10 2563,-30 2583,-30 2583,-10 2563,-10"/>
<text text-anchor="start" x="2586.7258" y="-15.4" font-family="sans-serif" font-size="14.00" fill="#000000"> &#160;Exports</text>
<g id="clust1" class="cluster">
<title>cluster_CoreModule</title>
<polygon fill="none" stroke="#000000" stroke-dasharray="1,5" points="8,-70 8,-268 4802,-268 4802,-70 8,-70"/>
</g>
<g id="clust4" class="cluster">
<title>cluster_CoreModule_exports</title>
<polygon fill="none" stroke="#000000" points="2320,-208 2320,-260 2480,-260 2480,-208 2320,-208"/>
</g>
<g id="clust6" class="cluster">
<title>cluster_CoreModule_providers</title>
<polygon fill="none" stroke="#000000" points="16,-78 16,-130 4794,-130 4794,-78 16,-78"/>
</g>
<!-- ConfigServiceModule  -->
<g id="node1" class="node">
<title>ConfigServiceModule </title>
<polygon fill="#fb8072" stroke="#000000" points="2471.9152,-252 2328.0848,-252 2328.0848,-216 2471.9152,-216 2471.9152,-252"/>
<text text-anchor="middle" x="2400" y="-229.8" font-family="Times,serif" font-size="14.00" fill="#000000">ConfigServiceModule </text>
</g>
<!-- CoreModule -->
<g id="node2" class="node">
<title>CoreModule</title>
<polygon fill="#8dd3c7" stroke="#000000" points="2443.2619,-187 2440.2619,-191 2419.2619,-191 2416.2619,-187 2356.7381,-187 2356.7381,-151 2443.2619,-151 2443.2619,-187"/>
<text text-anchor="middle" x="2400" y="-164.8" font-family="Times,serif" font-size="14.00" fill="#000000">CoreModule</text>
</g>
<!-- CoreModule&#45;&gt;ConfigServiceModule  -->
<g id="edge1" class="edge">
<title>CoreModule&#45;&gt;ConfigServiceModule </title>
<path fill="none" stroke="#000000" stroke-dasharray="5,2" d="M2400,-187.1061C2400,-187.1061 2400,-205.991 2400,-205.991"/>
<polygon fill="#000000" stroke="#000000" points="2396.5001,-205.9909 2400,-215.991 2403.5001,-205.991 2396.5001,-205.9909"/>
</g>
<!-- RestService -->
<g id="node3" class="node">
<title>RestService</title>
<ellipse fill="#fdb462" stroke="#000000" cx="4729" cy="-104" rx="57.3166" ry="18"/>
<text text-anchor="middle" x="4729" y="-99.8" font-family="Times,serif" font-size="14.00" fill="#000000">RestService</text>
</g>
<!-- RestService&#45;&gt;CoreModule -->
<g id="edge2" class="edge">
<title>RestService&#45;&gt;CoreModule</title>
<path fill="none" stroke="#000000" d="M4729,-122.1532C4729,-145.7566 4729,-184 4729,-184 4729,-184 2453.4232,-184 2453.4232,-184"/>
<polygon fill="#000000" stroke="#000000" points="2453.4232,-180.5001 2443.4232,-184 2453.4231,-187.5001 2453.4232,-180.5001"/>
</g>
<!-- OrderRestService -->
<g id="node4" class="node">
<title>OrderRestService</title>
<ellipse fill="#fdb462" stroke="#000000" cx="4574" cy="-104" rx="79.8488" ry="18"/>
<text text-anchor="middle" x="4574" y="-99.8" font-family="Times,serif" font-size="14.00" fill="#000000">OrderRestService</text>
</g>
<!-- OrderRestService&#45;&gt;CoreModule -->
<g id="edge3" class="edge">
<title>OrderRestService&#45;&gt;CoreModule</title>
<path fill="none" stroke="#000000" d="M4574,-122.2479C4574,-145.0179 4574,-181 4574,-181 4574,-181 2453.4265,-181 2453.4265,-181"/>
<polygon fill="#000000" stroke="#000000" points="2453.4265,-177.5001 2443.4265,-181 2453.4264,-184.5001 2453.4265,-177.5001"/>
</g>
<!-- FlowRestService -->
<g id="node5" class="node">
<title>FlowRestService</title>
<ellipse fill="#fdb462" stroke="#000000" cx="4399" cy="-104" rx="77.0197" ry="18"/>
<text text-anchor="middle" x="4399" y="-99.8" font-family="Times,serif" font-size="14.00" fill="#000000">FlowRestService</text>
</g>
<!-- FlowRestService&#45;&gt;CoreModule -->
<g id="edge4" class="edge">
<title>FlowRestService&#45;&gt;CoreModule</title>
<path fill="none" stroke="#000000" d="M4399,-122.2921C4399,-144.2057 4399,-178 4399,-178 4399,-178 2453.611,-178 2453.611,-178"/>
<polygon fill="#000000" stroke="#000000" points="2453.6111,-174.5001 2443.611,-178 2453.611,-181.5001 2453.6111,-174.5001"/>
</g>
<!-- TemplateRestService -->
<g id="node6" class="node">
<title>TemplateRestService</title>
<ellipse fill="#fdb462" stroke="#000000" cx="4210" cy="-104" rx="93.7514" ry="18"/>
<text text-anchor="middle" x="4210" y="-99.8" font-family="Times,serif" font-size="14.00" fill="#000000">TemplateRestService</text>
</g>
<!-- TemplateRestService&#45;&gt;CoreModule -->
<g id="edge5" class="edge">
<title>TemplateRestService&#45;&gt;CoreModule</title>
<path fill="none" stroke="#000000" d="M4210,-122.2843C4210,-143.3211 4210,-175 4210,-175 4210,-175 2453.3997,-175 2453.3997,-175"/>
<polygon fill="#000000" stroke="#000000" points="2453.3998,-171.5001 2443.3997,-175 2453.3997,-178.5001 2453.3998,-171.5001"/>
</g>
<!-- DefinitionRestService -->
<g id="node7" class="node">
<title>DefinitionRestService</title>
<ellipse fill="#fdb462" stroke="#000000" cx="4002" cy="-104" rx="96.7023" ry="18"/>
<text text-anchor="middle" x="4002" y="-99.8" font-family="Times,serif" font-size="14.00" fill="#000000">DefinitionRestService</text>
</g>
<!-- DefinitionRestService&#45;&gt;CoreModule -->
<g id="edge6" class="edge">
<title>DefinitionRestService&#45;&gt;CoreModule</title>
<path fill="none" stroke="#000000" d="M4002,-122.2228C4002,-142.3652 4002,-172 4002,-172 4002,-172 2453.2641,-172 2453.2641,-172"/>
<polygon fill="#000000" stroke="#000000" points="2453.2642,-168.5001 2443.2641,-172 2453.2641,-175.5001 2453.2642,-168.5001"/>
</g>
<!-- ContractDetailsRestService -->
<g id="node8" class="node">
<title>ContractDetailsRestService</title>
<ellipse fill="#fdb462" stroke="#000000" cx="3769" cy="-104" rx="117.5248" ry="18"/>
<text text-anchor="middle" x="3769" y="-99.8" font-family="Times,serif" font-size="14.00" fill="#000000">ContractDetailsRestService</text>
</g>
<!-- ContractDetailsRestService&#45;&gt;CoreModule -->
<g id="edge7" class="edge">
<title>ContractDetailsRestService&#45;&gt;CoreModule</title>
<path fill="none" stroke="#000000" d="M3769,-122.1061C3769,-141.3391 3769,-169 3769,-169 3769,-169 2453.6148,-169 2453.6148,-169"/>
<polygon fill="#000000" stroke="#000000" points="2453.6148,-165.5001 2443.6148,-169 2453.6147,-172.5001 2453.6148,-165.5001"/>
</g>
<!-- UserContextRestService -->
<g id="node9" class="node">
<title>UserContextRestService</title>
<ellipse fill="#fdb462" stroke="#000000" cx="3527" cy="-104" rx="105.9324" ry="18"/>
<text text-anchor="middle" x="3527" y="-99.8" font-family="Times,serif" font-size="14.00" fill="#000000">UserContextRestService</text>
</g>
<!-- UserContextRestService&#45;&gt;CoreModule -->
<g id="edge8" class="edge">
<title>UserContextRestService&#45;&gt;CoreModule</title>
<path fill="none" stroke="#000000" d="M3527,-122.2667C3527,-140.5552 3527,-166 3527,-166 3527,-166 2453.4892,-166 2453.4892,-166"/>
<polygon fill="#000000" stroke="#000000" points="2453.4892,-162.5001 2443.4892,-166 2453.4891,-169.5001 2453.4892,-162.5001"/>
</g>
<!-- CustomersRestService -->
<g id="node10" class="node">
<title>CustomersRestService</title>
<ellipse fill="#fdb462" stroke="#000000" cx="3305" cy="-104" rx="98.4275" ry="18"/>
<text text-anchor="middle" x="3305" y="-99.8" font-family="Times,serif" font-size="14.00" fill="#000000">CustomersRestService</text>
</g>
<!-- CustomersRestService&#45;&gt;CoreModule -->
<g id="edge9" class="edge">
<title>CustomersRestService&#45;&gt;CoreModule</title>
<path fill="none" stroke="#000000" d="M3305,-122.0225C3305,-139.3734 3305,-163 3305,-163 3305,-163 2453.3451,-163 2453.3451,-163"/>
<polygon fill="#000000" stroke="#000000" points="2453.3452,-159.5001 2443.3451,-163 2453.3451,-166.5001 2453.3452,-159.5001"/>
</g>
<!-- UserRestService -->
<g id="node11" class="node">
<title>UserRestService</title>
<ellipse fill="#fdb462" stroke="#000000" cx="3113" cy="-104" rx="75.2732" ry="18"/>
<text text-anchor="middle" x="3113" y="-99.8" font-family="Times,serif" font-size="14.00" fill="#000000">UserRestService</text>
</g>
<!-- UserRestService&#45;&gt;CoreModule -->
<g id="edge10" class="edge">
<title>UserRestService&#45;&gt;CoreModule</title>
<path fill="none" stroke="#000000" d="M3113,-122.027C3113,-138.3976 3113,-160 3113,-160 3113,-160 2453.528,-160 2453.528,-160"/>
<polygon fill="#000000" stroke="#000000" points="2453.5281,-156.5001 2443.528,-160 2453.528,-163.5001 2453.5281,-156.5001"/>
</g>
<!-- AdminDefinitionRestService -->
<g id="node12" class="node">
<title>AdminDefinitionRestService</title>
<ellipse fill="#fdb462" stroke="#000000" cx="2896" cy="-104" rx="123.8505" ry="18"/>
<text text-anchor="middle" x="2896" y="-99.8" font-family="Times,serif" font-size="14.00" fill="#000000">AdminDefinitionRestService</text>
</g>
<!-- AdminDefinitionRestService&#45;&gt;CoreModule -->
<g id="edge11" class="edge">
<title>AdminDefinitionRestService&#45;&gt;CoreModule</title>
<path fill="none" stroke="#000000" d="M2896,-122.2396C2896,-137.5706 2896,-157 2896,-157 2896,-157 2453.582,-157 2453.582,-157"/>
<polygon fill="#000000" stroke="#000000" points="2453.582,-153.5001 2443.582,-157 2453.5819,-160.5001 2453.582,-153.5001"/>
</g>
<!-- CCRRestService -->
<g id="node13" class="node">
<title>CCRRestService</title>
<ellipse fill="#fdb462" stroke="#000000" cx="2678" cy="-104" rx="76.4575" ry="18"/>
<text text-anchor="middle" x="2678" y="-99.8" font-family="Times,serif" font-size="14.00" fill="#000000">CCRRestService</text>
</g>
<!-- CCRRestService&#45;&gt;CoreModule -->
<g id="edge12" class="edge">
<title>CCRRestService&#45;&gt;CoreModule</title>
<path fill="none" stroke="#000000" d="M2678,-122.0511C2678,-136.373 2678,-154 2678,-154 2678,-154 2453.4375,-154 2453.4375,-154"/>
<polygon fill="#000000" stroke="#000000" points="2453.4375,-150.5001 2443.4375,-154 2453.4375,-157.5001 2453.4375,-150.5001"/>
</g>
<!-- InvoicesRestService -->
<g id="node14" class="node">
<title>InvoicesRestService</title>
<ellipse fill="#fdb462" stroke="#000000" cx="2494" cy="-104" rx="89.7421" ry="18"/>
<text text-anchor="middle" x="2494" y="-99.8" font-family="Times,serif" font-size="14.00" fill="#000000">InvoicesRestService</text>
</g>
<!-- InvoicesRestService&#45;&gt;CoreModule -->
<g id="edge13" class="edge">
<title>InvoicesRestService&#45;&gt;CoreModule</title>
<path fill="none" stroke="#000000" d="M2423.7549,-115.3221C2423.7549,-115.3221 2423.7549,-140.9424 2423.7549,-140.9424"/>
<polygon fill="#000000" stroke="#000000" points="2420.255,-140.9424 2423.7549,-150.9424 2427.255,-140.9425 2420.255,-140.9424"/>
</g>
<!-- StockRestService -->
<g id="node15" class="node">
<title>StockRestService</title>
<ellipse fill="#fdb462" stroke="#000000" cx="2307" cy="-104" rx="79.3077" ry="18"/>
<text text-anchor="middle" x="2307" y="-99.8" font-family="Times,serif" font-size="14.00" fill="#000000">StockRestService</text>
</g>
<!-- StockRestService&#45;&gt;CoreModule -->
<g id="edge14" class="edge">
<title>StockRestService&#45;&gt;CoreModule</title>
<path fill="none" stroke="#000000" d="M2371.3864,-114.7334C2371.3864,-114.7334 2371.3864,-140.8723 2371.3864,-140.8723"/>
<polygon fill="#000000" stroke="#000000" points="2367.8865,-140.8722 2371.3864,-150.8723 2374.8865,-140.8723 2367.8865,-140.8722"/>
</g>
<!-- EmailActorsRestService -->
<g id="node16" class="node">
<title>EmailActorsRestService</title>
<ellipse fill="#fdb462" stroke="#000000" cx="2104" cy="-104" rx="105.9286" ry="18"/>
<text text-anchor="middle" x="2104" y="-99.8" font-family="Times,serif" font-size="14.00" fill="#000000">EmailActorsRestService</text>
</g>
<!-- EmailActorsRestService&#45;&gt;CoreModule -->
<g id="edge15" class="edge">
<title>EmailActorsRestService&#45;&gt;CoreModule</title>
<path fill="none" stroke="#000000" d="M2104,-122.0511C2104,-136.373 2104,-154 2104,-154 2104,-154 2346.6421,-154 2346.6421,-154"/>
<polygon fill="#000000" stroke="#000000" points="2346.6421,-157.5001 2356.6421,-154 2346.642,-150.5001 2346.6421,-157.5001"/>
</g>
<!-- BlankReceiptRestService -->
<g id="node17" class="node">
<title>BlankReceiptRestService</title>
<ellipse fill="#fdb462" stroke="#000000" cx="1870" cy="-104" rx="109.944" ry="18"/>
<text text-anchor="middle" x="1870" y="-99.8" font-family="Times,serif" font-size="14.00" fill="#000000">BlankReceiptRestService</text>
</g>
<!-- BlankReceiptRestService&#45;&gt;CoreModule -->
<g id="edge16" class="edge">
<title>BlankReceiptRestService&#45;&gt;CoreModule</title>
<path fill="none" stroke="#000000" d="M1870,-122.2396C1870,-137.5706 1870,-157 1870,-157 1870,-157 2346.6279,-157 2346.6279,-157"/>
<polygon fill="#000000" stroke="#000000" points="2346.6279,-160.5001 2356.6279,-157 2346.6278,-153.5001 2346.6279,-160.5001"/>
</g>
<!-- ContactRestService -->
<g id="node18" class="node">
<title>ContactRestService</title>
<ellipse fill="#fdb462" stroke="#000000" cx="1655" cy="-104" rx="87.3924" ry="18"/>
<text text-anchor="middle" x="1655" y="-99.8" font-family="Times,serif" font-size="14.00" fill="#000000">ContactRestService</text>
</g>
<!-- ContactRestService&#45;&gt;CoreModule -->
<g id="edge17" class="edge">
<title>ContactRestService&#45;&gt;CoreModule</title>
<path fill="none" stroke="#000000" d="M1655,-122.027C1655,-138.3976 1655,-160 1655,-160 1655,-160 2346.7255,-160 2346.7255,-160"/>
<polygon fill="#000000" stroke="#000000" points="2346.7255,-163.5001 2356.7255,-160 2346.7255,-156.5001 2346.7255,-163.5001"/>
</g>
<!-- DocumentRestService -->
<g id="node19" class="node">
<title>DocumentRestService</title>
<ellipse fill="#fdb462" stroke="#000000" cx="1452" cy="-104" rx="97.2683" ry="18"/>
<text text-anchor="middle" x="1452" y="-99.8" font-family="Times,serif" font-size="14.00" fill="#000000">DocumentRestService</text>
</g>
<!-- DocumentRestService&#45;&gt;CoreModule -->
<g id="edge18" class="edge">
<title>DocumentRestService&#45;&gt;CoreModule</title>
<path fill="none" stroke="#000000" d="M1452,-122.0225C1452,-139.3734 1452,-163 1452,-163 1452,-163 2346.4906,-163 2346.4906,-163"/>
<polygon fill="#000000" stroke="#000000" points="2346.4907,-166.5001 2356.4906,-163 2346.4906,-159.5001 2346.4907,-166.5001"/>
</g>
<!-- I18nRestService -->
<g id="node20" class="node">
<title>I18nRestService</title>
<ellipse fill="#fdb462" stroke="#000000" cx="1262" cy="-104" rx="74.7168" ry="18"/>
<text text-anchor="middle" x="1262" y="-99.8" font-family="Times,serif" font-size="14.00" fill="#000000">I18nRestService</text>
</g>
<!-- I18nRestService&#45;&gt;CoreModule -->
<g id="edge19" class="edge">
<title>I18nRestService&#45;&gt;CoreModule</title>
<path fill="none" stroke="#000000" d="M1262,-122.2667C1262,-140.5552 1262,-166 1262,-166 1262,-166 2346.4331,-166 2346.4331,-166"/>
<polygon fill="#000000" stroke="#000000" points="2346.4332,-169.5001 2356.4331,-166 2346.4331,-162.5001 2346.4332,-169.5001"/>
</g>
<!-- RelocationRestService -->
<g id="node21" class="node">
<title>RelocationRestService</title>
<ellipse fill="#fdb462" stroke="#000000" cx="1070" cy="-104" rx="98.9897" ry="18"/>
<text text-anchor="middle" x="1070" y="-99.8" font-family="Times,serif" font-size="14.00" fill="#000000">RelocationRestService</text>
</g>
<!-- RelocationRestService&#45;&gt;CoreModule -->
<g id="edge20" class="edge">
<title>RelocationRestService&#45;&gt;CoreModule</title>
<path fill="none" stroke="#000000" d="M1070,-122.1061C1070,-141.3391 1070,-169 1070,-169 1070,-169 2346.5047,-169 2346.5047,-169"/>
<polygon fill="#000000" stroke="#000000" points="2346.5047,-172.5001 2356.5047,-169 2346.5046,-165.5001 2346.5047,-172.5001"/>
</g>
<!-- ValidatorService -->
<g id="node22" class="node">
<title>ValidatorService</title>
<ellipse fill="#fdb462" stroke="#000000" cx="877" cy="-104" rx="76.4188" ry="18"/>
<text text-anchor="middle" x="877" y="-99.8" font-family="Times,serif" font-size="14.00" fill="#000000">ValidatorService</text>
</g>
<!-- ValidatorService&#45;&gt;CoreModule -->
<g id="edge21" class="edge">
<title>ValidatorService&#45;&gt;CoreModule</title>
<path fill="none" stroke="#000000" d="M877,-122.2228C877,-142.3652 877,-172 877,-172 877,-172 2346.4683,-172 2346.4683,-172"/>
<polygon fill="#000000" stroke="#000000" points="2346.4684,-175.5001 2356.4683,-172 2346.4683,-168.5001 2346.4684,-175.5001"/>
</g>
<!-- TranslationHelperService -->
<g id="node23" class="node">
<title>TranslationHelperService</title>
<ellipse fill="#fdb462" stroke="#000000" cx="672" cy="-104" rx="110.4871" ry="18"/>
<text text-anchor="middle" x="672" y="-99.8" font-family="Times,serif" font-size="14.00" fill="#000000">TranslationHelperService</text>
</g>
<!-- TranslationHelperService&#45;&gt;CoreModule -->
<g id="edge22" class="edge">
<title>TranslationHelperService&#45;&gt;CoreModule</title>
<path fill="none" stroke="#000000" d="M672,-122.2843C672,-143.3211 672,-175 672,-175 672,-175 2346.4209,-175 2346.4209,-175"/>
<polygon fill="#000000" stroke="#000000" points="2346.4209,-178.5001 2356.4209,-175 2346.4209,-171.5001 2346.4209,-178.5001"/>
</g>
<!-- ActiveCustomerService -->
<g id="node24" class="node">
<title>ActiveCustomerService</title>
<ellipse fill="#fdb462" stroke="#000000" cx="440" cy="-104" rx="103.0655" ry="18"/>
<text text-anchor="middle" x="440" y="-99.8" font-family="Times,serif" font-size="14.00" fill="#000000">ActiveCustomerService</text>
</g>
<!-- ActiveCustomerService&#45;&gt;CoreModule -->
<g id="edge23" class="edge">
<title>ActiveCustomerService&#45;&gt;CoreModule</title>
<path fill="none" stroke="#000000" d="M440,-122.2921C440,-144.2057 440,-178 440,-178 440,-178 2346.3145,-178 2346.3145,-178"/>
<polygon fill="#000000" stroke="#000000" points="2346.3146,-181.5001 2356.3145,-178 2346.3145,-174.5001 2346.3146,-181.5001"/>
</g>
<!-- InvoiceSandbox -->
<g id="node25" class="node">
<title>InvoiceSandbox</title>
<ellipse fill="#fdb462" stroke="#000000" cx="245" cy="-104" rx="73.583" ry="18"/>
<text text-anchor="middle" x="245" y="-99.8" font-family="Times,serif" font-size="14.00" fill="#000000">InvoiceSandbox</text>
</g>
<!-- InvoiceSandbox&#45;&gt;CoreModule -->
<g id="edge24" class="edge">
<title>InvoiceSandbox&#45;&gt;CoreModule</title>
<path fill="none" stroke="#000000" d="M245,-122.2479C245,-145.0179 245,-181 245,-181 245,-181 2346.4661,-181 2346.4661,-181"/>
<polygon fill="#000000" stroke="#000000" points="2346.4661,-184.5001 2356.4661,-181 2346.466,-177.5001 2346.4661,-184.5001"/>
</g>
<!-- FlowSandbox -->
<g id="node26" class="node">
<title>FlowSandbox</title>
<ellipse fill="#fdb462" stroke="#000000" cx="89" cy="-104" rx="64.8719" ry="18"/>
<text text-anchor="middle" x="89" y="-99.8" font-family="Times,serif" font-size="14.00" fill="#000000">FlowSandbox</text>
</g>
<!-- FlowSandbox&#45;&gt;CoreModule -->
<g id="edge25" class="edge">
<title>FlowSandbox&#45;&gt;CoreModule</title>
<path fill="none" stroke="#000000" d="M89,-122.1532C89,-145.7566 89,-184 89,-184 89,-184 2346.6599,-184 2346.6599,-184"/>
<polygon fill="#000000" stroke="#000000" points="2346.66,-187.5001 2356.6599,-184 2346.6599,-180.5001 2346.66,-187.5001"/>
</g>
</g>
</svg>
