<?xml version="1.0" encoding="UTF-8" standalone="no"?>
<!DOCTYPE svg PUBLIC "-//W3C//DTD SVG 1.1//EN"
 "http://www.w3.org/Graphics/SVG/1.1/DTD/svg11.dtd">
<!-- Generated by graphviz version 2.40.1 (20161225.0304)
 -->
<!-- Title: dependencies Pages: 1 -->
<svg width="2811pt" height="284pt"
 viewBox="0.00 0.00 2811.00 284.00" xmlns="http://www.w3.org/2000/svg" xmlns:xlink="http://www.w3.org/1999/xlink">
<g id="graph0" class="graph" transform="scale(1 1) rotate(0) translate(4 280)">
<title>dependencies</title>
<polygon fill="#ffffff" stroke="transparent" points="-4,4 -4,-280 2807,-280 2807,4 -4,4"/>
<text text-anchor="start" x="1380.5091" y="-42.4" font-family="sans-serif" font-weight="bold" font-size="14.00" fill="#000000">Legend</text>
<polygon fill="#ffffb3" stroke="transparent" points="1167.5,-10 1167.5,-30 1187.5,-30 1187.5,-10 1167.5,-10"/>
<text text-anchor="start" x="1191.129" y="-15.4" font-family="sans-serif" font-size="14.00" fill="#000000"> &#160;Declarations</text>
<polygon fill="#8dd3c7" stroke="transparent" points="1280.5,-10 1280.5,-30 1300.5,-30 1300.5,-10 1280.5,-10"/>
<text text-anchor="start" x="1304.2251" y="-15.4" font-family="sans-serif" font-size="14.00" fill="#000000"> &#160;Module</text>
<polygon fill="#80b1d3" stroke="transparent" points="1366.5,-10 1366.5,-30 1386.5,-30 1386.5,-10 1366.5,-10"/>
<text text-anchor="start" x="1390.2812" y="-15.4" font-family="sans-serif" font-size="14.00" fill="#000000"> &#160;Bootstrap</text>
<polygon fill="#fdb462" stroke="transparent" points="1463.5,-10 1463.5,-30 1483.5,-30 1483.5,-10 1463.5,-10"/>
<text text-anchor="start" x="1487.1732" y="-15.4" font-family="sans-serif" font-size="14.00" fill="#000000"> &#160;Providers</text>
<polygon fill="#fb8072" stroke="transparent" points="1559.5,-10 1559.5,-30 1579.5,-30 1579.5,-10 1559.5,-10"/>
<text text-anchor="start" x="1583.2258" y="-15.4" font-family="sans-serif" font-size="14.00" fill="#000000"> &#160;Exports</text>
<g id="clust1" class="cluster">
<title>cluster_AppModule</title>
<polygon fill="none" stroke="#000000" stroke-dasharray="1,5" points="8,-70 8,-268 2795,-268 2795,-70 8,-70"/>
</g>
<g id="clust2" class="cluster">
<title>cluster_AppModule_declarations</title>
<polygon fill="none" stroke="#000000" points="2665,-78 2665,-130 2787,-130 2787,-78 2665,-78"/>
</g>
<g id="clust4" class="cluster">
<title>cluster_AppModule_imports</title>
<polygon fill="none" stroke="#000000" points="256,-78 256,-130 2657,-130 2657,-78 256,-78"/>
</g>
<g id="clust6" class="cluster">
<title>cluster_AppModule_bootstrap</title>
<polygon fill="none" stroke="#000000" points="1453,-208 1453,-260 1577,-260 1577,-208 1453,-208"/>
</g>
<g id="clust7" class="cluster">
<title>cluster_AppModule_providers</title>
<polygon fill="none" stroke="#000000" points="16,-78 16,-130 248,-130 248,-78 16,-78"/>
</g>
<!-- AppComponent -->
<g id="node1" class="node">
<title>AppComponent</title>
<polygon fill="#ffffb3" stroke="#000000" points="2778.9399,-122 2673.0601,-122 2673.0601,-86 2778.9399,-86 2778.9399,-122"/>
<text text-anchor="middle" x="2726" y="-99.8" font-family="Times,serif" font-size="14.00" fill="#000000">AppComponent</text>
</g>
<!-- AppModule -->
<g id="node2" class="node">
<title>AppModule</title>
<polygon fill="#8dd3c7" stroke="#000000" points="1556.6571,-187 1553.6571,-191 1532.6571,-191 1529.6571,-187 1473.3429,-187 1473.3429,-151 1556.6571,-151 1556.6571,-187"/>
<text text-anchor="middle" x="1515" y="-164.8" font-family="Times,serif" font-size="14.00" fill="#000000">AppModule</text>
</g>
<!-- AppComponent&#45;&gt;AppModule -->
<g id="edge1" class="edge">
<title>AppComponent&#45;&gt;AppModule</title>
<path fill="none" stroke="#000000" d="M2726,-122.1532C2726,-145.7566 2726,-184 2726,-184 2726,-184 1566.6854,-184 1566.6854,-184"/>
<polygon fill="#000000" stroke="#000000" points="1566.6854,-180.5001 1556.6854,-184 1566.6853,-187.5001 1566.6854,-180.5001"/>
</g>
<!-- AppComponent  -->
<g id="node21" class="node">
<title>AppComponent </title>
<polygon fill="#80b1d3" stroke="#000000" points="1569.439,-252 1460.561,-252 1460.561,-216 1569.439,-216 1569.439,-252"/>
<text text-anchor="middle" x="1515" y="-229.8" font-family="Times,serif" font-size="14.00" fill="#000000">AppComponent </text>
</g>
<!-- AppModule&#45;&gt;AppComponent  -->
<g id="edge22" class="edge">
<title>AppModule&#45;&gt;AppComponent </title>
<path fill="none" stroke="#000000" stroke-dasharray="1,5" d="M1515,-187.1061C1515,-187.1061 1515,-205.991 1515,-205.991"/>
<polygon fill="#000000" stroke="#000000" points="1511.5001,-205.9909 1515,-215.991 1518.5001,-205.991 1511.5001,-205.9909"/>
</g>
<!-- ConfigServiceModule -->
<g id="node3" class="node">
<title>ConfigServiceModule</title>
<polygon fill="#8dd3c7" stroke="#000000" points="2649.4158,-122 2646.4158,-126 2625.4158,-126 2622.4158,-122 2508.5842,-122 2508.5842,-86 2649.4158,-86 2649.4158,-122"/>
<text text-anchor="middle" x="2579" y="-99.8" font-family="Times,serif" font-size="14.00" fill="#000000">ConfigServiceModule</text>
</g>
<!-- ConfigServiceModule&#45;&gt;AppModule -->
<g id="edge2" class="edge">
<title>ConfigServiceModule&#45;&gt;AppModule</title>
<path fill="none" stroke="#000000" d="M2579,-122.2479C2579,-145.0179 2579,-181 2579,-181 2579,-181 1566.7101,-181 1566.7101,-181"/>
<polygon fill="#000000" stroke="#000000" points="1566.7101,-177.5001 1556.7101,-181 1566.71,-184.5001 1566.7101,-177.5001"/>
</g>
<!-- AppRoutingModule -->
<g id="node4" class="node">
<title>AppRoutingModule</title>
<polygon fill="#8dd3c7" stroke="#000000" points="2490.2744,-122 2487.2744,-126 2466.2744,-126 2463.2744,-122 2361.7256,-122 2361.7256,-86 2490.2744,-86 2490.2744,-122"/>
<text text-anchor="middle" x="2426" y="-99.8" font-family="Times,serif" font-size="14.00" fill="#000000">AppRoutingModule</text>
</g>
<!-- AppRoutingModule&#45;&gt;AppModule -->
<g id="edge3" class="edge">
<title>AppRoutingModule&#45;&gt;AppModule</title>
<path fill="none" stroke="#000000" d="M2426,-122.2921C2426,-144.2057 2426,-178 2426,-178 2426,-178 1566.8112,-178 1566.8112,-178"/>
<polygon fill="#000000" stroke="#000000" points="1566.8112,-174.5001 1556.8112,-178 1566.8112,-181.5001 1566.8112,-174.5001"/>
</g>
<!-- AdminRoutingModule -->
<g id="node5" class="node">
<title>AdminRoutingModule</title>
<polygon fill="#8dd3c7" stroke="#000000" points="2343.5561,-122 2340.5561,-126 2319.5561,-126 2316.5561,-122 2200.4439,-122 2200.4439,-86 2343.5561,-86 2343.5561,-122"/>
<text text-anchor="middle" x="2272" y="-99.8" font-family="Times,serif" font-size="14.00" fill="#000000">AdminRoutingModule</text>
</g>
<!-- AdminRoutingModule&#45;&gt;AppModule -->
<g id="edge4" class="edge">
<title>AdminRoutingModule&#45;&gt;AppModule</title>
<path fill="none" stroke="#000000" d="M2272,-122.0267C2272,-142.7672 2272,-174 2272,-174 2272,-174 1566.7779,-174 1566.7779,-174"/>
<polygon fill="#000000" stroke="#000000" points="1566.7779,-170.5001 1556.7779,-174 1566.7779,-177.5001 1566.7779,-170.5001"/>
</g>
<!-- CoreModule -->
<g id="node6" class="node">
<title>CoreModule</title>
<polygon fill="#8dd3c7" stroke="#000000" points="2182.2619,-122 2179.2619,-126 2158.2619,-126 2155.2619,-122 2095.7381,-122 2095.7381,-86 2182.2619,-86 2182.2619,-122"/>
<text text-anchor="middle" x="2139" y="-99.8" font-family="Times,serif" font-size="14.00" fill="#000000">CoreModule</text>
</g>
<!-- CoreModule&#45;&gt;AppModule -->
<g id="edge5" class="edge">
<title>CoreModule&#45;&gt;AppModule</title>
<path fill="none" stroke="#000000" d="M2153.4603,-122.308C2153.4603,-142.1455 2153.4603,-171 2153.4603,-171 2153.4603,-171 1566.8912,-171 1566.8912,-171"/>
<polygon fill="#000000" stroke="#000000" points="1566.8912,-167.5001 1556.8912,-171 1566.8911,-174.5001 1566.8912,-167.5001"/>
</g>
<!-- CoreModule&#45;&gt;AppModule -->
<g id="edge10" class="edge">
<title>CoreModule&#45;&gt;AppModule</title>
<path fill="none" stroke="#000000" d="M2124.5397,-122.1686C2124.5397,-141.0898 2124.5397,-168 2124.5397,-168 2124.5397,-168 1566.8961,-168 1566.8961,-168"/>
<polygon fill="#000000" stroke="#000000" points="1566.8962,-164.5001 1556.8961,-168 1566.8961,-171.5001 1566.8962,-164.5001"/>
</g>
<!-- OrdersModule -->
<g id="node7" class="node">
<title>OrdersModule</title>
<polygon fill="#8dd3c7" stroke="#000000" points="2077.6375,-122 2074.6375,-126 2053.6375,-126 2050.6375,-122 1980.3625,-122 1980.3625,-86 2077.6375,-86 2077.6375,-122"/>
<text text-anchor="middle" x="2029" y="-99.8" font-family="Times,serif" font-size="14.00" fill="#000000">OrdersModule</text>
</g>
<!-- OrdersModule&#45;&gt;AppModule -->
<g id="edge6" class="edge">
<title>OrdersModule&#45;&gt;AppModule</title>
<path fill="none" stroke="#000000" d="M2029,-122.302C2029,-140.2699 2029,-165 2029,-165 2029,-165 1567.0628,-165 1567.0628,-165"/>
<polygon fill="#000000" stroke="#000000" points="1567.0628,-161.5001 1557.0628,-165 1567.0627,-168.5001 1567.0628,-161.5001"/>
</g>
<!-- FlowsModule -->
<g id="node8" class="node">
<title>FlowsModule</title>
<polygon fill="#8dd3c7" stroke="#000000" points="1961.7745,-122 1958.7745,-126 1937.7745,-126 1934.7745,-122 1868.2255,-122 1868.2255,-86 1961.7745,-86 1961.7745,-122"/>
<text text-anchor="middle" x="1915" y="-99.8" font-family="Times,serif" font-size="14.00" fill="#000000">FlowsModule</text>
</g>
<!-- FlowsModule&#45;&gt;AppModule -->
<g id="edge7" class="edge">
<title>FlowsModule&#45;&gt;AppModule</title>
<path fill="none" stroke="#000000" d="M1915,-122.0352C1915,-138.7344 1915,-161 1915,-161 1915,-161 1566.675,-161 1566.675,-161"/>
<polygon fill="#000000" stroke="#000000" points="1566.6751,-157.5001 1556.675,-161 1566.675,-164.5001 1566.6751,-157.5001"/>
</g>
<!-- CCRModule -->
<g id="node9" class="node">
<title>CCRModule</title>
<polygon fill="#8dd3c7" stroke="#000000" points="1849.5607,-122 1846.5607,-126 1825.5607,-126 1822.5607,-122 1762.4393,-122 1762.4393,-86 1849.5607,-86 1849.5607,-122"/>
<text text-anchor="middle" x="1806" y="-99.8" font-family="Times,serif" font-size="14.00" fill="#000000">CCRModule</text>
</g>
<!-- CCRModule&#45;&gt;AppModule -->
<g id="edge8" class="edge">
<title>CCRModule&#45;&gt;AppModule</title>
<path fill="none" stroke="#000000" d="M1806,-122.2819C1806,-137.9478 1806,-158 1806,-158 1806,-158 1566.6932,-158 1566.6932,-158"/>
<polygon fill="#000000" stroke="#000000" points="1566.6932,-154.5001 1556.6932,-158 1566.6932,-161.5001 1566.6932,-154.5001"/>
</g>
<!-- AdminModule -->
<g id="node10" class="node">
<title>AdminModule</title>
<polygon fill="#8dd3c7" stroke="#000000" points="1744.4386,-122 1741.4386,-126 1720.4386,-126 1717.4386,-122 1645.5614,-122 1645.5614,-86 1744.4386,-86 1744.4386,-122"/>
<text text-anchor="middle" x="1695" y="-99.8" font-family="Times,serif" font-size="14.00" fill="#000000">AdminModule</text>
</g>
<!-- AdminModule&#45;&gt;AppModule -->
<g id="edge9" class="edge">
<title>AdminModule&#45;&gt;AppModule</title>
<path fill="none" stroke="#000000" d="M1695,-122.1243C1695,-136.7832 1695,-155 1695,-155 1695,-155 1566.748,-155 1566.748,-155"/>
<polygon fill="#000000" stroke="#000000" points="1566.7481,-151.5001 1556.748,-155 1566.748,-158.5001 1566.7481,-151.5001"/>
</g>
<!-- SharedModule -->
<g id="node11" class="node">
<title>SharedModule</title>
<polygon fill="#8dd3c7" stroke="#000000" points="1628.4231,-122 1625.4231,-126 1604.4231,-126 1601.4231,-122 1529.5769,-122 1529.5769,-86 1628.4231,-86 1628.4231,-122"/>
<text text-anchor="middle" x="1579" y="-99.8" font-family="Times,serif" font-size="14.00" fill="#000000">SharedModule</text>
</g>
<!-- SharedModule&#45;&gt;AppModule -->
<g id="edge11" class="edge">
<title>SharedModule&#45;&gt;AppModule</title>
<path fill="none" stroke="#000000" d="M1543.3086,-122.1061C1543.3086,-122.1061 1543.3086,-140.991 1543.3086,-140.991"/>
<polygon fill="#000000" stroke="#000000" points="1539.8086,-140.9909 1543.3086,-150.991 1546.8086,-140.991 1539.8086,-140.9909"/>
</g>
<!-- DashboardModule -->
<g id="node12" class="node">
<title>DashboardModule</title>
<polygon fill="#8dd3c7" stroke="#000000" points="1512.191,-122 1509.191,-126 1488.191,-126 1485.191,-122 1391.809,-122 1391.809,-86 1512.191,-86 1512.191,-122"/>
<text text-anchor="middle" x="1452" y="-99.8" font-family="Times,serif" font-size="14.00" fill="#000000">DashboardModule</text>
</g>
<!-- DashboardModule&#45;&gt;AppModule -->
<g id="edge12" class="edge">
<title>DashboardModule&#45;&gt;AppModule</title>
<path fill="none" stroke="#000000" d="M1492.6336,-122.1061C1492.6336,-122.1061 1492.6336,-140.991 1492.6336,-140.991"/>
<polygon fill="#000000" stroke="#000000" points="1489.1337,-140.9909 1492.6336,-150.991 1496.1337,-140.991 1489.1337,-140.9909"/>
</g>
<!-- SelectCustomerModule -->
<g id="node13" class="node">
<title>SelectCustomerModule</title>
<polygon fill="#8dd3c7" stroke="#000000" points="1374.1951,-122 1371.1951,-126 1350.1951,-126 1347.1951,-122 1225.8049,-122 1225.8049,-86 1374.1951,-86 1374.1951,-122"/>
<text text-anchor="middle" x="1300" y="-99.8" font-family="Times,serif" font-size="14.00" fill="#000000">SelectCustomerModule</text>
</g>
<!-- SelectCustomerModule&#45;&gt;AppModule -->
<g id="edge13" class="edge">
<title>SelectCustomerModule&#45;&gt;AppModule</title>
<path fill="none" stroke="#000000" d="M1275.3008,-122.2819C1275.3008,-137.9478 1275.3008,-158 1275.3008,-158 1275.3008,-158 1463.2476,-158 1463.2476,-158"/>
<polygon fill="#000000" stroke="#000000" points="1463.2476,-161.5001 1473.2476,-158 1463.2476,-154.5001 1463.2476,-161.5001"/>
</g>
<!-- SelectCustomerModule&#45;&gt;AppModule -->
<g id="edge15" class="edge">
<title>SelectCustomerModule&#45;&gt;AppModule</title>
<path fill="none" stroke="#000000" d="M1324.6992,-122.1243C1324.6992,-136.7832 1324.6992,-155 1324.6992,-155 1324.6992,-155 1463.2377,-155 1463.2377,-155"/>
<polygon fill="#000000" stroke="#000000" points="1463.2377,-158.5001 1473.2377,-155 1463.2376,-151.5001 1463.2377,-158.5001"/>
</g>
<!-- InvoicesModule -->
<g id="node14" class="node">
<title>InvoicesModule</title>
<polygon fill="#8dd3c7" stroke="#000000" points="1207.4748,-122 1204.4748,-126 1183.4748,-126 1180.4748,-122 1100.5252,-122 1100.5252,-86 1207.4748,-86 1207.4748,-122"/>
<text text-anchor="middle" x="1154" y="-99.8" font-family="Times,serif" font-size="14.00" fill="#000000">InvoicesModule</text>
</g>
<!-- InvoicesModule&#45;&gt;AppModule -->
<g id="edge14" class="edge">
<title>InvoicesModule&#45;&gt;AppModule</title>
<path fill="none" stroke="#000000" d="M1154,-122.0352C1154,-138.7344 1154,-161 1154,-161 1154,-161 1463.236,-161 1463.236,-161"/>
<polygon fill="#000000" stroke="#000000" points="1463.2361,-164.5001 1473.236,-161 1463.236,-157.5001 1463.2361,-164.5001"/>
</g>
<!-- CalendarModule -->
<g id="node15" class="node">
<title>CalendarModule</title>
<polygon fill="#8dd3c7" stroke="#000000" points="1082.0814,-122 1079.0814,-126 1058.0814,-126 1055.0814,-122 971.9186,-122 971.9186,-86 1082.0814,-86 1082.0814,-122"/>
<text text-anchor="middle" x="1027" y="-99.8" font-family="Times,serif" font-size="14.00" fill="#000000">CalendarModule</text>
</g>
<!-- CalendarModule&#45;&gt;AppModule -->
<g id="edge16" class="edge">
<title>CalendarModule&#45;&gt;AppModule</title>
<path fill="none" stroke="#000000" d="M1027,-122.302C1027,-140.2699 1027,-165 1027,-165 1027,-165 1462.971,-165 1462.971,-165"/>
<polygon fill="#000000" stroke="#000000" points="1462.9711,-168.5001 1472.971,-165 1462.971,-161.5001 1462.9711,-168.5001"/>
</g>
<!-- ReportModule -->
<g id="node16" class="node">
<title>ReportModule</title>
<polygon fill="#8dd3c7" stroke="#000000" points="953.6528,-122 950.6528,-126 929.6528,-126 926.6528,-122 856.3472,-122 856.3472,-86 953.6528,-86 953.6528,-122"/>
<text text-anchor="middle" x="905" y="-99.8" font-family="Times,serif" font-size="14.00" fill="#000000">ReportModule</text>
</g>
<!-- ReportModule&#45;&gt;AppModule -->
<g id="edge17" class="edge">
<title>ReportModule&#45;&gt;AppModule</title>
<path fill="none" stroke="#000000" d="M905,-122.1686C905,-141.0898 905,-168 905,-168 905,-168 1463.0722,-168 1463.0722,-168"/>
<polygon fill="#000000" stroke="#000000" points="1463.0723,-171.5001 1473.0722,-168 1463.0722,-164.5001 1463.0723,-171.5001"/>
</g>
<!-- ServiceModule -->
<g id="node17" class="node">
<title>ServiceModule</title>
<polygon fill="#8dd3c7" stroke="#000000" points="837.5285,-122 834.5285,-126 813.5285,-126 810.5285,-122 736.4715,-122 736.4715,-86 837.5285,-86 837.5285,-122"/>
<text text-anchor="middle" x="787" y="-99.8" font-family="Times,serif" font-size="14.00" fill="#000000">ServiceModule</text>
</g>
<!-- ServiceModule&#45;&gt;AppModule -->
<g id="edge18" class="edge">
<title>ServiceModule&#45;&gt;AppModule</title>
<path fill="none" stroke="#000000" d="M787,-122.308C787,-142.1455 787,-171 787,-171 787,-171 1463.2448,-171 1463.2448,-171"/>
<polygon fill="#000000" stroke="#000000" points="1463.2448,-174.5001 1473.2448,-171 1463.2448,-167.5001 1463.2448,-174.5001"/>
</g>
<!-- BlankReceiptModule -->
<g id="node18" class="node">
<title>BlankReceiptModule</title>
<polygon fill="#8dd3c7" stroke="#000000" points="717.7534,-122 714.7534,-126 693.7534,-126 690.7534,-122 582.2466,-122 582.2466,-86 717.7534,-86 717.7534,-122"/>
<text text-anchor="middle" x="650" y="-99.8" font-family="Times,serif" font-size="14.00" fill="#000000">BlankReceiptModule</text>
</g>
<!-- BlankReceiptModule&#45;&gt;AppModule -->
<g id="edge19" class="edge">
<title>BlankReceiptModule&#45;&gt;AppModule</title>
<path fill="none" stroke="#000000" d="M650,-122.0267C650,-142.7672 650,-174 650,-174 650,-174 1463.2793,-174 1463.2793,-174"/>
<polygon fill="#000000" stroke="#000000" points="1463.2793,-177.5001 1473.2793,-174 1463.2792,-170.5001 1463.2793,-177.5001"/>
</g>
<!-- DescartesInvoicesModule -->
<g id="node19" class="node">
<title>DescartesInvoicesModule</title>
<polygon fill="#8dd3c7" stroke="#000000" points="563.8806,-122 560.8806,-126 539.8806,-126 536.8806,-122 402.1194,-122 402.1194,-86 563.8806,-86 563.8806,-122"/>
<text text-anchor="middle" x="483" y="-99.8" font-family="Times,serif" font-size="14.00" fill="#000000">DescartesInvoicesModule</text>
</g>
<!-- DescartesInvoicesModule&#45;&gt;AppModule -->
<g id="edge20" class="edge">
<title>DescartesInvoicesModule&#45;&gt;AppModule</title>
<path fill="none" stroke="#000000" d="M483,-122.2921C483,-144.2057 483,-178 483,-178 483,-178 1463.2662,-178 1463.2662,-178"/>
<polygon fill="#000000" stroke="#000000" points="1463.2662,-181.5001 1473.2662,-178 1463.2662,-174.5001 1463.2662,-181.5001"/>
</g>
<!-- RelocationModule -->
<g id="node20" class="node">
<title>RelocationModule</title>
<polygon fill="#8dd3c7" stroke="#000000" points="384.2022,-122 381.2022,-126 360.2022,-126 357.2022,-122 263.7978,-122 263.7978,-86 384.2022,-86 384.2022,-122"/>
<text text-anchor="middle" x="324" y="-99.8" font-family="Times,serif" font-size="14.00" fill="#000000">RelocationModule</text>
</g>
<!-- RelocationModule&#45;&gt;AppModule -->
<g id="edge21" class="edge">
<title>RelocationModule&#45;&gt;AppModule</title>
<path fill="none" stroke="#000000" d="M324,-122.2479C324,-145.0179 324,-181 324,-181 324,-181 1463.31,-181 1463.31,-181"/>
<polygon fill="#000000" stroke="#000000" points="1463.3101,-184.5001 1473.31,-181 1463.31,-177.5001 1463.3101,-184.5001"/>
</g>
<!-- AzureMonitoringService -->
<g id="node22" class="node">
<title>AzureMonitoringService</title>
<ellipse fill="#fdb462" stroke="#000000" cx="132" cy="-104" rx="107.6444" ry="18"/>
<text text-anchor="middle" x="132" y="-99.8" font-family="Times,serif" font-size="14.00" fill="#000000">AzureMonitoringService</text>
</g>
<!-- AzureMonitoringService&#45;&gt;AppModule -->
<g id="edge23" class="edge">
<title>AzureMonitoringService&#45;&gt;AppModule</title>
<path fill="none" stroke="#000000" d="M132,-122.1532C132,-145.7566 132,-184 132,-184 132,-184 1463.2328,-184 1463.2328,-184"/>
<polygon fill="#000000" stroke="#000000" points="1463.2328,-187.5001 1473.2328,-184 1463.2327,-180.5001 1463.2328,-187.5001"/>
</g>
</g>
</svg>
