<?xml version="1.0" encoding="UTF-8" standalone="no"?>
<!DOCTYPE svg PUBLIC "-//W3C//DTD SVG 1.1//EN"
 "http://www.w3.org/Graphics/SVG/1.1/DTD/svg11.dtd">
<!-- Generated by graphviz version 2.40.1 (20161225.0304)
 -->
<!-- Title: dependencies Pages: 1 -->
<svg width="2900pt" height="211pt"
 viewBox="0.00 0.00 2900.00 211.00" xmlns="http://www.w3.org/2000/svg" xmlns:xlink="http://www.w3.org/1999/xlink">
<g id="graph0" class="graph" transform="scale(1 1) rotate(0) translate(4 207)">
<title>dependencies</title>
<polygon fill="#ffffff" stroke="transparent" points="-4,4 -4,-207 2896,-207 2896,4 -4,4"/>
<text text-anchor="start" x="1425.0091" y="-42.4" font-family="sans-serif" font-weight="bold" font-size="14.00" fill="#000000">Legend</text>
<polygon fill="#ffffb3" stroke="transparent" points="1212,-10 1212,-30 1232,-30 1232,-10 1212,-10"/>
<text text-anchor="start" x="1235.629" y="-15.4" font-family="sans-serif" font-size="14.00" fill="#000000"> &#160;Declarations</text>
<polygon fill="#8dd3c7" stroke="transparent" points="1325,-10 1325,-30 1345,-30 1345,-10 1325,-10"/>
<text text-anchor="start" x="1348.7251" y="-15.4" font-family="sans-serif" font-size="14.00" fill="#000000"> &#160;Module</text>
<polygon fill="#80b1d3" stroke="transparent" points="1411,-10 1411,-30 1431,-30 1431,-10 1411,-10"/>
<text text-anchor="start" x="1434.7812" y="-15.4" font-family="sans-serif" font-size="14.00" fill="#000000"> &#160;Bootstrap</text>
<polygon fill="#fdb462" stroke="transparent" points="1508,-10 1508,-30 1528,-30 1528,-10 1508,-10"/>
<text text-anchor="start" x="1531.6732" y="-15.4" font-family="sans-serif" font-size="14.00" fill="#000000"> &#160;Providers</text>
<polygon fill="#fb8072" stroke="transparent" points="1604,-10 1604,-30 1624,-30 1624,-10 1604,-10"/>
<text text-anchor="start" x="1627.7258" y="-15.4" font-family="sans-serif" font-size="14.00" fill="#000000"> &#160;Exports</text>
<g id="clust1" class="cluster">
<title>cluster_FlowsModule</title>
<polygon fill="none" stroke="#000000" stroke-dasharray="1,5" points="8,-70 8,-195 2884,-195 2884,-70 8,-70"/>
</g>
<g id="clust2" class="cluster">
<title>cluster_FlowsModule_declarations</title>
<polygon fill="none" stroke="#000000" points="1291,-78 1291,-130 2876,-130 2876,-78 1291,-78"/>
</g>
<g id="clust12" class="cluster">
<title>cluster_FlowsModule_imports</title>
<polygon fill="none" stroke="#000000" points="506,-78 506,-130 1283,-130 1283,-78 506,-78"/>
</g>
<g id="clust15" class="cluster">
<title>cluster_FlowsModule_providers</title>
<polygon fill="none" stroke="#000000" points="16,-78 16,-130 498,-130 498,-78 16,-78"/>
</g>
<!-- FlowPageContainer -->
<g id="node1" class="node">
<title>FlowPageContainer</title>
<polygon fill="#ffffb3" stroke="#000000" points="2867.6994,-122 2740.3006,-122 2740.3006,-86 2867.6994,-86 2867.6994,-122"/>
<text text-anchor="middle" x="2804" y="-99.8" font-family="Times,serif" font-size="14.00" fill="#000000">FlowPageContainer</text>
</g>
<!-- FlowsModule -->
<g id="node10" class="node">
<title>FlowsModule</title>
<polygon fill="#8dd3c7" stroke="#000000" points="1439.7745,-187 1436.7745,-191 1415.7745,-191 1412.7745,-187 1346.2255,-187 1346.2255,-151 1439.7745,-151 1439.7745,-187"/>
<text text-anchor="middle" x="1393" y="-164.8" font-family="Times,serif" font-size="14.00" fill="#000000">FlowsModule</text>
</g>
<!-- FlowPageContainer&#45;&gt;FlowsModule -->
<g id="edge1" class="edge">
<title>FlowPageContainer&#45;&gt;FlowsModule</title>
<path fill="none" stroke="#000000" d="M2804,-122.3228C2804,-145.6602 2804,-183 2804,-183 2804,-183 1449.9465,-183 1449.9465,-183"/>
<polygon fill="#000000" stroke="#000000" points="1449.9465,-179.5001 1439.9465,-183 1449.9465,-186.5001 1449.9465,-179.5001"/>
</g>
<!-- FlowEditContainer -->
<g id="node2" class="node">
<title>FlowEditContainer</title>
<polygon fill="#ffffb3" stroke="#000000" points="2722.8216,-122 2599.1784,-122 2599.1784,-86 2722.8216,-86 2722.8216,-122"/>
<text text-anchor="middle" x="2661" y="-99.8" font-family="Times,serif" font-size="14.00" fill="#000000">FlowEditContainer</text>
</g>
<!-- FlowEditContainer&#45;&gt;FlowsModule -->
<g id="edge2" class="edge">
<title>FlowEditContainer&#45;&gt;FlowsModule</title>
<path fill="none" stroke="#000000" d="M2661,-122.1554C2661,-144.3519 2661,-179 2661,-179 2661,-179 1450.012,-179 1450.012,-179"/>
<polygon fill="#000000" stroke="#000000" points="1450.0121,-175.5001 1440.012,-179 1450.012,-182.5001 1450.0121,-175.5001"/>
</g>
<!-- FlowFilterComponent -->
<g id="node3" class="node">
<title>FlowFilterComponent</title>
<polygon fill="#ffffb3" stroke="#000000" points="2581.4425,-122 2440.5575,-122 2440.5575,-86 2581.4425,-86 2581.4425,-122"/>
<text text-anchor="middle" x="2511" y="-99.8" font-family="Times,serif" font-size="14.00" fill="#000000">FlowFilterComponent</text>
</g>
<!-- FlowFilterComponent&#45;&gt;FlowsModule -->
<g id="edge3" class="edge">
<title>FlowFilterComponent&#45;&gt;FlowsModule</title>
<path fill="none" stroke="#000000" d="M2511,-122.2843C2511,-143.3211 2511,-175 2511,-175 2511,-175 1449.9697,-175 1449.9697,-175"/>
<polygon fill="#000000" stroke="#000000" points="1449.9698,-171.5001 1439.9697,-175 1449.9697,-178.5001 1449.9698,-171.5001"/>
</g>
<!-- FlowListComponent -->
<g id="node4" class="node">
<title>FlowListComponent</title>
<polygon fill="#ffffb3" stroke="#000000" points="2422.8906,-122 2291.1094,-122 2291.1094,-86 2422.8906,-86 2422.8906,-122"/>
<text text-anchor="middle" x="2357" y="-99.8" font-family="Times,serif" font-size="14.00" fill="#000000">FlowListComponent</text>
</g>
<!-- FlowListComponent&#45;&gt;FlowsModule -->
<g id="edge4" class="edge">
<title>FlowListComponent&#45;&gt;FlowsModule</title>
<path fill="none" stroke="#000000" d="M2357,-122.308C2357,-142.1455 2357,-171 2357,-171 2357,-171 1449.8215,-171 1449.8215,-171"/>
<polygon fill="#000000" stroke="#000000" points="1449.8215,-167.5001 1439.8215,-171 1449.8215,-174.5001 1449.8215,-167.5001"/>
</g>
<!-- FlowEditDeliveryComponent -->
<g id="node5" class="node">
<title>FlowEditDeliveryComponent</title>
<polygon fill="#ffffb3" stroke="#000000" points="2273.4241,-122 2090.5759,-122 2090.5759,-86 2273.4241,-86 2273.4241,-122"/>
<text text-anchor="middle" x="2182" y="-99.8" font-family="Times,serif" font-size="14.00" fill="#000000">FlowEditDeliveryComponent</text>
</g>
<!-- FlowEditDeliveryComponent&#45;&gt;FlowsModule -->
<g id="edge5" class="edge">
<title>FlowEditDeliveryComponent&#45;&gt;FlowsModule</title>
<path fill="none" stroke="#000000" d="M2182,-122.2222C2182,-140.8285 2182,-167 2182,-167 2182,-167 1449.9927,-167 1449.9927,-167"/>
<polygon fill="#000000" stroke="#000000" points="1449.9927,-163.5001 1439.9927,-167 1449.9927,-170.5001 1449.9927,-163.5001"/>
</g>
<!-- FlowEditDetailComponent -->
<g id="node6" class="node">
<title>FlowEditDetailComponent</title>
<polygon fill="#ffffb3" stroke="#000000" points="2072.654,-122 1905.346,-122 1905.346,-86 2072.654,-86 2072.654,-122"/>
<text text-anchor="middle" x="1989" y="-99.8" font-family="Times,serif" font-size="14.00" fill="#000000">FlowEditDetailComponent</text>
</g>
<!-- FlowEditDetailComponent&#45;&gt;FlowsModule -->
<g id="edge6" class="edge">
<title>FlowEditDetailComponent&#45;&gt;FlowsModule</title>
<path fill="none" stroke="#000000" d="M1989,-122.0225C1989,-139.3734 1989,-163 1989,-163 1989,-163 1450.0159,-163 1450.0159,-163"/>
<polygon fill="#000000" stroke="#000000" points="1450.016,-159.5001 1440.0159,-163 1450.0159,-166.5001 1450.016,-159.5001"/>
</g>
<!-- FlowEditPlanningComponent -->
<g id="node7" class="node">
<title>FlowEditPlanningComponent</title>
<polygon fill="#ffffb3" stroke="#000000" points="1887.7245,-122 1704.2755,-122 1704.2755,-86 1887.7245,-86 1887.7245,-122"/>
<text text-anchor="middle" x="1796" y="-99.8" font-family="Times,serif" font-size="14.00" fill="#000000">FlowEditPlanningComponent</text>
</g>
<!-- FlowEditPlanningComponent&#45;&gt;FlowsModule -->
<g id="edge7" class="edge">
<title>FlowEditPlanningComponent&#45;&gt;FlowsModule</title>
<path fill="none" stroke="#000000" d="M1796,-122.0091C1796,-138.0494 1796,-159 1796,-159 1796,-159 1450.0179,-159 1450.0179,-159"/>
<polygon fill="#000000" stroke="#000000" points="1450.018,-155.5001 1440.0179,-159 1450.0179,-162.5001 1450.018,-155.5001"/>
</g>
<!-- FlowEditMaterialComponent -->
<g id="node8" class="node">
<title>FlowEditMaterialComponent</title>
<polygon fill="#ffffb3" stroke="#000000" points="1686.3668,-122 1505.6332,-122 1505.6332,-86 1686.3668,-86 1686.3668,-122"/>
<text text-anchor="middle" x="1596" y="-99.8" font-family="Times,serif" font-size="14.00" fill="#000000">FlowEditMaterialComponent</text>
</g>
<!-- FlowEditMaterialComponent&#45;&gt;FlowsModule -->
<g id="edge8" class="edge">
<title>FlowEditMaterialComponent&#45;&gt;FlowsModule</title>
<path fill="none" stroke="#000000" d="M1596,-122.1243C1596,-136.7832 1596,-155 1596,-155 1596,-155 1449.8272,-155 1449.8272,-155"/>
<polygon fill="#000000" stroke="#000000" points="1449.8272,-151.5001 1439.8272,-155 1449.8272,-158.5001 1449.8272,-151.5001"/>
</g>
<!-- FlowMaterialLinesComponent -->
<g id="node9" class="node">
<title>FlowMaterialLinesComponent</title>
<polygon fill="#ffffb3" stroke="#000000" points="1487.1358,-122 1298.8642,-122 1298.8642,-86 1487.1358,-86 1487.1358,-122"/>
<text text-anchor="middle" x="1393" y="-99.8" font-family="Times,serif" font-size="14.00" fill="#000000">FlowMaterialLinesComponent</text>
</g>
<!-- FlowMaterialLinesComponent&#45;&gt;FlowsModule -->
<g id="edge9" class="edge">
<title>FlowMaterialLinesComponent&#45;&gt;FlowsModule</title>
<path fill="none" stroke="#000000" d="M1393,-122.1061C1393,-122.1061 1393,-140.991 1393,-140.991"/>
<polygon fill="#000000" stroke="#000000" points="1389.5001,-140.9909 1393,-150.991 1396.5001,-140.991 1389.5001,-140.9909"/>
</g>
<!-- FlordersModule -->
<g id="node11" class="node">
<title>FlordersModule</title>
<polygon fill="#8dd3c7" stroke="#000000" points="1275.2036,-122 1272.2036,-126 1251.2036,-126 1248.2036,-122 1168.7964,-122 1168.7964,-86 1275.2036,-86 1275.2036,-122"/>
<text text-anchor="middle" x="1222" y="-99.8" font-family="Times,serif" font-size="14.00" fill="#000000">FlordersModule</text>
</g>
<!-- FlordersModule&#45;&gt;FlowsModule -->
<g id="edge10" class="edge">
<title>FlordersModule&#45;&gt;FlowsModule</title>
<path fill="none" stroke="#000000" d="M1222,-122.1243C1222,-136.7832 1222,-155 1222,-155 1222,-155 1335.8208,-155 1335.8208,-155"/>
<polygon fill="#000000" stroke="#000000" points="1335.8209,-158.5001 1345.8208,-155 1335.8208,-151.5001 1335.8209,-158.5001"/>
</g>
<!-- FlowsRoutingModule -->
<g id="node12" class="node">
<title>FlowsRoutingModule</title>
<polygon fill="#8dd3c7" stroke="#000000" points="1150.392,-122 1147.392,-126 1126.392,-126 1123.392,-122 1011.608,-122 1011.608,-86 1150.392,-86 1150.392,-122"/>
<text text-anchor="middle" x="1081" y="-99.8" font-family="Times,serif" font-size="14.00" fill="#000000">FlowsRoutingModule</text>
</g>
<!-- FlowsRoutingModule&#45;&gt;FlowsModule -->
<g id="edge11" class="edge">
<title>FlowsRoutingModule&#45;&gt;FlowsModule</title>
<path fill="none" stroke="#000000" d="M1081,-122.0091C1081,-138.0494 1081,-159 1081,-159 1081,-159 1335.9526,-159 1335.9526,-159"/>
<polygon fill="#000000" stroke="#000000" points="1335.9527,-162.5001 1345.9526,-159 1335.9526,-155.5001 1335.9527,-162.5001"/>
</g>
<!-- AngularMaterialModule -->
<g id="node13" class="node">
<title>AngularMaterialModule</title>
<polygon fill="#8dd3c7" stroke="#000000" points="993.3431,-122 990.3431,-126 969.3431,-126 966.3431,-122 840.6569,-122 840.6569,-86 993.3431,-86 993.3431,-122"/>
<text text-anchor="middle" x="917" y="-99.8" font-family="Times,serif" font-size="14.00" fill="#000000">AngularMaterialModule</text>
</g>
<!-- AngularMaterialModule&#45;&gt;FlowsModule -->
<g id="edge12" class="edge">
<title>AngularMaterialModule&#45;&gt;FlowsModule</title>
<path fill="none" stroke="#000000" d="M917,-122.0225C917,-139.3734 917,-163 917,-163 917,-163 1336.0566,-163 1336.0566,-163"/>
<polygon fill="#000000" stroke="#000000" points="1336.0566,-166.5001 1346.0566,-163 1336.0566,-159.5001 1336.0566,-166.5001"/>
</g>
<!-- SharedModule -->
<g id="node14" class="node">
<title>SharedModule</title>
<polygon fill="#8dd3c7" stroke="#000000" points="822.4231,-122 819.4231,-126 798.4231,-126 795.4231,-122 723.5769,-122 723.5769,-86 822.4231,-86 822.4231,-122"/>
<text text-anchor="middle" x="773" y="-99.8" font-family="Times,serif" font-size="14.00" fill="#000000">SharedModule</text>
</g>
<!-- SharedModule&#45;&gt;FlowsModule -->
<g id="edge13" class="edge">
<title>SharedModule&#45;&gt;FlowsModule</title>
<path fill="none" stroke="#000000" d="M773,-122.2222C773,-140.8285 773,-167 773,-167 773,-167 1336.1451,-167 1336.1451,-167"/>
<polygon fill="#000000" stroke="#000000" points="1336.1451,-170.5001 1346.1451,-167 1336.145,-163.5001 1336.1451,-170.5001"/>
</g>
<!-- CoreModule -->
<g id="node15" class="node">
<title>CoreModule</title>
<polygon fill="#8dd3c7" stroke="#000000" points="705.2619,-122 702.2619,-126 681.2619,-126 678.2619,-122 618.7381,-122 618.7381,-86 705.2619,-86 705.2619,-122"/>
<text text-anchor="middle" x="662" y="-99.8" font-family="Times,serif" font-size="14.00" fill="#000000">CoreModule</text>
</g>
<!-- CoreModule&#45;&gt;FlowsModule -->
<g id="edge14" class="edge">
<title>CoreModule&#45;&gt;FlowsModule</title>
<path fill="none" stroke="#000000" d="M662,-122.308C662,-142.1455 662,-171 662,-171 662,-171 1336.1606,-171 1336.1606,-171"/>
<polygon fill="#000000" stroke="#000000" points="1336.1607,-174.5001 1346.1606,-171 1336.1606,-167.5001 1336.1607,-174.5001"/>
</g>
<!-- AdalModule -->
<g id="node16" class="node">
<title>AdalModule</title>
<polygon fill="#8dd3c7" stroke="#000000" points="600.2619,-122 597.2619,-126 576.2619,-126 573.2619,-122 513.7381,-122 513.7381,-86 600.2619,-86 600.2619,-122"/>
<text text-anchor="middle" x="557" y="-99.8" font-family="Times,serif" font-size="14.00" fill="#000000">AdalModule</text>
</g>
<!-- AdalModule&#45;&gt;FlowsModule -->
<g id="edge15" class="edge">
<title>AdalModule&#45;&gt;FlowsModule</title>
<path fill="none" stroke="#000000" d="M557,-122.2843C557,-143.3211 557,-175 557,-175 557,-175 1335.9601,-175 1335.9601,-175"/>
<polygon fill="#000000" stroke="#000000" points="1335.9601,-178.5001 1345.9601,-175 1335.9601,-171.5001 1335.9601,-178.5001"/>
</g>
<!-- FlowDateAsyncValidator -->
<g id="node17" class="node">
<title>FlowDateAsyncValidator</title>
<ellipse fill="#fdb462" stroke="#000000" cx="380" cy="-104" rx="110.0103" ry="18"/>
<text text-anchor="middle" x="380" y="-99.8" font-family="Times,serif" font-size="14.00" fill="#000000">FlowDateAsyncValidator</text>
</g>
<!-- FlowDateAsyncValidator&#45;&gt;FlowsModule -->
<g id="edge16" class="edge">
<title>FlowDateAsyncValidator&#45;&gt;FlowsModule</title>
<path fill="none" stroke="#000000" d="M380,-122.1554C380,-144.3519 380,-179 380,-179 380,-179 1336.1725,-179 1336.1725,-179"/>
<polygon fill="#000000" stroke="#000000" points="1336.1726,-182.5001 1346.1725,-179 1336.1725,-175.5001 1336.1726,-182.5001"/>
</g>
<!-- PoNumberAsyncValidator -->
<g id="node18" class="node">
<title>PoNumberAsyncValidator</title>
<ellipse fill="#fdb462" stroke="#000000" cx="138" cy="-104" rx="114.0267" ry="18"/>
<text text-anchor="middle" x="138" y="-99.8" font-family="Times,serif" font-size="14.00" fill="#000000">PoNumberAsyncValidator</text>
</g>
<!-- PoNumberAsyncValidator&#45;&gt;FlowsModule -->
<g id="edge17" class="edge">
<title>PoNumberAsyncValidator&#45;&gt;FlowsModule</title>
<path fill="none" stroke="#000000" d="M138,-122.3228C138,-145.6602 138,-183 138,-183 138,-183 1336.093,-183 1336.093,-183"/>
<polygon fill="#000000" stroke="#000000" points="1336.093,-186.5001 1346.093,-183 1336.093,-179.5001 1336.093,-186.5001"/>
</g>
</g>
</svg>
