<?xml version="1.0" encoding="UTF-8" standalone="no"?>
<!DOCTYPE svg PUBLIC "-//W3C//DTD SVG 1.1//EN"
 "http://www.w3.org/Graphics/SVG/1.1/DTD/svg11.dtd">
<!-- Generated by graphviz version 2.40.1 (20161225.0304)
 -->
<!-- Title: dependencies Pages: 1 -->
<svg width="1450pt" height="284pt"
 viewBox="0.00 0.00 1450.00 284.00" xmlns="http://www.w3.org/2000/svg" xmlns:xlink="http://www.w3.org/1999/xlink">
<g id="graph0" class="graph" transform="scale(1 1) rotate(0) translate(4 280)">
<title>dependencies</title>
<polygon fill="#ffffff" stroke="transparent" points="-4,4 -4,-280 1446,-280 1446,4 -4,4"/>
<text text-anchor="start" x="700.0091" y="-42.4" font-family="sans-serif" font-weight="bold" font-size="14.00" fill="#000000">Legend</text>
<polygon fill="#ffffb3" stroke="transparent" points="487,-10 487,-30 507,-30 507,-10 487,-10"/>
<text text-anchor="start" x="510.629" y="-15.4" font-family="sans-serif" font-size="14.00" fill="#000000"> &#160;Declarations</text>
<polygon fill="#8dd3c7" stroke="transparent" points="600,-10 600,-30 620,-30 620,-10 600,-10"/>
<text text-anchor="start" x="623.7251" y="-15.4" font-family="sans-serif" font-size="14.00" fill="#000000"> &#160;Module</text>
<polygon fill="#80b1d3" stroke="transparent" points="686,-10 686,-30 706,-30 706,-10 686,-10"/>
<text text-anchor="start" x="709.7812" y="-15.4" font-family="sans-serif" font-size="14.00" fill="#000000"> &#160;Bootstrap</text>
<polygon fill="#fdb462" stroke="transparent" points="783,-10 783,-30 803,-30 803,-10 783,-10"/>
<text text-anchor="start" x="806.6732" y="-15.4" font-family="sans-serif" font-size="14.00" fill="#000000"> &#160;Providers</text>
<polygon fill="#fb8072" stroke="transparent" points="879,-10 879,-30 899,-30 899,-10 879,-10"/>
<text text-anchor="start" x="902.7258" y="-15.4" font-family="sans-serif" font-size="14.00" fill="#000000"> &#160;Exports</text>
<g id="clust1" class="cluster">
<title>cluster_FormComponentsModule</title>
<polygon fill="none" stroke="#000000" stroke-dasharray="1,5" points="8,-70 8,-268 1434,-268 1434,-70 8,-70"/>
</g>
<g id="clust2" class="cluster">
<title>cluster_FormComponentsModule_declarations</title>
<polygon fill="none" stroke="#000000" points="297,-78 297,-130 1426,-130 1426,-78 297,-78"/>
</g>
<g id="clust14" class="cluster">
<title>cluster_FormComponentsModule_imports</title>
<polygon fill="none" stroke="#000000" points="16,-78 16,-130 289,-130 289,-78 16,-78"/>
</g>
<g id="clust15" class="cluster">
<title>cluster_FormComponentsModule_exports</title>
<polygon fill="none" stroke="#000000" points="209,-208 209,-260 1364,-260 1364,-208 209,-208"/>
</g>
<!-- TextInput -->
<g id="node1" class="node">
<title>TextInput</title>
<polygon fill="#ffffb3" stroke="#000000" points="1417.7093,-122 1346.2907,-122 1346.2907,-86 1417.7093,-86 1417.7093,-122"/>
<text text-anchor="middle" x="1382" y="-99.8" font-family="Times,serif" font-size="14.00" fill="#000000">TextInput</text>
</g>
<!-- FormComponentsModule -->
<g id="node12" class="node">
<title>FormComponentsModule</title>
<polygon fill="#8dd3c7" stroke="#000000" points="917.161,-187 914.161,-191 893.161,-191 890.161,-187 756.839,-187 756.839,-151 917.161,-151 917.161,-187"/>
<text text-anchor="middle" x="837" y="-164.8" font-family="Times,serif" font-size="14.00" fill="#000000">FormComponentsModule</text>
</g>
<!-- TextInput&#45;&gt;FormComponentsModule -->
<g id="edge1" class="edge">
<title>TextInput&#45;&gt;FormComponentsModule</title>
<path fill="none" stroke="#000000" d="M1351.375,-122.1061C1351.375,-141.3391 1351.375,-169 1351.375,-169 1351.375,-169 927.3711,-169 927.3711,-169"/>
<polygon fill="#000000" stroke="#000000" points="927.3711,-165.5001 917.3711,-169 927.3711,-172.5001 927.3711,-165.5001"/>
</g>
<!-- Label -->
<g id="node2" class="node">
<title>Label</title>
<polygon fill="#ffffb3" stroke="#000000" points="1328,-122 1274,-122 1274,-86 1328,-86 1328,-122"/>
<text text-anchor="middle" x="1301" y="-99.8" font-family="Times,serif" font-size="14.00" fill="#000000">Label</text>
</g>
<!-- Label&#45;&gt;FormComponentsModule -->
<g id="edge2" class="edge">
<title>Label&#45;&gt;FormComponentsModule</title>
<path fill="none" stroke="#000000" d="M1277.8228,-122.2667C1277.8228,-140.5552 1277.8228,-166 1277.8228,-166 1277.8228,-166 927.3411,-166 927.3411,-166"/>
<polygon fill="#000000" stroke="#000000" points="927.3411,-162.5001 917.3411,-166 927.3411,-169.5001 927.3411,-162.5001"/>
</g>
<!-- Checkbox -->
<g id="node3" class="node">
<title>Checkbox</title>
<polygon fill="#ffffb3" stroke="#000000" points="1256.2662,-122 1183.7338,-122 1183.7338,-86 1256.2662,-86 1256.2662,-122"/>
<text text-anchor="middle" x="1220" y="-99.8" font-family="Times,serif" font-size="14.00" fill="#000000">Checkbox</text>
</g>
<!-- Checkbox&#45;&gt;FormComponentsModule -->
<g id="edge3" class="edge">
<title>Checkbox&#45;&gt;FormComponentsModule</title>
<path fill="none" stroke="#000000" d="M1187.875,-122.0336C1187.875,-139.0597 1187.875,-162 1187.875,-162 1187.875,-162 927.4978,-162 927.4978,-162"/>
<polygon fill="#000000" stroke="#000000" points="927.4978,-158.5001 917.4978,-162 927.4978,-165.5001 927.4978,-158.5001"/>
</g>
<!-- DateInputComponent -->
<g id="node4" class="node">
<title>DateInputComponent</title>
<polygon fill="#ffffb3" stroke="#000000" points="1165.8104,-122 1028.1896,-122 1028.1896,-86 1165.8104,-86 1165.8104,-122"/>
<text text-anchor="middle" x="1097" y="-99.8" font-family="Times,serif" font-size="14.00" fill="#000000">DateInputComponent</text>
</g>
<!-- DateInputComponent&#45;&gt;FormComponentsModule -->
<g id="edge4" class="edge">
<title>DateInputComponent&#45;&gt;FormComponentsModule</title>
<path fill="none" stroke="#000000" d="M1062.875,-122.0091C1062.875,-138.0494 1062.875,-159 1062.875,-159 1062.875,-159 927.2711,-159 927.2711,-159"/>
<polygon fill="#000000" stroke="#000000" points="927.2711,-155.5001 917.2711,-159 927.271,-162.5001 927.2711,-155.5001"/>
</g>
<!-- Select -->
<g id="node5" class="node">
<title>Select</title>
<polygon fill="#ffffb3" stroke="#000000" points="1010,-122 956,-122 956,-86 1010,-86 1010,-122"/>
<text text-anchor="middle" x="983" y="-99.8" font-family="Times,serif" font-size="14.00" fill="#000000">Select</text>
</g>
<!-- Select&#45;&gt;FormComponentsModule -->
<g id="edge5" class="edge">
<title>Select&#45;&gt;FormComponentsModule</title>
<path fill="none" stroke="#000000" d="M992.1983,-122.1243C992.1983,-136.7832 992.1983,-155 992.1983,-155 992.1983,-155 927.3268,-155 927.3268,-155"/>
<polygon fill="#000000" stroke="#000000" points="927.3268,-151.5001 917.3268,-155 927.3267,-158.5001 927.3268,-151.5001"/>
</g>
<!-- Toggle -->
<g id="node6" class="node">
<title>Toggle</title>
<polygon fill="#ffffb3" stroke="#000000" points="937.6588,-122 882.3412,-122 882.3412,-86 937.6588,-86 937.6588,-122"/>
<text text-anchor="middle" x="910" y="-99.8" font-family="Times,serif" font-size="14.00" fill="#000000">Toggle</text>
</g>
<!-- Toggle&#45;&gt;FormComponentsModule -->
<g id="edge6" class="edge">
<title>Toggle&#45;&gt;FormComponentsModule</title>
<path fill="none" stroke="#000000" d="M899.7507,-122.1061C899.7507,-122.1061 899.7507,-140.991 899.7507,-140.991"/>
<polygon fill="#000000" stroke="#000000" points="896.2508,-140.9909 899.7507,-150.991 903.2508,-140.991 896.2508,-140.9909"/>
</g>
<!-- Radio -->
<g id="node7" class="node">
<title>Radio</title>
<polygon fill="#ffffb3" stroke="#000000" points="864,-122 810,-122 810,-86 864,-86 864,-122"/>
<text text-anchor="middle" x="837" y="-99.8" font-family="Times,serif" font-size="14.00" fill="#000000">Radio</text>
</g>
<!-- Radio&#45;&gt;FormComponentsModule -->
<g id="edge7" class="edge">
<title>Radio&#45;&gt;FormComponentsModule</title>
<path fill="none" stroke="#000000" d="M837,-122.1061C837,-122.1061 837,-140.991 837,-140.991"/>
<polygon fill="#000000" stroke="#000000" points="833.5001,-140.9909 837,-150.991 840.5001,-140.991 833.5001,-140.9909"/>
</g>
<!-- RadioGroup -->
<g id="node8" class="node">
<title>RadioGroup</title>
<polygon fill="#ffffb3" stroke="#000000" points="791.7093,-122 706.2907,-122 706.2907,-86 791.7093,-86 791.7093,-122"/>
<text text-anchor="middle" x="749" y="-99.8" font-family="Times,serif" font-size="14.00" fill="#000000">RadioGroup</text>
</g>
<!-- RadioGroup&#45;&gt;FormComponentsModule -->
<g id="edge8" class="edge">
<title>RadioGroup&#45;&gt;FormComponentsModule</title>
<path fill="none" stroke="#000000" d="M774.1371,-122.1061C774.1371,-122.1061 774.1371,-140.991 774.1371,-140.991"/>
<polygon fill="#000000" stroke="#000000" points="770.6372,-140.9909 774.1371,-150.991 777.6372,-140.991 770.6372,-140.9909"/>
</g>
<!-- ErrorTagComponent -->
<g id="node9" class="node">
<title>ErrorTagComponent</title>
<polygon fill="#ffffb3" stroke="#000000" points="688.1345,-122 555.8655,-122 555.8655,-86 688.1345,-86 688.1345,-122"/>
<text text-anchor="middle" x="622" y="-99.8" font-family="Times,serif" font-size="14.00" fill="#000000">ErrorTagComponent</text>
</g>
<!-- ErrorTagComponent&#45;&gt;FormComponentsModule -->
<g id="edge9" class="edge">
<title>ErrorTagComponent&#45;&gt;FormComponentsModule</title>
<path fill="none" stroke="#000000" d="M658.4813,-122.1243C658.4813,-136.7832 658.4813,-155 658.4813,-155 658.4813,-155 746.6186,-155 746.6186,-155"/>
<polygon fill="#000000" stroke="#000000" points="746.6187,-158.5001 756.6186,-155 746.6186,-151.5001 746.6187,-158.5001"/>
</g>
<!-- ButtonComponent -->
<g id="node10" class="node">
<title>ButtonComponent</title>
<polygon fill="#ffffb3" stroke="#000000" points="537.9511,-122 418.0489,-122 418.0489,-86 537.9511,-86 537.9511,-122"/>
<text text-anchor="middle" x="478" y="-99.8" font-family="Times,serif" font-size="14.00" fill="#000000">ButtonComponent</text>
</g>
<!-- ButtonComponent&#45;&gt;FormComponentsModule -->
<g id="edge10" class="edge">
<title>ButtonComponent&#45;&gt;FormComponentsModule</title>
<path fill="none" stroke="#000000" d="M506.3291,-122.0091C506.3291,-138.0494 506.3291,-159 506.3291,-159 506.3291,-159 746.5316,-159 746.5316,-159"/>
<polygon fill="#000000" stroke="#000000" points="746.5317,-162.5001 756.5316,-159 746.5316,-155.5001 746.5317,-162.5001"/>
</g>
<!-- Autocomplete -->
<g id="node11" class="node">
<title>Autocomplete</title>
<polygon fill="#ffffb3" stroke="#000000" points="400.8133,-122 305.1867,-122 305.1867,-86 400.8133,-86 400.8133,-122"/>
<text text-anchor="middle" x="353" y="-99.8" font-family="Times,serif" font-size="14.00" fill="#000000">Autocomplete</text>
</g>
<!-- Autocomplete&#45;&gt;FormComponentsModule -->
<g id="edge11" class="edge">
<title>Autocomplete&#45;&gt;FormComponentsModule</title>
<path fill="none" stroke="#000000" d="M367.0907,-122.0336C367.0907,-139.0597 367.0907,-162 367.0907,-162 367.0907,-162 746.7536,-162 746.7536,-162"/>
<polygon fill="#000000" stroke="#000000" points="746.7537,-165.5001 756.7536,-162 746.7536,-158.5001 746.7537,-165.5001"/>
</g>
<!-- TextInput  -->
<g id="node15" class="node">
<title>TextInput </title>
<polygon fill="#fb8072" stroke="#000000" points="1356.2096,-252 1281.7904,-252 1281.7904,-216 1356.2096,-216 1356.2096,-252"/>
<text text-anchor="middle" x="1319" y="-229.8" font-family="Times,serif" font-size="14.00" fill="#000000">TextInput </text>
</g>
<!-- FormComponentsModule&#45;&gt;TextInput  -->
<g id="edge14" class="edge">
<title>FormComponentsModule&#45;&gt;TextInput </title>
<path fill="none" stroke="#000000" stroke-dasharray="5,2" d="M917.4216,-173C1051.179,-173 1304.8228,-173 1304.8228,-173 1304.8228,-173 1304.8228,-205.698 1304.8228,-205.698"/>
<polygon fill="#000000" stroke="#000000" points="1301.3228,-205.698 1304.8228,-215.698 1308.3228,-205.698 1301.3228,-205.698"/>
</g>
<!-- Label  -->
<g id="node16" class="node">
<title>Label </title>
<polygon fill="#fb8072" stroke="#000000" points="1264,-252 1210,-252 1210,-216 1264,-216 1264,-252"/>
<text text-anchor="middle" x="1237" y="-229.8" font-family="Times,serif" font-size="14.00" fill="#000000">Label </text>
</g>
<!-- FormComponentsModule&#45;&gt;Label  -->
<g id="edge15" class="edge">
<title>FormComponentsModule&#45;&gt;Label </title>
<path fill="none" stroke="#000000" stroke-dasharray="5,2" d="M917.1753,-177C1032.9436,-177 1233.1915,-177 1233.1915,-177 1233.1915,-177 1233.1915,-205.9648 1233.1915,-205.9648"/>
<polygon fill="#000000" stroke="#000000" points="1229.6915,-205.9648 1233.1915,-215.9648 1236.6915,-205.9649 1229.6915,-205.9648"/>
</g>
<!-- Checkbox  -->
<g id="node17" class="node">
<title>Checkbox </title>
<polygon fill="#fb8072" stroke="#000000" points="1192.2663,-252 1115.7337,-252 1115.7337,-216 1192.2663,-216 1192.2663,-252"/>
<text text-anchor="middle" x="1154" y="-229.8" font-family="Times,serif" font-size="14.00" fill="#000000">Checkbox </text>
</g>
<!-- FormComponentsModule&#45;&gt;Checkbox  -->
<g id="edge16" class="edge">
<title>FormComponentsModule&#45;&gt;Checkbox </title>
<path fill="none" stroke="#000000" stroke-dasharray="5,2" d="M917.207,-180C1007.2025,-180 1140.7611,-180 1140.7611,-180 1140.7611,-180 1140.7611,-205.7181 1140.7611,-205.7181"/>
<polygon fill="#000000" stroke="#000000" points="1137.2611,-205.718 1140.7611,-215.7181 1144.2611,-205.7181 1137.2611,-205.718"/>
</g>
<!-- DateInputComponent  -->
<g id="node18" class="node">
<title>DateInputComponent </title>
<polygon fill="#fb8072" stroke="#000000" points="1097.3101,-252 956.6899,-252 956.6899,-216 1097.3101,-216 1097.3101,-252"/>
<text text-anchor="middle" x="1027" y="-229.8" font-family="Times,serif" font-size="14.00" fill="#000000">DateInputComponent </text>
</g>
<!-- FormComponentsModule&#45;&gt;DateInputComponent  -->
<g id="edge17" class="edge">
<title>FormComponentsModule&#45;&gt;DateInputComponent </title>
<path fill="none" stroke="#000000" stroke-dasharray="5,2" d="M917.3217,-184C947.3889,-184 974.3967,-184 974.3967,-184 974.3967,-184 974.3967,-205.9489 974.3967,-205.9489"/>
<polygon fill="#000000" stroke="#000000" points="970.8968,-205.9488 974.3967,-215.9489 977.8968,-205.9489 970.8968,-205.9488"/>
</g>
<!-- Select  -->
<g id="node19" class="node">
<title>Select </title>
<polygon fill="#fb8072" stroke="#000000" points="939,-252 885,-252 885,-216 939,-216 939,-252"/>
<text text-anchor="middle" x="912" y="-229.8" font-family="Times,serif" font-size="14.00" fill="#000000">Select </text>
</g>
<!-- FormComponentsModule&#45;&gt;Select  -->
<g id="edge18" class="edge">
<title>FormComponentsModule&#45;&gt;Select </title>
<path fill="none" stroke="#000000" stroke-dasharray="5,2" d="M901.1652,-187.1061C901.1652,-187.1061 901.1652,-205.991 901.1652,-205.991"/>
<polygon fill="#000000" stroke="#000000" points="897.6652,-205.9909 901.1652,-215.991 904.6652,-205.991 897.6652,-205.9909"/>
</g>
<!-- Toggle  -->
<g id="node20" class="node">
<title>Toggle </title>
<polygon fill="#fb8072" stroke="#000000" points="866.658,-252 807.342,-252 807.342,-216 866.658,-216 866.658,-252"/>
<text text-anchor="middle" x="837" y="-229.8" font-family="Times,serif" font-size="14.00" fill="#000000">Toggle </text>
</g>
<!-- FormComponentsModule&#45;&gt;Toggle  -->
<g id="edge19" class="edge">
<title>FormComponentsModule&#45;&gt;Toggle </title>
<path fill="none" stroke="#000000" stroke-dasharray="5,2" d="M837,-187.1061C837,-187.1061 837,-205.991 837,-205.991"/>
<polygon fill="#000000" stroke="#000000" points="833.5001,-205.9909 837,-215.991 840.5001,-205.991 833.5001,-205.9909"/>
</g>
<!-- Radio  -->
<g id="node21" class="node">
<title>Radio </title>
<polygon fill="#fb8072" stroke="#000000" points="789,-252 735,-252 735,-216 789,-216 789,-252"/>
<text text-anchor="middle" x="762" y="-229.8" font-family="Times,serif" font-size="14.00" fill="#000000">Radio </text>
</g>
<!-- FormComponentsModule&#45;&gt;Radio  -->
<g id="edge20" class="edge">
<title>FormComponentsModule&#45;&gt;Radio </title>
<path fill="none" stroke="#000000" stroke-dasharray="5,2" d="M772.8349,-187.1061C772.8349,-187.1061 772.8349,-205.991 772.8349,-205.991"/>
<polygon fill="#000000" stroke="#000000" points="769.3349,-205.9909 772.8349,-215.991 776.3349,-205.991 769.3349,-205.9909"/>
</g>
<!-- RadioGroup  -->
<g id="node22" class="node">
<title>RadioGroup </title>
<polygon fill="#fb8072" stroke="#000000" points="717.2095,-252 628.7905,-252 628.7905,-216 717.2095,-216 717.2095,-252"/>
<text text-anchor="middle" x="673" y="-229.8" font-family="Times,serif" font-size="14.00" fill="#000000">RadioGroup </text>
</g>
<!-- FormComponentsModule&#45;&gt;RadioGroup  -->
<g id="edge21" class="edge">
<title>FormComponentsModule&#45;&gt;RadioGroup </title>
<path fill="none" stroke="#000000" stroke-dasharray="5,2" d="M756.6946,-184C732.3274,-184 711.875,-184 711.875,-184 711.875,-184 711.875,-205.9489 711.875,-205.9489"/>
<polygon fill="#000000" stroke="#000000" points="708.3751,-205.9488 711.875,-215.9489 715.3751,-205.9489 708.3751,-205.9488"/>
</g>
<!-- ErrorTagComponent  -->
<g id="node23" class="node">
<title>ErrorTagComponent </title>
<polygon fill="#fb8072" stroke="#000000" points="611.1341,-252 474.8659,-252 474.8659,-216 611.1341,-216 611.1341,-252"/>
<text text-anchor="middle" x="543" y="-229.8" font-family="Times,serif" font-size="14.00" fill="#000000">ErrorTagComponent </text>
</g>
<!-- FormComponentsModule&#45;&gt;ErrorTagComponent  -->
<g id="edge22" class="edge">
<title>FormComponentsModule&#45;&gt;ErrorTagComponent </title>
<path fill="none" stroke="#000000" stroke-dasharray="5,2" d="M756.7515,-180C682.4473,-180 583.375,-180 583.375,-180 583.375,-180 583.375,-205.7181 583.375,-205.7181"/>
<polygon fill="#000000" stroke="#000000" points="579.8751,-205.718 583.375,-215.7181 586.8751,-205.7181 579.8751,-205.718"/>
</g>
<!-- ButtonComponent  -->
<g id="node24" class="node">
<title>ButtonComponent </title>
<polygon fill="#fb8072" stroke="#000000" points="456.4502,-252 333.5498,-252 333.5498,-216 456.4502,-216 456.4502,-252"/>
<text text-anchor="middle" x="395" y="-229.8" font-family="Times,serif" font-size="14.00" fill="#000000">ButtonComponent </text>
</g>
<!-- FormComponentsModule&#45;&gt;ButtonComponent  -->
<g id="edge23" class="edge">
<title>FormComponentsModule&#45;&gt;ButtonComponent </title>
<path fill="none" stroke="#000000" stroke-dasharray="5,2" d="M756.6106,-177C639.9136,-177 437.375,-177 437.375,-177 437.375,-177 437.375,-205.9648 437.375,-205.9648"/>
<polygon fill="#000000" stroke="#000000" points="433.8751,-205.9648 437.375,-215.9648 440.8751,-205.9649 433.8751,-205.9648"/>
</g>
<!-- Autocomplete  -->
<g id="node25" class="node">
<title>Autocomplete </title>
<polygon fill="#fb8072" stroke="#000000" points="315.313,-252 216.687,-252 216.687,-216 315.313,-216 315.313,-252"/>
<text text-anchor="middle" x="266" y="-229.8" font-family="Times,serif" font-size="14.00" fill="#000000">Autocomplete </text>
</g>
<!-- FormComponentsModule&#45;&gt;Autocomplete  -->
<g id="edge24" class="edge">
<title>FormComponentsModule&#45;&gt;Autocomplete </title>
<path fill="none" stroke="#000000" stroke-dasharray="5,2" d="M756.7306,-173C609.3077,-173 310.375,-173 310.375,-173 310.375,-173 310.375,-205.698 310.375,-205.698"/>
<polygon fill="#000000" stroke="#000000" points="306.8751,-205.698 310.375,-215.698 313.8751,-205.698 306.8751,-205.698"/>
</g>
<!-- AngularMaterialModule -->
<g id="node13" class="node">
<title>AngularMaterialModule</title>
<polygon fill="#8dd3c7" stroke="#000000" points="281.3431,-122 278.3431,-126 257.3431,-126 254.3431,-122 128.6569,-122 128.6569,-86 281.3431,-86 281.3431,-122"/>
<text text-anchor="middle" x="205" y="-99.8" font-family="Times,serif" font-size="14.00" fill="#000000">AngularMaterialModule</text>
</g>
<!-- AngularMaterialModule&#45;&gt;FormComponentsModule -->
<g id="edge12" class="edge">
<title>AngularMaterialModule&#45;&gt;FormComponentsModule</title>
<path fill="none" stroke="#000000" d="M249.0076,-122.2667C249.0076,-140.5552 249.0076,-166 249.0076,-166 249.0076,-166 746.7821,-166 746.7821,-166"/>
<polygon fill="#000000" stroke="#000000" points="746.7822,-169.5001 756.7821,-166 746.7821,-162.5001 746.7822,-169.5001"/>
</g>
<!-- CoreModule -->
<g id="node14" class="node">
<title>CoreModule</title>
<polygon fill="#8dd3c7" stroke="#000000" points="110.2619,-122 107.2619,-126 86.2619,-126 83.2619,-122 23.7381,-122 23.7381,-86 110.2619,-86 110.2619,-122"/>
<text text-anchor="middle" x="67" y="-99.8" font-family="Times,serif" font-size="14.00" fill="#000000">CoreModule</text>
</g>
<!-- CoreModule&#45;&gt;FormComponentsModule -->
<g id="edge13" class="edge">
<title>CoreModule&#45;&gt;FormComponentsModule</title>
<path fill="none" stroke="#000000" d="M67,-122.1061C67,-141.3391 67,-169 67,-169 67,-169 746.7756,-169 746.7756,-169"/>
<polygon fill="#000000" stroke="#000000" points="746.7756,-172.5001 756.7756,-169 746.7755,-165.5001 746.7756,-172.5001"/>
</g>
</g>
</svg>
