<?xml version="1.0" encoding="UTF-8" standalone="no"?>
<!DOCTYPE svg PUBLIC "-//W3C//DTD SVG 1.1//EN"
 "http://www.w3.org/Graphics/SVG/1.1/DTD/svg11.dtd">
<!-- Generated by graphviz version 2.40.1 (20161225.0304)
 -->
<!-- Title: dependencies Pages: 1 -->
<svg width="1334pt" height="211pt"
 viewBox="0.00 0.00 1334.00 211.00" xmlns="http://www.w3.org/2000/svg" xmlns:xlink="http://www.w3.org/1999/xlink">
<g id="graph0" class="graph" transform="scale(1 1) rotate(0) translate(4 207)">
<title>dependencies</title>
<polygon fill="#ffffff" stroke="transparent" points="-4,4 -4,-207 1330,-207 1330,4 -4,4"/>
<text text-anchor="start" x="642.0091" y="-42.4" font-family="sans-serif" font-weight="bold" font-size="14.00" fill="#000000">Legend</text>
<polygon fill="#ffffb3" stroke="transparent" points="429,-10 429,-30 449,-30 449,-10 429,-10"/>
<text text-anchor="start" x="452.629" y="-15.4" font-family="sans-serif" font-size="14.00" fill="#000000"> &#160;Declarations</text>
<polygon fill="#8dd3c7" stroke="transparent" points="542,-10 542,-30 562,-30 562,-10 542,-10"/>
<text text-anchor="start" x="565.7251" y="-15.4" font-family="sans-serif" font-size="14.00" fill="#000000"> &#160;Module</text>
<polygon fill="#80b1d3" stroke="transparent" points="628,-10 628,-30 648,-30 648,-10 628,-10"/>
<text text-anchor="start" x="651.7812" y="-15.4" font-family="sans-serif" font-size="14.00" fill="#000000"> &#160;Bootstrap</text>
<polygon fill="#fdb462" stroke="transparent" points="725,-10 725,-30 745,-30 745,-10 725,-10"/>
<text text-anchor="start" x="748.6732" y="-15.4" font-family="sans-serif" font-size="14.00" fill="#000000"> &#160;Providers</text>
<polygon fill="#fb8072" stroke="transparent" points="821,-10 821,-30 841,-30 841,-10 821,-10"/>
<text text-anchor="start" x="844.7258" y="-15.4" font-family="sans-serif" font-size="14.00" fill="#000000"> &#160;Exports</text>
<g id="clust1" class="cluster">
<title>cluster_SelectCustomerModule</title>
<polygon fill="none" stroke="#000000" stroke-dasharray="1,5" points="8,-70 8,-195 1318,-195 1318,-70 8,-70"/>
</g>
<g id="clust2" class="cluster">
<title>cluster_SelectCustomerModule_declarations</title>
<polygon fill="none" stroke="#000000" points="625,-78 625,-130 1310,-130 1310,-78 625,-78"/>
</g>
<g id="clust8" class="cluster">
<title>cluster_SelectCustomerModule_imports</title>
<polygon fill="none" stroke="#000000" points="16,-78 16,-130 617,-130 617,-78 16,-78"/>
</g>
<!-- TileComponent -->
<g id="node1" class="node">
<title>TileComponent</title>
<polygon fill="#ffffb3" stroke="#000000" points="1301.8809,-122 1198.1191,-122 1198.1191,-86 1301.8809,-86 1301.8809,-122"/>
<text text-anchor="middle" x="1250" y="-99.8" font-family="Times,serif" font-size="14.00" fill="#000000">TileComponent</text>
</g>
<!-- SelectCustomerModule -->
<g id="node6" class="node">
<title>SelectCustomerModule</title>
<polygon fill="#8dd3c7" stroke="#000000" points="787.1951,-187 784.1951,-191 763.1951,-191 760.1951,-187 638.8049,-187 638.8049,-151 787.1951,-151 787.1951,-187"/>
<text text-anchor="middle" x="713" y="-164.8" font-family="Times,serif" font-size="14.00" fill="#000000">SelectCustomerModule</text>
</g>
<!-- TileComponent&#45;&gt;SelectCustomerModule -->
<g id="edge1" class="edge">
<title>TileComponent&#45;&gt;SelectCustomerModule</title>
<path fill="none" stroke="#000000" d="M1250,-122.0109C1250,-144.4852 1250,-180 1250,-180 1250,-180 797.1038,-180 797.1038,-180"/>
<polygon fill="#000000" stroke="#000000" points="797.1038,-176.5001 787.1038,-180 797.1037,-183.5001 797.1038,-176.5001"/>
</g>
<!-- TileListComponent -->
<g id="node2" class="node">
<title>TileListComponent</title>
<polygon fill="#ffffb3" stroke="#000000" points="1179.6597,-122 1054.3403,-122 1054.3403,-86 1179.6597,-86 1179.6597,-122"/>
<text text-anchor="middle" x="1117" y="-99.8" font-family="Times,serif" font-size="14.00" fill="#000000">TileListComponent</text>
</g>
<!-- TileListComponent&#45;&gt;SelectCustomerModule -->
<g id="edge2" class="edge">
<title>TileListComponent&#45;&gt;SelectCustomerModule</title>
<path fill="none" stroke="#000000" d="M1117,-122.1289C1117,-142.5724 1117,-173 1117,-173 1117,-173 797.0998,-173 797.0998,-173"/>
<polygon fill="#000000" stroke="#000000" points="797.0999,-169.5001 787.0998,-173 797.0998,-176.5001 797.0999,-169.5001"/>
</g>
<!-- TilePageComponent -->
<g id="node3" class="node">
<title>TilePageComponent</title>
<polygon fill="#ffffb3" stroke="#000000" points="1036.5926,-122 905.4074,-122 905.4074,-86 1036.5926,-86 1036.5926,-122"/>
<text text-anchor="middle" x="971" y="-99.8" font-family="Times,serif" font-size="14.00" fill="#000000">TilePageComponent</text>
</g>
<!-- TilePageComponent&#45;&gt;SelectCustomerModule -->
<g id="edge3" class="edge">
<title>TilePageComponent&#45;&gt;SelectCustomerModule</title>
<path fill="none" stroke="#000000" d="M971,-122.2667C971,-140.5552 971,-166 971,-166 971,-166 797.2782,-166 797.2782,-166"/>
<polygon fill="#000000" stroke="#000000" points="797.2782,-162.5001 787.2782,-166 797.2781,-169.5001 797.2782,-162.5001"/>
</g>
<!-- TileSearch -->
<g id="node4" class="node">
<title>TileSearch</title>
<polygon fill="#ffffb3" stroke="#000000" points="887.1363,-122 810.8637,-122 810.8637,-86 887.1363,-86 887.1363,-122"/>
<text text-anchor="middle" x="849" y="-99.8" font-family="Times,serif" font-size="14.00" fill="#000000">TileSearch</text>
</g>
<!-- TileSearch&#45;&gt;SelectCustomerModule -->
<g id="edge4" class="edge">
<title>TileSearch&#45;&gt;SelectCustomerModule</title>
<path fill="none" stroke="#000000" d="M849,-122.0091C849,-138.0494 849,-159 849,-159 849,-159 797.3667,-159 797.3667,-159"/>
<polygon fill="#000000" stroke="#000000" points="797.3667,-155.5001 787.3667,-159 797.3667,-162.5001 797.3667,-155.5001"/>
</g>
<!-- SelectCustomerContainer -->
<g id="node5" class="node">
<title>SelectCustomerContainer</title>
<polygon fill="#ffffb3" stroke="#000000" points="792.8529,-122 633.1471,-122 633.1471,-86 792.8529,-86 792.8529,-122"/>
<text text-anchor="middle" x="713" y="-99.8" font-family="Times,serif" font-size="14.00" fill="#000000">SelectCustomerContainer</text>
</g>
<!-- SelectCustomerContainer&#45;&gt;SelectCustomerModule -->
<g id="edge5" class="edge">
<title>SelectCustomerContainer&#45;&gt;SelectCustomerModule</title>
<path fill="none" stroke="#000000" d="M713,-122.1061C713,-122.1061 713,-140.991 713,-140.991"/>
<polygon fill="#000000" stroke="#000000" points="709.5001,-140.9909 713,-150.991 716.5001,-140.991 709.5001,-140.9909"/>
</g>
<!-- SharedModule -->
<g id="node7" class="node">
<title>SharedModule</title>
<polygon fill="#8dd3c7" stroke="#000000" points="609.4231,-122 606.4231,-126 585.4231,-126 582.4231,-122 510.5769,-122 510.5769,-86 609.4231,-86 609.4231,-122"/>
<text text-anchor="middle" x="560" y="-99.8" font-family="Times,serif" font-size="14.00" fill="#000000">SharedModule</text>
</g>
<!-- SharedModule&#45;&gt;SelectCustomerModule -->
<g id="edge6" class="edge">
<title>SharedModule&#45;&gt;SelectCustomerModule</title>
<path fill="none" stroke="#000000" d="M560,-122.0091C560,-138.0494 560,-159 560,-159 560,-159 628.7409,-159 628.7409,-159"/>
<polygon fill="#000000" stroke="#000000" points="628.741,-162.5001 638.7409,-159 628.7409,-155.5001 628.741,-162.5001"/>
</g>
<!-- SelectCustomerRoutingModule -->
<g id="node8" class="node">
<title>SelectCustomerRoutingModule</title>
<polygon fill="#8dd3c7" stroke="#000000" points="492.8131,-122 489.8131,-126 468.8131,-126 465.8131,-122 299.1869,-122 299.1869,-86 492.8131,-86 492.8131,-122"/>
<text text-anchor="middle" x="396" y="-99.8" font-family="Times,serif" font-size="14.00" fill="#000000">SelectCustomerRoutingModule</text>
</g>
<!-- SelectCustomerRoutingModule&#45;&gt;SelectCustomerModule -->
<g id="edge7" class="edge">
<title>SelectCustomerRoutingModule&#45;&gt;SelectCustomerModule</title>
<path fill="none" stroke="#000000" d="M396,-122.2667C396,-140.5552 396,-166 396,-166 396,-166 628.6776,-166 628.6776,-166"/>
<polygon fill="#000000" stroke="#000000" points="628.6776,-169.5001 638.6776,-166 628.6775,-162.5001 628.6776,-169.5001"/>
</g>
<!-- AngularMaterialModule -->
<g id="node9" class="node">
<title>AngularMaterialModule</title>
<polygon fill="#8dd3c7" stroke="#000000" points="281.3431,-122 278.3431,-126 257.3431,-126 254.3431,-122 128.6569,-122 128.6569,-86 281.3431,-86 281.3431,-122"/>
<text text-anchor="middle" x="205" y="-99.8" font-family="Times,serif" font-size="14.00" fill="#000000">AngularMaterialModule</text>
</g>
<!-- AngularMaterialModule&#45;&gt;SelectCustomerModule -->
<g id="edge8" class="edge">
<title>AngularMaterialModule&#45;&gt;SelectCustomerModule</title>
<path fill="none" stroke="#000000" d="M205,-122.1289C205,-142.5724 205,-173 205,-173 205,-173 628.8606,-173 628.8606,-173"/>
<polygon fill="#000000" stroke="#000000" points="628.8606,-176.5001 638.8606,-173 628.8606,-169.5001 628.8606,-176.5001"/>
</g>
<!-- CoreModule -->
<g id="node10" class="node">
<title>CoreModule</title>
<polygon fill="#8dd3c7" stroke="#000000" points="110.2619,-122 107.2619,-126 86.2619,-126 83.2619,-122 23.7381,-122 23.7381,-86 110.2619,-86 110.2619,-122"/>
<text text-anchor="middle" x="67" y="-99.8" font-family="Times,serif" font-size="14.00" fill="#000000">CoreModule</text>
</g>
<!-- CoreModule&#45;&gt;SelectCustomerModule -->
<g id="edge9" class="edge">
<title>CoreModule&#45;&gt;SelectCustomerModule</title>
<path fill="none" stroke="#000000" d="M67,-122.0109C67,-144.4852 67,-180 67,-180 67,-180 628.8956,-180 628.8956,-180"/>
<polygon fill="#000000" stroke="#000000" points="628.8956,-183.5001 638.8956,-180 628.8956,-176.5001 628.8956,-183.5001"/>
</g>
</g>
</svg>
