<?xml version="1.0" encoding="UTF-8" standalone="no"?>
<!DOCTYPE svg PUBLIC "-//W3C//DTD SVG 1.1//EN"
 "http://www.w3.org/Graphics/SVG/1.1/DTD/svg11.dtd">
<!-- Generated by graphviz version 2.40.1 (20161225.0304)
 -->
<!-- Title: dependencies Pages: 1 -->
<svg width="2886pt" height="284pt"
 viewBox="0.00 0.00 2886.00 284.00" xmlns="http://www.w3.org/2000/svg" xmlns:xlink="http://www.w3.org/1999/xlink">
<g id="graph0" class="graph" transform="scale(1 1) rotate(0) translate(4 280)">
<title>dependencies</title>
<polygon fill="#ffffff" stroke="transparent" points="-4,4 -4,-280 2882,-280 2882,4 -4,4"/>
<text text-anchor="start" x="1418.0091" y="-42.4" font-family="sans-serif" font-weight="bold" font-size="14.00" fill="#000000">Legend</text>
<polygon fill="#ffffb3" stroke="transparent" points="1205,-10 1205,-30 1225,-30 1225,-10 1205,-10"/>
<text text-anchor="start" x="1228.629" y="-15.4" font-family="sans-serif" font-size="14.00" fill="#000000"> &#160;Declarations</text>
<polygon fill="#8dd3c7" stroke="transparent" points="1318,-10 1318,-30 1338,-30 1338,-10 1318,-10"/>
<text text-anchor="start" x="1341.7251" y="-15.4" font-family="sans-serif" font-size="14.00" fill="#000000"> &#160;Module</text>
<polygon fill="#80b1d3" stroke="transparent" points="1404,-10 1404,-30 1424,-30 1424,-10 1404,-10"/>
<text text-anchor="start" x="1427.7812" y="-15.4" font-family="sans-serif" font-size="14.00" fill="#000000"> &#160;Bootstrap</text>
<polygon fill="#fdb462" stroke="transparent" points="1501,-10 1501,-30 1521,-30 1521,-10 1501,-10"/>
<text text-anchor="start" x="1524.6732" y="-15.4" font-family="sans-serif" font-size="14.00" fill="#000000"> &#160;Providers</text>
<polygon fill="#fb8072" stroke="transparent" points="1597,-10 1597,-30 1617,-30 1617,-10 1597,-10"/>
<text text-anchor="start" x="1620.7258" y="-15.4" font-family="sans-serif" font-size="14.00" fill="#000000"> &#160;Exports</text>
<g id="clust1" class="cluster">
<title>cluster_SharedModule</title>
<polygon fill="none" stroke="#000000" stroke-dasharray="1,5" points="8,-70 8,-268 2870,-268 2870,-70 8,-70"/>
</g>
<g id="clust2" class="cluster">
<title>cluster_SharedModule_declarations</title>
<polygon fill="none" stroke="#000000" points="537,-78 537,-130 2862,-130 2862,-78 537,-78"/>
</g>
<g id="clust17" class="cluster">
<title>cluster_SharedModule_imports</title>
<polygon fill="none" stroke="#000000" points="16,-78 16,-130 529,-130 529,-78 16,-78"/>
</g>
<g id="clust18" class="cluster">
<title>cluster_SharedModule_exports</title>
<polygon fill="none" stroke="#000000" points="699,-208 699,-260 2163,-260 2163,-208 699,-208"/>
</g>
<!-- PageNotFoundComponent -->
<g id="node1" class="node">
<title>PageNotFoundComponent</title>
<polygon fill="#ffffb3" stroke="#000000" points="2853.8243,-122 2688.1757,-122 2688.1757,-86 2853.8243,-86 2853.8243,-122"/>
<text text-anchor="middle" x="2771" y="-99.8" font-family="Times,serif" font-size="14.00" fill="#000000">PageNotFoundComponent</text>
</g>
<!-- SharedModule -->
<g id="node15" class="node">
<title>SharedModule</title>
<polygon fill="#8dd3c7" stroke="#000000" points="1455.4231,-187 1452.4231,-191 1431.4231,-191 1428.4231,-187 1356.5769,-187 1356.5769,-151 1455.4231,-151 1455.4231,-187"/>
<text text-anchor="middle" x="1406" y="-164.8" font-family="Times,serif" font-size="14.00" fill="#000000">SharedModule</text>
</g>
<!-- PageNotFoundComponent&#45;&gt;SharedModule -->
<g id="edge1" class="edge">
<title>PageNotFoundComponent&#45;&gt;SharedModule</title>
<path fill="none" stroke="#000000" d="M2771,-122.0267C2771,-142.7672 2771,-174 2771,-174 2771,-174 1465.3875,-174 1465.3875,-174"/>
<polygon fill="#000000" stroke="#000000" points="1465.3875,-170.5001 1455.3875,-174 1465.3874,-177.5001 1465.3875,-170.5001"/>
</g>
<!-- UnsupportedBrowserComponent -->
<g id="node2" class="node">
<title>UnsupportedBrowserComponent</title>
<polygon fill="#ffffb3" stroke="#000000" points="2670.573,-122 2469.427,-122 2469.427,-86 2670.573,-86 2670.573,-122"/>
<text text-anchor="middle" x="2570" y="-99.8" font-family="Times,serif" font-size="14.00" fill="#000000">UnsupportedBrowserComponent</text>
</g>
<!-- UnsupportedBrowserComponent&#45;&gt;SharedModule -->
<g id="edge2" class="edge">
<title>UnsupportedBrowserComponent&#45;&gt;SharedModule</title>
<path fill="none" stroke="#000000" d="M2570,-122.308C2570,-142.1455 2570,-171 2570,-171 2570,-171 1465.2722,-171 1465.2722,-171"/>
<polygon fill="#000000" stroke="#000000" points="1465.2722,-167.5001 1455.2722,-171 1465.2721,-174.5001 1465.2722,-167.5001"/>
</g>
<!-- WorkInProgressComponent -->
<g id="node3" class="node">
<title>WorkInProgressComponent</title>
<polygon fill="#ffffb3" stroke="#000000" points="2451.5758,-122 2278.4242,-122 2278.4242,-86 2451.5758,-86 2451.5758,-122"/>
<text text-anchor="middle" x="2365" y="-99.8" font-family="Times,serif" font-size="14.00" fill="#000000">WorkInProgressComponent</text>
</g>
<!-- WorkInProgressComponent&#45;&gt;SharedModule -->
<g id="edge3" class="edge">
<title>WorkInProgressComponent&#45;&gt;SharedModule</title>
<path fill="none" stroke="#000000" d="M2365,-122.1686C2365,-141.0898 2365,-168 2365,-168 2365,-168 1465.5406,-168 1465.5406,-168"/>
<polygon fill="#000000" stroke="#000000" points="1465.5406,-164.5001 1455.5406,-168 1465.5406,-171.5001 1465.5406,-164.5001"/>
</g>
<!-- FooterComponent -->
<g id="node4" class="node">
<title>FooterComponent</title>
<polygon fill="#ffffb3" stroke="#000000" points="2260.8809,-122 2143.1191,-122 2143.1191,-86 2260.8809,-86 2260.8809,-122"/>
<text text-anchor="middle" x="2202" y="-99.8" font-family="Times,serif" font-size="14.00" fill="#000000">FooterComponent</text>
</g>
<!-- FooterComponent&#45;&gt;SharedModule -->
<g id="edge4" class="edge">
<title>FooterComponent&#45;&gt;SharedModule</title>
<path fill="none" stroke="#000000" d="M2149.1156,-122.302C2149.1156,-140.2699 2149.1156,-165 2149.1156,-165 2149.1156,-165 1465.3334,-165 1465.3334,-165"/>
<polygon fill="#000000" stroke="#000000" points="1465.3334,-161.5001 1455.3334,-165 1465.3334,-168.5001 1465.3334,-161.5001"/>
</g>
<!-- HeaderComponent -->
<g id="node5" class="node">
<title>HeaderComponent</title>
<polygon fill="#ffffb3" stroke="#000000" points="2124.7437,-122 2003.2563,-122 2003.2563,-86 2124.7437,-86 2124.7437,-122"/>
<text text-anchor="middle" x="2064" y="-99.8" font-family="Times,serif" font-size="14.00" fill="#000000">HeaderComponent</text>
</g>
<!-- HeaderComponent&#45;&gt;SharedModule -->
<g id="edge5" class="edge">
<title>HeaderComponent&#45;&gt;SharedModule</title>
<path fill="none" stroke="#000000" d="M2084.2906,-122.0225C2084.2906,-139.3734 2084.2906,-163 2084.2906,-163 2084.2906,-163 1465.3274,-163 1465.3274,-163"/>
<polygon fill="#000000" stroke="#000000" points="1465.3274,-159.5001 1455.3274,-163 1465.3273,-166.5001 1465.3274,-159.5001"/>
</g>
<!-- WindowComponent -->
<g id="node6" class="node">
<title>WindowComponent</title>
<polygon fill="#ffffb3" stroke="#000000" points="1984.545,-122 1855.455,-122 1855.455,-86 1984.545,-86 1984.545,-122"/>
<text text-anchor="middle" x="1920" y="-99.8" font-family="Times,serif" font-size="14.00" fill="#000000">WindowComponent</text>
</g>
<!-- WindowComponent&#45;&gt;SharedModule -->
<g id="edge6" class="edge">
<title>WindowComponent&#45;&gt;SharedModule</title>
<path fill="none" stroke="#000000" d="M1940.2301,-122.027C1940.2301,-138.3976 1940.2301,-160 1940.2301,-160 1940.2301,-160 1465.3015,-160 1465.3015,-160"/>
<polygon fill="#000000" stroke="#000000" points="1465.3015,-156.5001 1455.3015,-160 1465.3015,-163.5001 1465.3015,-156.5001"/>
</g>
<!-- LoginComponent -->
<g id="node7" class="node">
<title>LoginComponent</title>
<polygon fill="#ffffb3" stroke="#000000" points="1837.2758,-122 1722.7242,-122 1722.7242,-86 1837.2758,-86 1837.2758,-122"/>
<text text-anchor="middle" x="1780" y="-99.8" font-family="Times,serif" font-size="14.00" fill="#000000">LoginComponent</text>
</g>
<!-- LoginComponent&#45;&gt;SharedModule -->
<g id="edge7" class="edge">
<title>LoginComponent&#45;&gt;SharedModule</title>
<path fill="none" stroke="#000000" d="M1760.8707,-122.2396C1760.8707,-137.5706 1760.8707,-157 1760.8707,-157 1760.8707,-157 1465.3433,-157 1465.3433,-157"/>
<polygon fill="#000000" stroke="#000000" points="1465.3433,-153.5001 1455.3433,-157 1465.3432,-160.5001 1465.3433,-153.5001"/>
</g>
<!-- StatusComponent -->
<g id="node8" class="node">
<title>StatusComponent</title>
<polygon fill="#ffffb3" stroke="#000000" points="1704.5563,-122 1589.4437,-122 1589.4437,-86 1704.5563,-86 1704.5563,-122"/>
<text text-anchor="middle" x="1647" y="-99.8" font-family="Times,serif" font-size="14.00" fill="#000000">StatusComponent</text>
</g>
<!-- StatusComponent&#45;&gt;SharedModule -->
<g id="edge8" class="edge">
<title>StatusComponent&#45;&gt;SharedModule</title>
<path fill="none" stroke="#000000" d="M1643.8722,-122.0511C1643.8722,-136.373 1643.8722,-154 1643.8722,-154 1643.8722,-154 1465.2873,-154 1465.2873,-154"/>
<polygon fill="#000000" stroke="#000000" points="1465.2873,-150.5001 1455.2873,-154 1465.2872,-157.5001 1465.2873,-150.5001"/>
</g>
<!-- SvgConnectorComponent -->
<g id="node9" class="node">
<title>SvgConnectorComponent</title>
<polygon fill="#ffffb3" stroke="#000000" points="1571.9326,-122 1410.0674,-122 1410.0674,-86 1571.9326,-86 1571.9326,-122"/>
<text text-anchor="middle" x="1491" y="-99.8" font-family="Times,serif" font-size="14.00" fill="#000000">SvgConnectorComponent</text>
</g>
<!-- SvgConnectorComponent&#45;&gt;SharedModule -->
<g id="edge9" class="edge">
<title>SvgConnectorComponent&#45;&gt;SharedModule</title>
<path fill="none" stroke="#000000" d="M1432.7476,-122.1061C1432.7476,-122.1061 1432.7476,-140.991 1432.7476,-140.991"/>
<polygon fill="#000000" stroke="#000000" points="1429.2476,-140.9909 1432.7476,-150.991 1436.2476,-140.991 1429.2476,-140.9909"/>
</g>
<!-- SvgArrowComponent -->
<g id="node10" class="node">
<title>SvgArrowComponent</title>
<polygon fill="#ffffb3" stroke="#000000" points="1391.6498,-122 1252.3502,-122 1252.3502,-86 1391.6498,-86 1391.6498,-122"/>
<text text-anchor="middle" x="1322" y="-99.8" font-family="Times,serif" font-size="14.00" fill="#000000">SvgArrowComponent</text>
</g>
<!-- SvgArrowComponent&#45;&gt;SharedModule -->
<g id="edge10" class="edge">
<title>SvgArrowComponent&#45;&gt;SharedModule</title>
<path fill="none" stroke="#000000" d="M1374.3068,-122.1061C1374.3068,-122.1061 1374.3068,-140.991 1374.3068,-140.991"/>
<polygon fill="#000000" stroke="#000000" points="1370.8069,-140.9909 1374.3068,-150.991 1377.8069,-140.991 1370.8069,-140.9909"/>
</g>
<!-- ModalComponent -->
<g id="node11" class="node">
<title>ModalComponent</title>
<polygon fill="#ffffb3" stroke="#000000" points="1233.8823,-122 1116.1177,-122 1116.1177,-86 1233.8823,-86 1233.8823,-122"/>
<text text-anchor="middle" x="1175" y="-99.8" font-family="Times,serif" font-size="14.00" fill="#000000">ModalComponent</text>
</g>
<!-- ModalComponent&#45;&gt;SharedModule -->
<g id="edge11" class="edge">
<title>ModalComponent&#45;&gt;SharedModule</title>
<path fill="none" stroke="#000000" d="M1229.7579,-122.0511C1229.7579,-136.373 1229.7579,-154 1229.7579,-154 1229.7579,-154 1346.4377,-154 1346.4377,-154"/>
<polygon fill="#000000" stroke="#000000" points="1346.4378,-157.5001 1356.4377,-154 1346.4377,-150.5001 1346.4378,-157.5001"/>
</g>
<!-- ModalMessageComponent -->
<g id="node12" class="node">
<title>ModalMessageComponent</title>
<polygon fill="#ffffb3" stroke="#000000" points="1098.3599,-122 931.6401,-122 931.6401,-86 1098.3599,-86 1098.3599,-122"/>
<text text-anchor="middle" x="1015" y="-99.8" font-family="Times,serif" font-size="14.00" fill="#000000">ModalMessageComponent</text>
</g>
<!-- ModalMessageComponent&#45;&gt;SharedModule -->
<g id="edge12" class="edge">
<title>ModalMessageComponent&#45;&gt;SharedModule</title>
<path fill="none" stroke="#000000" d="M1090.4276,-122.2396C1090.4276,-137.5706 1090.4276,-157 1090.4276,-157 1090.4276,-157 1346.6918,-157 1346.6918,-157"/>
<polygon fill="#000000" stroke="#000000" points="1346.6918,-160.5001 1356.6918,-157 1346.6918,-153.5001 1346.6918,-160.5001"/>
</g>
<!-- TitleComponent -->
<g id="node13" class="node">
<title>TitleComponent</title>
<polygon fill="#ffffb3" stroke="#000000" points="913.7716,-122 806.2284,-122 806.2284,-86 913.7716,-86 913.7716,-122"/>
<text text-anchor="middle" x="860" y="-99.8" font-family="Times,serif" font-size="14.00" fill="#000000">TitleComponent</text>
</g>
<!-- TitleComponent&#45;&gt;SharedModule -->
<g id="edge13" class="edge">
<title>TitleComponent&#45;&gt;SharedModule</title>
<path fill="none" stroke="#000000" d="M875.179,-122.027C875.179,-138.3976 875.179,-160 875.179,-160 875.179,-160 1346.5383,-160 1346.5383,-160"/>
<polygon fill="#000000" stroke="#000000" points="1346.5384,-163.5001 1356.5383,-160 1346.5383,-156.5001 1346.5384,-163.5001"/>
</g>
<!-- SelectEmailAddressesModalComponent -->
<g id="node14" class="node">
<title>SelectEmailAddressesModalComponent</title>
<polygon fill="#ffffb3" stroke="#000000" points="788.559,-122 545.441,-122 545.441,-86 788.559,-86 788.559,-122"/>
<text text-anchor="middle" x="667" y="-99.8" font-family="Times,serif" font-size="14.00" fill="#000000">SelectEmailAddressesModalComponent</text>
</g>
<!-- SelectEmailAddressesModalComponent&#45;&gt;SharedModule -->
<g id="edge14" class="edge">
<title>SelectEmailAddressesModalComponent&#45;&gt;SharedModule</title>
<path fill="none" stroke="#000000" d="M747.9469,-122.0225C747.9469,-139.3734 747.9469,-163 747.9469,-163 747.9469,-163 1346.5391,-163 1346.5391,-163"/>
<polygon fill="#000000" stroke="#000000" points="1346.5391,-166.5001 1356.5391,-163 1346.539,-159.5001 1346.5391,-166.5001"/>
</g>
<!-- AngularMaterialModule  -->
<g id="node20" class="node">
<title>AngularMaterialModule </title>
<polygon fill="#fb8072" stroke="#000000" points="2155.3434,-252 1998.6566,-252 1998.6566,-216 2155.3434,-216 2155.3434,-252"/>
<text text-anchor="middle" x="2077" y="-229.8" font-family="Times,serif" font-size="14.00" fill="#000000">AngularMaterialModule </text>
</g>
<!-- SharedModule&#45;&gt;AngularMaterialModule  -->
<g id="edge19" class="edge">
<title>SharedModule&#45;&gt;AngularMaterialModule </title>
<path fill="none" stroke="#000000" stroke-dasharray="5,2" d="M1455.2449,-176C1604.8255,-176 2043.7094,-176 2043.7094,-176 2043.7094,-176 2043.7094,-205.9664 2043.7094,-205.9664"/>
<polygon fill="#000000" stroke="#000000" points="2040.2095,-205.9663 2043.7094,-215.9664 2047.2095,-205.9664 2040.2095,-205.9663"/>
</g>
<!-- FooterComponent  -->
<g id="node21" class="node">
<title>FooterComponent </title>
<polygon fill="#fb8072" stroke="#000000" points="1980.8814,-252 1859.1186,-252 1859.1186,-216 1980.8814,-216 1980.8814,-252"/>
<text text-anchor="middle" x="1920" y="-229.8" font-family="Times,serif" font-size="14.00" fill="#000000">FooterComponent </text>
</g>
<!-- SharedModule&#45;&gt;FooterComponent  -->
<g id="edge20" class="edge">
<title>SharedModule&#45;&gt;FooterComponent </title>
<path fill="none" stroke="#000000" stroke-dasharray="5,2" d="M1455.6053,-179C1580.8186,-179 1899.7699,-179 1899.7699,-179 1899.7699,-179 1899.7699,-205.9909 1899.7699,-205.9909"/>
<polygon fill="#000000" stroke="#000000" points="1896.27,-205.9909 1899.7699,-215.9909 1903.27,-205.991 1896.27,-205.9909"/>
</g>
<!-- HeaderComponent  -->
<g id="node22" class="node">
<title>HeaderComponent </title>
<polygon fill="#fb8072" stroke="#000000" points="1841.7436,-252 1716.2564,-252 1716.2564,-216 1841.7436,-216 1841.7436,-252"/>
<text text-anchor="middle" x="1779" y="-229.8" font-family="Times,serif" font-size="14.00" fill="#000000">HeaderComponent </text>
</g>
<!-- SharedModule&#45;&gt;HeaderComponent  -->
<g id="edge21" class="edge">
<title>SharedModule&#45;&gt;HeaderComponent </title>
<path fill="none" stroke="#000000" stroke-dasharray="5,2" d="M1455.392,-182C1560.9784,-182 1799.1293,-182 1799.1293,-182 1799.1293,-182 1799.1293,-205.8129 1799.1293,-205.8129"/>
<polygon fill="#000000" stroke="#000000" points="1795.6294,-205.8129 1799.1293,-215.8129 1802.6294,-205.813 1795.6294,-205.8129"/>
</g>
<!-- WindowComponent  -->
<g id="node23" class="node">
<title>WindowComponent </title>
<polygon fill="#fb8072" stroke="#000000" points="1698.5442,-252 1565.4558,-252 1565.4558,-216 1698.5442,-216 1698.5442,-252"/>
<text text-anchor="middle" x="1632" y="-229.8" font-family="Times,serif" font-size="14.00" fill="#000000">WindowComponent </text>
</g>
<!-- SharedModule&#45;&gt;WindowComponent  -->
<g id="edge22" class="edge">
<title>SharedModule&#45;&gt;WindowComponent </title>
<path fill="none" stroke="#000000" stroke-dasharray="5,2" d="M1455.5292,-185C1507.1099,-185 1580.4691,-185 1580.4691,-185 1580.4691,-185 1580.4691,-205.7542 1580.4691,-205.7542"/>
<polygon fill="#000000" stroke="#000000" points="1576.9692,-205.7542 1580.4691,-215.7542 1583.9692,-205.7542 1576.9692,-205.7542"/>
</g>
<!-- DirectivesModule  -->
<g id="node24" class="node">
<title>DirectivesModule </title>
<polygon fill="#fb8072" stroke="#000000" points="1547.0779,-252 1426.9221,-252 1426.9221,-216 1547.0779,-216 1547.0779,-252"/>
<text text-anchor="middle" x="1487" y="-229.8" font-family="Times,serif" font-size="14.00" fill="#000000">DirectivesModule </text>
</g>
<!-- SharedModule&#45;&gt;DirectivesModule  -->
<g id="edge23" class="edge">
<title>SharedModule&#45;&gt;DirectivesModule </title>
<path fill="none" stroke="#000000" stroke-dasharray="5,2" d="M1440.9612,-187.1061C1440.9612,-187.1061 1440.9612,-205.991 1440.9612,-205.991"/>
<polygon fill="#000000" stroke="#000000" points="1437.4613,-205.9909 1440.9612,-215.991 1444.4613,-205.991 1437.4613,-205.9909"/>
</g>
<!-- SvgConnectorComponent  -->
<g id="node25" class="node">
<title>SvgConnectorComponent </title>
<polygon fill="#fb8072" stroke="#000000" points="1408.432,-252 1243.568,-252 1243.568,-216 1408.432,-216 1408.432,-252"/>
<text text-anchor="middle" x="1326" y="-229.8" font-family="Times,serif" font-size="14.00" fill="#000000">SvgConnectorComponent </text>
</g>
<!-- SharedModule&#45;&gt;SvgConnectorComponent  -->
<g id="edge24" class="edge">
<title>SharedModule&#45;&gt;SvgConnectorComponent </title>
<path fill="none" stroke="#000000" stroke-dasharray="5,2" d="M1382.6275,-187.1061C1382.6275,-187.1061 1382.6275,-205.991 1382.6275,-205.991"/>
<polygon fill="#000000" stroke="#000000" points="1379.1275,-205.9909 1382.6275,-215.991 1386.1275,-205.991 1379.1275,-205.9909"/>
</g>
<!-- SvgArrowComponent  -->
<g id="node26" class="node">
<title>SvgArrowComponent </title>
<polygon fill="#fb8072" stroke="#000000" points="1225.6495,-252 1082.3505,-252 1082.3505,-216 1225.6495,-216 1225.6495,-252"/>
<text text-anchor="middle" x="1154" y="-229.8" font-family="Times,serif" font-size="14.00" fill="#000000">SvgArrowComponent </text>
</g>
<!-- SharedModule&#45;&gt;SvgArrowComponent  -->
<g id="edge25" class="edge">
<title>SharedModule&#45;&gt;SvgArrowComponent </title>
<path fill="none" stroke="#000000" stroke-dasharray="5,2" d="M1356.6979,-185C1287.7346,-185 1170.8168,-185 1170.8168,-185 1170.8168,-185 1170.8168,-205.7542 1170.8168,-205.7542"/>
<polygon fill="#000000" stroke="#000000" points="1167.3169,-205.7542 1170.8168,-215.7542 1174.3169,-205.7542 1167.3169,-205.7542"/>
</g>
<!-- AdalModule  -->
<g id="node27" class="node">
<title>AdalModule </title>
<polygon fill="#fb8072" stroke="#000000" points="1064.262,-252 973.738,-252 973.738,-216 1064.262,-216 1064.262,-252"/>
<text text-anchor="middle" x="1019" y="-229.8" font-family="Times,serif" font-size="14.00" fill="#000000">AdalModule </text>
</g>
<!-- SharedModule&#45;&gt;AdalModule  -->
<g id="edge26" class="edge">
<title>SharedModule&#45;&gt;AdalModule </title>
<path fill="none" stroke="#000000" stroke-dasharray="5,2" d="M1356.5931,-182C1252.2627,-182 1019,-182 1019,-182 1019,-182 1019,-205.8129 1019,-205.8129"/>
<polygon fill="#000000" stroke="#000000" points="1015.5001,-205.8129 1019,-215.8129 1022.5001,-205.813 1015.5001,-205.8129"/>
</g>
<!-- StatusComponent  -->
<g id="node28" class="node">
<title>StatusComponent </title>
<polygon fill="#fb8072" stroke="#000000" points="955.5554,-252 836.4446,-252 836.4446,-216 955.5554,-216 955.5554,-252"/>
<text text-anchor="middle" x="896" y="-229.8" font-family="Times,serif" font-size="14.00" fill="#000000">StatusComponent </text>
</g>
<!-- SharedModule&#45;&gt;StatusComponent  -->
<g id="edge27" class="edge">
<title>SharedModule&#45;&gt;StatusComponent </title>
<path fill="none" stroke="#000000" stroke-dasharray="5,2" d="M1356.5096,-179C1237.2099,-179 943.5489,-179 943.5489,-179 943.5489,-179 943.5489,-205.9909 943.5489,-205.9909"/>
<polygon fill="#000000" stroke="#000000" points="940.049,-205.9909 943.5489,-215.9909 947.049,-205.991 940.049,-205.9909"/>
</g>
<!-- TitleComponent  -->
<g id="node29" class="node">
<title>TitleComponent </title>
<polygon fill="#fb8072" stroke="#000000" points="818.7717,-252 707.2283,-252 707.2283,-216 818.7717,-216 818.7717,-252"/>
<text text-anchor="middle" x="763" y="-229.8" font-family="Times,serif" font-size="14.00" fill="#000000">TitleComponent </text>
</g>
<!-- SharedModule&#45;&gt;TitleComponent  -->
<g id="edge28" class="edge">
<title>SharedModule&#45;&gt;TitleComponent </title>
<path fill="none" stroke="#000000" stroke-dasharray="5,2" d="M1356.6628,-176C1214.214,-176 812.375,-176 812.375,-176 812.375,-176 812.375,-205.9664 812.375,-205.9664"/>
<polygon fill="#000000" stroke="#000000" points="808.8751,-205.9663 812.375,-215.9664 815.8751,-205.9664 808.8751,-205.9663"/>
</g>
<!-- AngularMaterialModule -->
<g id="node16" class="node">
<title>AngularMaterialModule</title>
<polygon fill="#8dd3c7" stroke="#000000" points="521.3431,-122 518.3431,-126 497.3431,-126 494.3431,-122 368.6569,-122 368.6569,-86 521.3431,-86 521.3431,-122"/>
<text text-anchor="middle" x="445" y="-99.8" font-family="Times,serif" font-size="14.00" fill="#000000">AngularMaterialModule</text>
</g>
<!-- AngularMaterialModule&#45;&gt;SharedModule -->
<g id="edge15" class="edge">
<title>AngularMaterialModule&#45;&gt;SharedModule</title>
<path fill="none" stroke="#000000" d="M445,-122.302C445,-140.2699 445,-165 445,-165 445,-165 1346.6899,-165 1346.6899,-165"/>
<polygon fill="#000000" stroke="#000000" points="1346.6899,-168.5001 1356.6899,-165 1346.6899,-161.5001 1346.6899,-168.5001"/>
</g>
<!-- CoreModule -->
<g id="node17" class="node">
<title>CoreModule</title>
<polygon fill="#8dd3c7" stroke="#000000" points="350.2619,-122 347.2619,-126 326.2619,-126 323.2619,-122 263.7381,-122 263.7381,-86 350.2619,-86 350.2619,-122"/>
<text text-anchor="middle" x="307" y="-99.8" font-family="Times,serif" font-size="14.00" fill="#000000">CoreModule</text>
</g>
<!-- CoreModule&#45;&gt;SharedModule -->
<g id="edge16" class="edge">
<title>CoreModule&#45;&gt;SharedModule</title>
<path fill="none" stroke="#000000" d="M307,-122.1686C307,-141.0898 307,-168 307,-168 307,-168 1346.6432,-168 1346.6432,-168"/>
<polygon fill="#000000" stroke="#000000" points="1346.6433,-171.5001 1356.6432,-168 1346.6432,-164.5001 1346.6433,-171.5001"/>
</g>
<!-- DirectivesModule -->
<g id="node18" class="node">
<title>DirectivesModule</title>
<polygon fill="#8dd3c7" stroke="#000000" points="245.5772,-122 242.5772,-126 221.5772,-126 218.5772,-122 128.4228,-122 128.4228,-86 245.5772,-86 245.5772,-122"/>
<text text-anchor="middle" x="187" y="-99.8" font-family="Times,serif" font-size="14.00" fill="#000000">DirectivesModule</text>
</g>
<!-- DirectivesModule&#45;&gt;SharedModule -->
<g id="edge17" class="edge">
<title>DirectivesModule&#45;&gt;SharedModule</title>
<path fill="none" stroke="#000000" d="M187,-122.308C187,-142.1455 187,-171 187,-171 187,-171 1346.704,-171 1346.704,-171"/>
<polygon fill="#000000" stroke="#000000" points="1346.704,-174.5001 1356.704,-171 1346.7039,-167.5001 1346.704,-174.5001"/>
</g>
<!-- AdalModule -->
<g id="node19" class="node">
<title>AdalModule</title>
<polygon fill="#8dd3c7" stroke="#000000" points="110.2619,-122 107.2619,-126 86.2619,-126 83.2619,-122 23.7381,-122 23.7381,-86 110.2619,-86 110.2619,-122"/>
<text text-anchor="middle" x="67" y="-99.8" font-family="Times,serif" font-size="14.00" fill="#000000">AdalModule</text>
</g>
<!-- AdalModule&#45;&gt;SharedModule -->
<g id="edge18" class="edge">
<title>AdalModule&#45;&gt;SharedModule</title>
<path fill="none" stroke="#000000" d="M67,-122.0267C67,-142.7672 67,-174 67,-174 67,-174 1346.7563,-174 1346.7563,-174"/>
<polygon fill="#000000" stroke="#000000" points="1346.7563,-177.5001 1356.7563,-174 1346.7562,-170.5001 1346.7563,-177.5001"/>
</g>
</g>
</svg>
